%TF.GenerationSoftware,KiCad,Pcbnew,8.0.6*%
%TF.CreationDate,2024-10-29T14:36:32-05:00*%
%TF.ProjectId,tokenizer,746f6b65-6e69-47a6-9572-2e6b69636164,rev?*%
%TF.SameCoordinates,Original*%
%TF.FileFunction,Copper,L2,Bot*%
%TF.FilePolarity,Positive*%
%FSLAX46Y46*%
G04 Gerber Fmt 4.6, Leading zero omitted, Abs format (unit mm)*
G04 Created by KiCad (PCBNEW 8.0.6) date 2024-10-29 14:36:32*
%MOMM*%
%LPD*%
G01*
G04 APERTURE LIST*
G04 Aperture macros list*
%AMRoundRect*
0 Rectangle with rounded corners*
0 $1 Rounding radius*
0 $2 $3 $4 $5 $6 $7 $8 $9 X,Y pos of 4 corners*
0 Add a 4 corners polygon primitive as box body*
4,1,4,$2,$3,$4,$5,$6,$7,$8,$9,$2,$3,0*
0 Add four circle primitives for the rounded corners*
1,1,$1+$1,$2,$3*
1,1,$1+$1,$4,$5*
1,1,$1+$1,$6,$7*
1,1,$1+$1,$8,$9*
0 Add four rect primitives between the rounded corners*
20,1,$1+$1,$2,$3,$4,$5,0*
20,1,$1+$1,$4,$5,$6,$7,0*
20,1,$1+$1,$6,$7,$8,$9,0*
20,1,$1+$1,$8,$9,$2,$3,0*%
G04 Aperture macros list end*
%TA.AperFunction,ComponentPad*%
%ADD10C,2.000000*%
%TD*%
%TA.AperFunction,ComponentPad*%
%ADD11C,1.500000*%
%TD*%
%TA.AperFunction,ComponentPad*%
%ADD12R,1.700000X1.700000*%
%TD*%
%TA.AperFunction,ComponentPad*%
%ADD13O,1.700000X1.700000*%
%TD*%
%TA.AperFunction,ComponentPad*%
%ADD14RoundRect,0.250000X-0.350000X-0.625000X0.350000X-0.625000X0.350000X0.625000X-0.350000X0.625000X0*%
%TD*%
%TA.AperFunction,ComponentPad*%
%ADD15O,1.200000X1.750000*%
%TD*%
%TA.AperFunction,ComponentPad*%
%ADD16RoundRect,0.250000X0.600000X-0.600000X0.600000X0.600000X-0.600000X0.600000X-0.600000X-0.600000X0*%
%TD*%
%TA.AperFunction,ComponentPad*%
%ADD17C,1.700000*%
%TD*%
%TA.AperFunction,ComponentPad*%
%ADD18C,0.650000*%
%TD*%
%TA.AperFunction,ComponentPad*%
%ADD19O,0.900000X1.700000*%
%TD*%
%TA.AperFunction,ComponentPad*%
%ADD20O,0.900000X2.400000*%
%TD*%
%TA.AperFunction,ViaPad*%
%ADD21C,0.600000*%
%TD*%
%TA.AperFunction,Conductor*%
%ADD22C,0.400000*%
%TD*%
%TA.AperFunction,Conductor*%
%ADD23C,0.600000*%
%TD*%
%TA.AperFunction,Conductor*%
%ADD24C,0.200000*%
%TD*%
G04 APERTURE END LIST*
D10*
%TO.P,SW7,1,1*%
%TO.N,/BTN6*%
X116250000Y-90361115D03*
X109750000Y-90361115D03*
%TO.P,SW7,2,2*%
%TO.N,GND*%
X116250000Y-85861115D03*
X109750000Y-85861115D03*
%TD*%
%TO.P,SW4,1,1*%
%TO.N,/BTN3*%
X116250000Y-123444446D03*
X109750000Y-123444446D03*
%TO.P,SW4,2,2*%
%TO.N,GND*%
X116250000Y-118944446D03*
X109750000Y-118944446D03*
%TD*%
%TO.P,SW3,1,1*%
%TO.N,/BTN2*%
X116250000Y-134472223D03*
X109750000Y-134472223D03*
%TO.P,SW3,2,2*%
%TO.N,GND*%
X116250000Y-129972223D03*
X109750000Y-129972223D03*
%TD*%
%TO.P,SW2,1,1*%
%TO.N,/BTN1*%
X116250000Y-145500000D03*
X109750000Y-145500000D03*
%TO.P,SW2,2,2*%
%TO.N,GND*%
X116250000Y-141000000D03*
X109750000Y-141000000D03*
%TD*%
D11*
%TO.P,Y3,1,1*%
%TO.N,/OSC_IN*%
X54500000Y-84050000D03*
%TO.P,Y3,2,2*%
%TO.N,/OSC_OUT*%
X54500000Y-88930000D03*
%TD*%
D10*
%TO.P,SW11,1,1*%
%TO.N,/BTN10*%
X116250000Y-46250000D03*
X109750000Y-46250000D03*
%TO.P,SW11,2,2*%
%TO.N,GND*%
X116250000Y-41750000D03*
X109750000Y-41750000D03*
%TD*%
D12*
%TO.P,J4,1,Pin_1*%
%TO.N,+3V3*%
X81975000Y-74710000D03*
D13*
%TO.P,J4,2,Pin_2*%
X81975000Y-77250000D03*
%TO.P,J4,3,Pin_3*%
%TO.N,/BOOT0*%
X84515000Y-74710000D03*
%TO.P,J4,4,Pin_4*%
%TO.N,/BOOT1*%
X84515000Y-77250000D03*
%TO.P,J4,5,Pin_5*%
%TO.N,GND*%
X87055000Y-74710000D03*
%TO.P,J4,6,Pin_6*%
X87055000Y-77250000D03*
%TD*%
D10*
%TO.P,SW9,1,1*%
%TO.N,/BTN8*%
X116250000Y-68305561D03*
X109750000Y-68305561D03*
%TO.P,SW9,2,2*%
%TO.N,GND*%
X116250000Y-63805561D03*
X109750000Y-63805561D03*
%TD*%
D14*
%TO.P,J2,1,Pin_1*%
%TO.N,GND*%
X59739400Y-121773100D03*
D15*
%TO.P,J2,2,Pin_2*%
%TO.N,Net-(J2-Pin_2)*%
X61739400Y-121773100D03*
%TD*%
D11*
%TO.P,S1,1,NC*%
%TO.N,unconnected-(S1-NC-Pad1)*%
X49500000Y-119500000D03*
%TO.P,S1,2,COMM*%
%TO.N,Net-(Q1-EN)*%
X49500000Y-122000000D03*
%TO.P,S1,3,NO*%
%TO.N,/RegIn*%
X49500000Y-124500000D03*
%TD*%
D16*
%TO.P,J5,1,VTref*%
%TO.N,Net-(J5-VTref)*%
X53840000Y-52500000D03*
D17*
%TO.P,J5,2,SWDIO/TMS*%
%TO.N,/JTMS{slash}SWDIO*%
X53840000Y-49960000D03*
%TO.P,J5,3,GND*%
%TO.N,GND*%
X56380000Y-52500000D03*
%TO.P,J5,4,SWDCLK/TCK*%
%TO.N,/JTCK{slash}SWCLK*%
X56380000Y-49960000D03*
%TO.P,J5,5,GND*%
%TO.N,GND*%
X58920000Y-52500000D03*
%TO.P,J5,6,SWO/TDO*%
%TO.N,/JTDO{slash}TRACESWO*%
X58920000Y-49960000D03*
%TO.P,J5,7,KEY*%
%TO.N,unconnected-(J5-KEY-Pad7)*%
X61460000Y-52500000D03*
%TO.P,J5,8,NC/TDI*%
%TO.N,/JTDI*%
X61460000Y-49960000D03*
%TO.P,J5,9,GNDDetect*%
%TO.N,GND*%
X64000000Y-52500000D03*
%TO.P,J5,10,~{RESET}*%
%TO.N,/NRST*%
X64000000Y-49960000D03*
%TD*%
D18*
%TO.P,J1,A1,GND*%
%TO.N,GND*%
X74025000Y-141140000D03*
%TO.P,J1,A4,VBUS*%
%TO.N,+5V*%
X74875000Y-141140000D03*
%TO.P,J1,A5,CC1*%
%TO.N,Net-(J1-CC1)*%
X75725000Y-141140000D03*
%TO.P,J1,A6,DP1*%
%TO.N,Net-(J1-DP1)*%
X76575000Y-141140000D03*
%TO.P,J1,A7,DN1*%
%TO.N,Net-(J1-DN1)*%
X77425000Y-141140000D03*
%TO.P,J1,A8,SBU1*%
%TO.N,unconnected-(J1-SBU1-PadA8)*%
X78275000Y-141140000D03*
%TO.P,J1,A9,VBUS*%
%TO.N,+5V*%
X79125000Y-141140000D03*
%TO.P,J1,A12,GND*%
%TO.N,GND*%
X79975000Y-141140000D03*
%TO.P,J1,B1,GND*%
X79975000Y-142490000D03*
%TO.P,J1,B4,VBUS*%
%TO.N,+5V*%
X79125000Y-142490000D03*
%TO.P,J1,B5,CC2*%
%TO.N,Net-(J1-CC2)*%
X78275000Y-142490000D03*
%TO.P,J1,B6,DP2*%
%TO.N,Net-(J1-DP1)*%
X77425000Y-142490000D03*
%TO.P,J1,B7,DN2*%
%TO.N,Net-(J1-DN1)*%
X76575000Y-142490000D03*
%TO.P,J1,B8,SBU2*%
%TO.N,unconnected-(J1-SBU2-PadB8)*%
X75725000Y-142490000D03*
%TO.P,J1,B9,VBUS*%
%TO.N,+5V*%
X74875000Y-142490000D03*
%TO.P,J1,B12,GND*%
%TO.N,GND*%
X74025000Y-142490000D03*
D19*
%TO.P,J1,S1,SHELL*%
%TO.N,unconnected-(J1-SHELL-PadS1)_3*%
X72675000Y-145500000D03*
%TO.P,J1,S2,SHELL*%
%TO.N,unconnected-(J1-SHELL-PadS1)_2*%
X81325000Y-145500000D03*
D20*
%TO.P,J1,S3,SHELL*%
%TO.N,unconnected-(J1-SHELL-PadS1)*%
X72675000Y-142120000D03*
%TO.P,J1,S4,SHELL*%
%TO.N,unconnected-(J1-SHELL-PadS1)_1*%
X81325000Y-142120000D03*
%TD*%
D10*
%TO.P,SW10,1,1*%
%TO.N,/BTN9*%
X116250000Y-57277784D03*
X109750000Y-57277784D03*
%TO.P,SW10,2,2*%
%TO.N,GND*%
X116250000Y-52777784D03*
X109750000Y-52777784D03*
%TD*%
%TO.P,SW8,1,1*%
%TO.N,/BTN7*%
X116250000Y-79333338D03*
X109750000Y-79333338D03*
%TO.P,SW8,2,2*%
%TO.N,GND*%
X116250000Y-74833338D03*
X109750000Y-74833338D03*
%TD*%
%TO.P,SW5,1,1*%
%TO.N,/BTN4*%
X116250000Y-112416669D03*
X109750000Y-112416669D03*
%TO.P,SW5,2,2*%
%TO.N,GND*%
X116250000Y-107916669D03*
X109750000Y-107916669D03*
%TD*%
%TO.P,SW1,1,1*%
%TO.N,GND*%
X48750000Y-139250000D03*
X55250000Y-139250000D03*
%TO.P,SW1,2,2*%
%TO.N,/NRST*%
X48750000Y-143750000D03*
X55250000Y-143750000D03*
%TD*%
%TO.P,SW6,1,1*%
%TO.N,/BTN5*%
X116250000Y-101388892D03*
X109750000Y-101388892D03*
%TO.P,SW6,2,2*%
%TO.N,GND*%
X116250000Y-96888892D03*
X109750000Y-96888892D03*
%TD*%
D21*
%TO.N,GND*%
X56000000Y-67500000D03*
X102500000Y-108500000D03*
X93000000Y-57000000D03*
X85500000Y-64000000D03*
X71000000Y-132000000D03*
X105500000Y-126000000D03*
X77500000Y-69500000D03*
X66500000Y-104000000D03*
X70000000Y-120000000D03*
X82500000Y-139500000D03*
X105500000Y-69500000D03*
X77500000Y-120000000D03*
X67000000Y-87000000D03*
X72500000Y-76500000D03*
X75000000Y-98000000D03*
X87500000Y-89500000D03*
X88000000Y-124500000D03*
X96500000Y-137000000D03*
X55000000Y-95500000D03*
X57500000Y-109500000D03*
X49500000Y-69500000D03*
X60500000Y-76500000D03*
X66000000Y-107500000D03*
X61500000Y-111000000D03*
X90000000Y-94000000D03*
X60500000Y-108500000D03*
X67500000Y-146000000D03*
X76500000Y-66000000D03*
X95500000Y-85000000D03*
X91000000Y-144500000D03*
X105500000Y-55500000D03*
X49500000Y-131500000D03*
X98000000Y-116500000D03*
X80000000Y-145000000D03*
X99500000Y-60500000D03*
X51500000Y-137500000D03*
X59000000Y-124500000D03*
X89000000Y-86000000D03*
X69500000Y-106500000D03*
X62000000Y-132000000D03*
X64500000Y-143000000D03*
X82500000Y-99000000D03*
X73000000Y-49000000D03*
X96000000Y-41500000D03*
X82000000Y-109500000D03*
X66500000Y-136500000D03*
X106000000Y-60500000D03*
X94500000Y-46000000D03*
X71500000Y-85500000D03*
X90000000Y-131000000D03*
X50500000Y-57000000D03*
X73500000Y-43500000D03*
X103000000Y-61500000D03*
X102000000Y-45000000D03*
X95000000Y-52000000D03*
X81000000Y-58500000D03*
X70500000Y-143500000D03*
X94500000Y-80500000D03*
X74000000Y-144000000D03*
X117000000Y-116000000D03*
X54500000Y-134500000D03*
X102500000Y-131000000D03*
X103000000Y-89500000D03*
X66500000Y-96500000D03*
X67000000Y-67000000D03*
X60500000Y-102000000D03*
X57500000Y-45000000D03*
X68500000Y-88000000D03*
X102000000Y-94000000D03*
X77000000Y-145000000D03*
X103000000Y-84000000D03*
X73500000Y-95000000D03*
X49500000Y-99000000D03*
X98500000Y-105000000D03*
X72000000Y-79000000D03*
X64500000Y-107500000D03*
X49500000Y-93000000D03*
X106000000Y-87000000D03*
X77500000Y-117500000D03*
X49000000Y-78500000D03*
X71000000Y-84000000D03*
X64000000Y-57000000D03*
X99500000Y-82000000D03*
X58500000Y-67500000D03*
X51000000Y-74000000D03*
X64000000Y-127500000D03*
X73369700Y-126223100D03*
X77500000Y-81500000D03*
X81000000Y-137000000D03*
X88000000Y-105000000D03*
X78000000Y-77500000D03*
X59500000Y-101000000D03*
X82500000Y-53000000D03*
X52000000Y-43000000D03*
X73000000Y-124000000D03*
X58806990Y-96640618D03*
X61000000Y-115000000D03*
X76500000Y-52500000D03*
X53500000Y-124000000D03*
X87500000Y-47500000D03*
X80000000Y-89500000D03*
X72000000Y-63000000D03*
X54500000Y-74500000D03*
X74500000Y-78000000D03*
X99500000Y-86500000D03*
X106500000Y-76000000D03*
X86000000Y-56500000D03*
X65500000Y-87500000D03*
X54000000Y-116000000D03*
X102000000Y-144500000D03*
X74000000Y-81500000D03*
X82000000Y-115500000D03*
X91500000Y-110500000D03*
X96000000Y-67500000D03*
X89500000Y-119000000D03*
X104500000Y-79500000D03*
X67000000Y-89500000D03*
X71500000Y-70000000D03*
X56000000Y-78000000D03*
X68000000Y-97550000D03*
X94000000Y-72500000D03*
X100500000Y-67000000D03*
X59000000Y-55000000D03*
X67500000Y-74000000D03*
X95500000Y-99500000D03*
X50500000Y-109500000D03*
X65500000Y-91027000D03*
X53000000Y-103000000D03*
X106500000Y-115500000D03*
X73500000Y-114500000D03*
X62500000Y-81000000D03*
X79500000Y-45500000D03*
X72000000Y-84000000D03*
X99500000Y-75000000D03*
X117000000Y-138000000D03*
X74000000Y-120000000D03*
%TO.N,+5V*%
X85000000Y-135000000D03*
X75000000Y-136500000D03*
%TO.N,+3V3*%
X59000000Y-105500000D03*
X82500000Y-118000000D03*
X75950000Y-81500000D03*
X65198382Y-95801619D03*
X56500000Y-60825000D03*
X53000000Y-61000000D03*
X59500000Y-84000000D03*
X59000000Y-60825000D03*
X64054000Y-100975000D03*
X75500000Y-109000000D03*
X63000000Y-100000000D03*
X82500000Y-121500000D03*
X60275000Y-88500000D03*
X60500000Y-97500000D03*
X68961149Y-77461149D03*
X82500000Y-111000000D03*
X76000000Y-99000000D03*
X62500000Y-60825000D03*
%TO.N,/NRST*%
X62000000Y-78500000D03*
X66000000Y-61500000D03*
%TO.N,Net-(J1-DN1)*%
X78500000Y-116325000D03*
X76500000Y-132550000D03*
%TO.N,Net-(J1-DP1)*%
X76000000Y-116500000D03*
X79500000Y-121000000D03*
%TO.N,Net-(J1-CC2)*%
X83500000Y-144000000D03*
%TO.N,Net-(J1-CC1)*%
X85500000Y-138500000D03*
%TO.N,/LCD_CS*%
X64500000Y-95000000D03*
X63000000Y-98500000D03*
%TO.N,/CTP_INT*%
X67500000Y-83500000D03*
X70850000Y-99419051D03*
%TO.N,/CTP_RST*%
X69250000Y-98750000D03*
X66000000Y-83500000D03*
%TO.N,/CTP_SDA*%
X70250000Y-98750000D03*
X70973000Y-94073000D03*
%TO.N,/CTP_SCL*%
X69919000Y-94182621D03*
X68250000Y-98750000D03*
%TO.N,/SD_CS*%
X71400000Y-100000000D03*
X72000000Y-87500000D03*
%TO.N,/BOOT0*%
X87175000Y-71500000D03*
X85000000Y-72000000D03*
%TO.N,/BOOT1*%
X81500000Y-91500000D03*
X84500000Y-83000000D03*
%TO.N,/JTDO{slash}TRACESWO*%
X70500000Y-78500000D03*
X64000000Y-71500000D03*
%TO.N,/JTMS{slash}SWDIO*%
X63500000Y-77000000D03*
X77000000Y-84000000D03*
%TO.N,/JTCK{slash}SWCLK*%
X79000000Y-80600000D03*
X64500000Y-76000000D03*
%TO.N,/D+*%
X76000000Y-114850000D03*
X76300521Y-84963978D03*
%TO.N,/D-*%
X76575000Y-114000000D03*
X75699479Y-85565020D03*
%TO.N,/BTN6*%
X72527000Y-89500000D03*
X77000000Y-89500000D03*
%TO.N,/STAT2*%
X65000000Y-123500000D03*
X61500000Y-84500000D03*
%TO.N,/CHARGEENABLE*%
X64078063Y-83985703D03*
X55500000Y-129500000D03*
%TO.N,/STAT1*%
X78500000Y-122000000D03*
X60500000Y-84500000D03*
%TD*%
D22*
%TO.N,GND*%
X65500000Y-91000000D02*
X67000000Y-89500000D01*
X65500000Y-91027000D02*
X65500000Y-91000000D01*
D23*
%TO.N,+5V*%
X76000000Y-138500000D02*
X79500000Y-135000000D01*
X74875000Y-141140000D02*
X74875000Y-139652691D01*
X75000000Y-137500000D02*
X76000000Y-138500000D01*
X79125000Y-142490000D02*
X79125000Y-141140000D01*
X74875000Y-142490000D02*
X74875000Y-141140000D01*
X74875000Y-139652691D02*
X76013846Y-138513845D01*
X79500000Y-135000000D02*
X85000000Y-135000000D01*
X75000000Y-136500000D02*
X75000000Y-137500000D01*
%TO.N,+3V3*%
X76000000Y-99000000D02*
X76000000Y-108500000D01*
X71950000Y-77500000D02*
X75950000Y-81500000D01*
X56500000Y-60825000D02*
X59000000Y-60825000D01*
X82500000Y-121500000D02*
X82500000Y-118000000D01*
X78698866Y-81327000D02*
X79301134Y-81327000D01*
X63000000Y-101500000D02*
X63000000Y-100000000D01*
X68961149Y-77461149D02*
X69000000Y-77500000D01*
X79301134Y-81327000D02*
X81975000Y-78653134D01*
X59500000Y-87725000D02*
X60275000Y-88500000D01*
X76827355Y-79172645D02*
X76827355Y-79455489D01*
X73000000Y-77500000D02*
X73227000Y-77273000D01*
X69000000Y-77500000D02*
X71950000Y-77500000D01*
X82500000Y-112000000D02*
X82727000Y-112227000D01*
X63000000Y-100000000D02*
X60500000Y-97500000D01*
X59500000Y-84000000D02*
X59500000Y-87725000D01*
X59000000Y-105500000D02*
X63000000Y-101500000D01*
X53000000Y-61000000D02*
X56325000Y-61000000D01*
X73227000Y-77273000D02*
X74927710Y-77273000D01*
X65198382Y-99830618D02*
X64054000Y-100975000D01*
X82727000Y-117773000D02*
X82500000Y-118000000D01*
X81975000Y-77250000D02*
X81975000Y-74710000D01*
X59000000Y-60825000D02*
X62500000Y-60825000D01*
X74927710Y-77273000D02*
X76827355Y-79172645D01*
X56325000Y-61000000D02*
X56500000Y-60825000D01*
X76000000Y-108500000D02*
X75500000Y-109000000D01*
X71950000Y-77500000D02*
X73000000Y-77500000D01*
X65198382Y-95801619D02*
X65198382Y-99830618D01*
X82500000Y-111000000D02*
X82500000Y-112000000D01*
X81975000Y-78653134D02*
X81975000Y-77250000D01*
X76827355Y-79455489D02*
X78698866Y-81327000D01*
X82727000Y-112227000D02*
X82727000Y-117773000D01*
D24*
%TO.N,/NRST*%
X62000000Y-78500000D02*
X62000000Y-65500000D01*
X62000000Y-65500000D02*
X66000000Y-61500000D01*
%TO.N,Net-(J1-DN1)*%
X76575000Y-142490000D02*
X76575000Y-142030955D01*
X77425000Y-141180955D02*
X77425000Y-141140000D01*
X80027000Y-129023000D02*
X80027000Y-117852000D01*
X76500000Y-132550000D02*
X80027000Y-129023000D01*
X76575000Y-142030955D02*
X77425000Y-141180955D01*
X80027000Y-117852000D02*
X78500000Y-116325000D01*
%TO.N,Net-(J1-DP1)*%
X79500000Y-121000000D02*
X76000000Y-117500000D01*
X76000000Y-117500000D02*
X76000000Y-116500000D01*
D22*
%TO.N,Net-(J1-CC2)*%
X78275000Y-142490000D02*
X78275000Y-142949619D01*
X78275000Y-142949619D02*
X79325381Y-144000000D01*
X79325381Y-144000000D02*
X83500000Y-144000000D01*
%TO.N,Net-(J1-CC1)*%
X75725000Y-141140000D02*
X75725000Y-140275000D01*
X77500000Y-138500000D02*
X85500000Y-138500000D01*
X75725000Y-140275000D02*
X77500000Y-138500000D01*
D24*
%TO.N,/LCD_CS*%
X63000000Y-98500000D02*
X63000000Y-96500000D01*
X63000000Y-96500000D02*
X64500000Y-95000000D01*
%TO.N,/CTP_INT*%
X70850000Y-99419051D02*
X71500000Y-98769051D01*
X71473000Y-87473000D02*
X67500000Y-83500000D01*
X71500000Y-98769051D02*
X71500000Y-87745291D01*
X71500000Y-87745291D02*
X71473000Y-87718291D01*
X71473000Y-87718291D02*
X71473000Y-87473000D01*
%TO.N,/CTP_RST*%
X70500000Y-93800709D02*
X70500000Y-88000000D01*
X70500000Y-94345291D02*
X70446000Y-94291291D01*
X70446000Y-93854709D02*
X70500000Y-93800709D01*
X70500000Y-97500000D02*
X70500000Y-94345291D01*
X70446000Y-94291291D02*
X70446000Y-93854709D01*
X69250000Y-98750000D02*
X70500000Y-97500000D01*
X70500000Y-88000000D02*
X66000000Y-83500000D01*
%TO.N,/CTP_SDA*%
X70973000Y-94073000D02*
X70973000Y-98027000D01*
X70973000Y-98027000D02*
X70250000Y-98750000D01*
%TO.N,/CTP_SCL*%
X69500000Y-97500000D02*
X68250000Y-98750000D01*
X69500000Y-94601621D02*
X69500000Y-97500000D01*
X69919000Y-94182621D02*
X69500000Y-94601621D01*
%TO.N,/SD_CS*%
X72000000Y-99400000D02*
X72000000Y-87500000D01*
X71400000Y-100000000D02*
X72000000Y-99400000D01*
%TO.N,/BOOT0*%
X85000000Y-72000000D02*
X86675000Y-72000000D01*
X86675000Y-72000000D02*
X87175000Y-71500000D01*
%TO.N,/BOOT1*%
X81500000Y-91500000D02*
X81500000Y-86000000D01*
X81500000Y-86000000D02*
X84500000Y-83000000D01*
%TO.N,/JTDO{slash}TRACESWO*%
X63900000Y-76248529D02*
X66151471Y-78500000D01*
X64000000Y-71500000D02*
X63900000Y-71600000D01*
X63900000Y-71600000D02*
X63900000Y-76248529D01*
X66151471Y-78500000D02*
X70500000Y-78500000D01*
%TO.N,/JTMS{slash}SWDIO*%
X76500000Y-82500000D02*
X77000000Y-83000000D01*
X77000000Y-83000000D02*
X77000000Y-84000000D01*
X63500000Y-77000000D02*
X69000000Y-82500000D01*
X69000000Y-82500000D02*
X76500000Y-82500000D01*
%TO.N,/JTCK{slash}SWCLK*%
X64500000Y-76000000D02*
X65000000Y-75500000D01*
X73900000Y-75500000D02*
X79000000Y-80600000D01*
X65000000Y-75500000D02*
X73900000Y-75500000D01*
%TO.N,/D+*%
X76300521Y-84963978D02*
X76300521Y-85246821D01*
X77225001Y-114095290D02*
X76470291Y-114850000D01*
X77976980Y-86923280D02*
X77976980Y-89904679D01*
X76300521Y-85246821D02*
X77976980Y-86923280D01*
X77225001Y-90656658D02*
X77225001Y-114095290D01*
X76470291Y-114850000D02*
X76000000Y-114850000D01*
X77976980Y-89904679D02*
X77225001Y-90656658D01*
%TO.N,/D-*%
X77527000Y-89718291D02*
X76774999Y-90470292D01*
X75699479Y-85565020D02*
X75982322Y-85565020D01*
X75982322Y-85565020D02*
X77527000Y-87109698D01*
X76774999Y-90470292D02*
X76774999Y-113800001D01*
X77527000Y-87109698D02*
X77527000Y-89718291D01*
X76774999Y-113800001D02*
X76575000Y-114000000D01*
%TO.N,/BTN6*%
X77000000Y-89500000D02*
X72527000Y-89500000D01*
%TO.N,/STAT2*%
X58973000Y-95227710D02*
X58973000Y-83781709D01*
X59281709Y-83473000D02*
X60473000Y-83473000D01*
X63527000Y-99781710D02*
X58973000Y-95227710D01*
X63527000Y-110772290D02*
X63527000Y-99781710D01*
X60473000Y-83473000D02*
X61500000Y-84500000D01*
X65000000Y-112245290D02*
X63527000Y-110772290D01*
X65000000Y-123500000D02*
X65000000Y-112245290D01*
X58973000Y-83781709D02*
X59281709Y-83473000D01*
%TO.N,/CHARGEENABLE*%
X59146261Y-83146000D02*
X63238360Y-83146000D01*
X55500000Y-98509158D02*
X58646000Y-95363158D01*
X58646000Y-95363158D02*
X58646000Y-83646261D01*
X58646000Y-83646261D02*
X59146261Y-83146000D01*
X55500000Y-129500000D02*
X55500000Y-98509158D01*
X63238360Y-83146000D02*
X64078063Y-83985703D01*
%TO.N,/STAT1*%
X69000000Y-97500000D02*
X69000000Y-90636146D01*
X68031709Y-98223000D02*
X68277000Y-98223000D01*
X65027000Y-108527000D02*
X65027000Y-101227709D01*
X66390854Y-88027000D02*
X64027000Y-88027000D01*
X69000000Y-90636146D02*
X66390854Y-88027000D01*
X64027000Y-88027000D02*
X60500000Y-84500000D01*
X65027000Y-101227709D02*
X68031709Y-98223000D01*
X78500000Y-122000000D02*
X65027000Y-108527000D01*
X68277000Y-98223000D02*
X69000000Y-97500000D01*
%TD*%
%TA.AperFunction,Conductor*%
%TO.N,GND*%
G36*
X76210570Y-89747185D02*
G01*
X76256325Y-89799989D01*
X76260573Y-89810546D01*
X76274211Y-89849523D01*
X76337303Y-89949932D01*
X76370184Y-90002262D01*
X76497738Y-90129816D01*
X76548779Y-90161887D01*
X76595070Y-90214222D01*
X76605718Y-90283275D01*
X76585915Y-90335763D01*
X76582137Y-90341417D01*
X76547499Y-90425038D01*
X76547499Y-98174246D01*
X76527814Y-98241285D01*
X76475010Y-98287040D01*
X76405852Y-98296984D01*
X76357530Y-98279242D01*
X76349523Y-98274211D01*
X76179254Y-98214631D01*
X76179249Y-98214630D01*
X76000004Y-98194435D01*
X75999996Y-98194435D01*
X75820750Y-98214630D01*
X75820745Y-98214631D01*
X75650476Y-98274211D01*
X75497737Y-98370184D01*
X75370184Y-98497737D01*
X75274211Y-98650476D01*
X75214631Y-98820745D01*
X75214630Y-98820750D01*
X75194435Y-98999996D01*
X75194435Y-99000003D01*
X75214630Y-99179249D01*
X75214631Y-99179254D01*
X75274211Y-99349523D01*
X75334363Y-99445253D01*
X75370184Y-99502262D01*
X75497738Y-99629816D01*
X75514473Y-99640331D01*
X75560762Y-99692663D01*
X75572500Y-99745324D01*
X75572500Y-108075452D01*
X75552815Y-108142491D01*
X75500011Y-108188246D01*
X75462384Y-108198672D01*
X75320749Y-108214630D01*
X75320745Y-108214631D01*
X75150476Y-108274211D01*
X74997737Y-108370184D01*
X74870184Y-108497737D01*
X74774211Y-108650476D01*
X74714631Y-108820745D01*
X74714630Y-108820750D01*
X74694435Y-108999996D01*
X74694435Y-109000003D01*
X74714630Y-109179249D01*
X74714631Y-109179254D01*
X74774211Y-109349523D01*
X74790692Y-109375752D01*
X74870184Y-109502262D01*
X74997738Y-109629816D01*
X75150478Y-109725789D01*
X75320745Y-109785368D01*
X75320750Y-109785369D01*
X75499996Y-109805565D01*
X75500000Y-109805565D01*
X75500004Y-109805565D01*
X75679249Y-109785369D01*
X75679252Y-109785368D01*
X75679255Y-109785368D01*
X75849522Y-109725789D01*
X76002262Y-109629816D01*
X76129816Y-109502262D01*
X76225789Y-109349522D01*
X76285368Y-109179255D01*
X76289760Y-109140278D01*
X76300279Y-109046919D01*
X76327345Y-108982505D01*
X76384940Y-108942950D01*
X76454777Y-108940812D01*
X76514683Y-108976770D01*
X76545639Y-109039408D01*
X76547499Y-109060802D01*
X76547499Y-113086719D01*
X76527814Y-113153758D01*
X76475010Y-113199513D01*
X76437385Y-113209939D01*
X76395750Y-113214630D01*
X76225478Y-113274210D01*
X76072737Y-113370184D01*
X75945184Y-113497737D01*
X75849211Y-113650476D01*
X75789631Y-113820745D01*
X75789630Y-113820750D01*
X75768655Y-114006919D01*
X75765909Y-114006609D01*
X75749750Y-114061642D01*
X75696946Y-114107397D01*
X75686392Y-114111644D01*
X75650474Y-114124212D01*
X75497737Y-114220184D01*
X75370184Y-114347737D01*
X75274211Y-114500476D01*
X75214631Y-114670745D01*
X75214630Y-114670750D01*
X75194435Y-114849996D01*
X75194435Y-114850003D01*
X75214630Y-115029249D01*
X75214631Y-115029254D01*
X75274211Y-115199523D01*
X75370184Y-115352262D01*
X75497738Y-115479816D01*
X75560791Y-115519435D01*
X75641274Y-115570006D01*
X75687565Y-115622341D01*
X75698213Y-115691395D01*
X75669838Y-115755243D01*
X75641274Y-115779994D01*
X75497737Y-115870184D01*
X75370184Y-115997737D01*
X75274211Y-116150476D01*
X75214631Y-116320745D01*
X75214630Y-116320750D01*
X75194435Y-116499996D01*
X75194435Y-116500003D01*
X75214630Y-116679249D01*
X75214631Y-116679254D01*
X75274211Y-116849523D01*
X75370184Y-117002262D01*
X75497738Y-117129816D01*
X75650478Y-117225789D01*
X75689454Y-117239427D01*
X75746230Y-117280149D01*
X75771978Y-117345101D01*
X75772500Y-117356469D01*
X75772500Y-117454747D01*
X75772500Y-117545253D01*
X75781619Y-117567269D01*
X75807136Y-117628870D01*
X78733252Y-120554985D01*
X78766737Y-120616308D01*
X78762613Y-120683620D01*
X78714632Y-120820742D01*
X78714630Y-120820750D01*
X78694435Y-120999996D01*
X78694435Y-121000004D01*
X78701714Y-121064611D01*
X78689659Y-121133433D01*
X78642310Y-121184812D01*
X78574699Y-121202436D01*
X78564611Y-121201714D01*
X78500004Y-121194435D01*
X78499996Y-121194435D01*
X78320750Y-121214630D01*
X78320742Y-121214632D01*
X78183620Y-121262613D01*
X78113841Y-121266174D01*
X78054985Y-121233252D01*
X65290819Y-108469086D01*
X65257334Y-108407763D01*
X65254500Y-108381405D01*
X65254500Y-101373303D01*
X65274185Y-101306264D01*
X65290814Y-101285627D01*
X67396015Y-99180425D01*
X67457336Y-99146942D01*
X67527028Y-99151926D01*
X67582961Y-99193798D01*
X67588684Y-99202131D01*
X67620184Y-99252262D01*
X67747738Y-99379816D01*
X67815973Y-99422691D01*
X67900474Y-99475787D01*
X67900478Y-99475789D01*
X67983801Y-99504945D01*
X68070745Y-99535368D01*
X68070750Y-99535369D01*
X68249996Y-99555565D01*
X68250000Y-99555565D01*
X68250004Y-99555565D01*
X68429249Y-99535369D01*
X68429252Y-99535368D01*
X68429255Y-99535368D01*
X68599522Y-99475789D01*
X68599526Y-99475787D01*
X68684027Y-99422691D01*
X68751264Y-99403690D01*
X68815973Y-99422691D01*
X68900475Y-99475788D01*
X69070745Y-99535368D01*
X69070750Y-99535369D01*
X69249996Y-99555565D01*
X69250000Y-99555565D01*
X69250004Y-99555565D01*
X69429249Y-99535369D01*
X69429252Y-99535368D01*
X69429255Y-99535368D01*
X69599522Y-99475789D01*
X69599526Y-99475787D01*
X69684027Y-99422691D01*
X69751264Y-99403690D01*
X69815973Y-99422691D01*
X69900478Y-99475789D01*
X69971307Y-99500572D01*
X69983802Y-99504945D01*
X70040578Y-99545667D01*
X70063738Y-99594388D01*
X70064631Y-99598302D01*
X70064632Y-99598306D01*
X70094485Y-99683622D01*
X70124210Y-99768572D01*
X70193410Y-99878702D01*
X70220184Y-99921313D01*
X70347738Y-100048867D01*
X70358360Y-100055541D01*
X70486827Y-100136263D01*
X70500478Y-100144840D01*
X70560471Y-100165832D01*
X70617247Y-100206554D01*
X70636558Y-100241918D01*
X70674211Y-100349523D01*
X70674212Y-100349524D01*
X70770184Y-100502262D01*
X70897738Y-100629816D01*
X71050478Y-100725789D01*
X71106306Y-100745324D01*
X71220745Y-100785368D01*
X71220750Y-100785369D01*
X71399996Y-100805565D01*
X71400000Y-100805565D01*
X71400004Y-100805565D01*
X71579249Y-100785369D01*
X71579252Y-100785368D01*
X71579255Y-100785368D01*
X71749522Y-100725789D01*
X71902262Y-100629816D01*
X72029816Y-100502262D01*
X72125789Y-100349522D01*
X72185368Y-100179255D01*
X72185369Y-100179249D01*
X72205565Y-100000003D01*
X72205565Y-99999996D01*
X72185369Y-99820750D01*
X72185366Y-99820737D01*
X72137387Y-99683622D01*
X72133825Y-99613843D01*
X72166747Y-99554985D01*
X72192865Y-99528868D01*
X72227500Y-99445253D01*
X72227500Y-90410576D01*
X72247185Y-90343537D01*
X72299989Y-90297782D01*
X72365383Y-90287356D01*
X72526996Y-90305565D01*
X72527000Y-90305565D01*
X72527004Y-90305565D01*
X72706249Y-90285369D01*
X72706252Y-90285368D01*
X72706255Y-90285368D01*
X72876522Y-90225789D01*
X73029262Y-90129816D01*
X73156816Y-90002262D01*
X73252789Y-89849522D01*
X73266427Y-89810545D01*
X73307149Y-89753770D01*
X73372101Y-89728022D01*
X73383469Y-89727500D01*
X76143531Y-89727500D01*
X76210570Y-89747185D01*
G37*
%TD.AperFunction*%
%TA.AperFunction,Conductor*%
G36*
X60117472Y-85205051D02*
G01*
X60150473Y-85225787D01*
X60150477Y-85225788D01*
X60150478Y-85225789D01*
X60320742Y-85285367D01*
X60320745Y-85285368D01*
X60320750Y-85285369D01*
X60499996Y-85305565D01*
X60500000Y-85305565D01*
X60500004Y-85305565D01*
X60679249Y-85285369D01*
X60679252Y-85285368D01*
X60679255Y-85285368D01*
X60679256Y-85285367D01*
X60679259Y-85285367D01*
X60711749Y-85273997D01*
X60816380Y-85237385D01*
X60886155Y-85233823D01*
X60945013Y-85266746D01*
X63834135Y-88155868D01*
X63898132Y-88219865D01*
X63981747Y-88254500D01*
X66245259Y-88254500D01*
X66312298Y-88274185D01*
X66332940Y-88290819D01*
X68736181Y-90694060D01*
X68769666Y-90755383D01*
X68772500Y-90781741D01*
X68772500Y-97354404D01*
X68752815Y-97421443D01*
X68736181Y-97442085D01*
X68262460Y-97915806D01*
X68201137Y-97949291D01*
X68188663Y-97951345D01*
X68070750Y-97964630D01*
X67900478Y-98024210D01*
X67747737Y-98120184D01*
X67620184Y-98247737D01*
X67520507Y-98406373D01*
X67519705Y-98405869D01*
X67501615Y-98431359D01*
X65796711Y-100136263D01*
X65735388Y-100169748D01*
X65665696Y-100164764D01*
X65609763Y-100122892D01*
X65585346Y-100057428D01*
X65594471Y-100001124D01*
X65596744Y-99995634D01*
X65596749Y-99995627D01*
X65625882Y-99886899D01*
X65625882Y-99774336D01*
X65625882Y-96546943D01*
X65645567Y-96479904D01*
X65683908Y-96441950D01*
X65700644Y-96431435D01*
X65828198Y-96303881D01*
X65924171Y-96151141D01*
X65983750Y-95980874D01*
X65994172Y-95888379D01*
X66003947Y-95801622D01*
X66003947Y-95801615D01*
X65983751Y-95622369D01*
X65983750Y-95622364D01*
X65945428Y-95512847D01*
X65924171Y-95452097D01*
X65828198Y-95299357D01*
X65700644Y-95171803D01*
X65639647Y-95133476D01*
X65547903Y-95075829D01*
X65468212Y-95047944D01*
X65378052Y-95016396D01*
X65321279Y-94975676D01*
X65295789Y-94913238D01*
X65294963Y-94905910D01*
X65287705Y-94841486D01*
X65285369Y-94820750D01*
X65285368Y-94820745D01*
X65283810Y-94816292D01*
X65225789Y-94650478D01*
X65129816Y-94497738D01*
X65002262Y-94370184D01*
X64849523Y-94274211D01*
X64679254Y-94214631D01*
X64679249Y-94214630D01*
X64500004Y-94194435D01*
X64499996Y-94194435D01*
X64320750Y-94214630D01*
X64320745Y-94214631D01*
X64150476Y-94274211D01*
X63997737Y-94370184D01*
X63870184Y-94497737D01*
X63774211Y-94650476D01*
X63714631Y-94820745D01*
X63714630Y-94820750D01*
X63694435Y-94999996D01*
X63694435Y-95000003D01*
X63714630Y-95179249D01*
X63714631Y-95179254D01*
X63762613Y-95316377D01*
X63766174Y-95386156D01*
X63733252Y-95445013D01*
X63027126Y-96151141D01*
X62871132Y-96307135D01*
X62807135Y-96371132D01*
X62804964Y-96376374D01*
X62772500Y-96454746D01*
X62772500Y-97643531D01*
X62752815Y-97710570D01*
X62700011Y-97756325D01*
X62689455Y-97760572D01*
X62650479Y-97774210D01*
X62650475Y-97774212D01*
X62497737Y-97870184D01*
X62370184Y-97997737D01*
X62370182Y-97997740D01*
X62335053Y-98053647D01*
X62282718Y-98099938D01*
X62213664Y-98110585D01*
X62149816Y-98082209D01*
X62142379Y-98075355D01*
X61248386Y-97181363D01*
X61230300Y-97155869D01*
X61229495Y-97156376D01*
X61129815Y-96997737D01*
X61002262Y-96870184D01*
X60843626Y-96770506D01*
X60844130Y-96769702D01*
X60818636Y-96751613D01*
X59236819Y-95169795D01*
X59203334Y-95108472D01*
X59200500Y-95082114D01*
X59200500Y-88329438D01*
X59220185Y-88262399D01*
X59272989Y-88216644D01*
X59342147Y-88206700D01*
X59405703Y-88235725D01*
X59412181Y-88241757D01*
X59447562Y-88277138D01*
X59481047Y-88338461D01*
X59483101Y-88378702D01*
X59469435Y-88499996D01*
X59469435Y-88500003D01*
X59489630Y-88679249D01*
X59489631Y-88679254D01*
X59549211Y-88849523D01*
X59599780Y-88930002D01*
X59645184Y-89002262D01*
X59772738Y-89129816D01*
X59863080Y-89186582D01*
X59884452Y-89200011D01*
X59925478Y-89225789D01*
X60095745Y-89285368D01*
X60095750Y-89285369D01*
X60274996Y-89305565D01*
X60275000Y-89305565D01*
X60275004Y-89305565D01*
X60454249Y-89285369D01*
X60454252Y-89285368D01*
X60454255Y-89285368D01*
X60624522Y-89225789D01*
X60777262Y-89129816D01*
X60904816Y-89002262D01*
X61000789Y-88849522D01*
X61060368Y-88679255D01*
X61063299Y-88653240D01*
X61080565Y-88500003D01*
X61080565Y-88499996D01*
X61060369Y-88320750D01*
X61060368Y-88320745D01*
X61059969Y-88319606D01*
X61000789Y-88150478D01*
X60983599Y-88123121D01*
X60925135Y-88030076D01*
X60904816Y-87997738D01*
X60777262Y-87870184D01*
X60744379Y-87849522D01*
X60624523Y-87774211D01*
X60454254Y-87714631D01*
X60454249Y-87714630D01*
X60275004Y-87694435D01*
X60274996Y-87694435D01*
X60153702Y-87708101D01*
X60084880Y-87696046D01*
X60052138Y-87672562D01*
X59963819Y-87584243D01*
X59930334Y-87522920D01*
X59927500Y-87496562D01*
X59927500Y-85310044D01*
X59947185Y-85243005D01*
X59999989Y-85197250D01*
X60069147Y-85187306D01*
X60117472Y-85205051D01*
G37*
%TD.AperFunction*%
%TA.AperFunction,Conductor*%
G36*
X64452392Y-77130800D02*
G01*
X64482877Y-77153139D01*
X65257237Y-77927500D01*
X66022603Y-78692866D01*
X66022605Y-78692868D01*
X66087272Y-78719652D01*
X66106218Y-78727500D01*
X69643531Y-78727500D01*
X69710570Y-78747185D01*
X69756325Y-78799989D01*
X69760571Y-78810542D01*
X69765243Y-78823893D01*
X69774211Y-78849523D01*
X69870184Y-79002262D01*
X69997738Y-79129816D01*
X70150478Y-79225789D01*
X70300866Y-79278412D01*
X70320745Y-79285368D01*
X70320750Y-79285369D01*
X70499996Y-79305565D01*
X70500000Y-79305565D01*
X70500004Y-79305565D01*
X70679249Y-79285369D01*
X70679252Y-79285368D01*
X70679255Y-79285368D01*
X70849522Y-79225789D01*
X71002262Y-79129816D01*
X71129816Y-79002262D01*
X71225789Y-78849522D01*
X71285368Y-78679255D01*
X71291415Y-78625590D01*
X71305565Y-78500003D01*
X71305565Y-78499996D01*
X71285369Y-78320750D01*
X71285368Y-78320745D01*
X71274083Y-78288495D01*
X71225789Y-78150478D01*
X71225788Y-78150476D01*
X71225787Y-78150473D01*
X71205051Y-78117472D01*
X71186050Y-78050236D01*
X71206417Y-77983401D01*
X71259685Y-77938186D01*
X71310044Y-77927500D01*
X71721562Y-77927500D01*
X71788601Y-77947185D01*
X71809243Y-77963819D01*
X75122562Y-81277139D01*
X75156047Y-81338462D01*
X75158101Y-81378703D01*
X75144435Y-81499996D01*
X75144435Y-81500003D01*
X75164630Y-81679249D01*
X75164631Y-81679254D01*
X75224211Y-81849523D01*
X75320184Y-82002262D01*
X75378741Y-82060819D01*
X75412226Y-82122142D01*
X75407242Y-82191834D01*
X75365370Y-82247767D01*
X75299906Y-82272184D01*
X75291060Y-82272500D01*
X69145596Y-82272500D01*
X69078557Y-82252815D01*
X69057915Y-82236181D01*
X66684347Y-79862613D01*
X64266745Y-77445012D01*
X64233261Y-77383690D01*
X64237385Y-77316380D01*
X64278156Y-77199864D01*
X64318878Y-77143090D01*
X64383831Y-77117343D01*
X64452392Y-77130800D01*
G37*
%TD.AperFunction*%
%TA.AperFunction,Conductor*%
G36*
X73821444Y-75747185D02*
G01*
X73842086Y-75763819D01*
X74712086Y-76633819D01*
X74745571Y-76695142D01*
X74740587Y-76764834D01*
X74698715Y-76820767D01*
X74633251Y-76845184D01*
X74624405Y-76845500D01*
X73170719Y-76845500D01*
X73061989Y-76874633D01*
X72964509Y-76930915D01*
X72964506Y-76930917D01*
X72859243Y-77036181D01*
X72797920Y-77069666D01*
X72771562Y-77072500D01*
X69730885Y-77072500D01*
X69663846Y-77052815D01*
X69625891Y-77014472D01*
X69616795Y-76999996D01*
X69590965Y-76958887D01*
X69463411Y-76831333D01*
X69446560Y-76820745D01*
X69310672Y-76735360D01*
X69140403Y-76675780D01*
X69140398Y-76675779D01*
X68961153Y-76655584D01*
X68961145Y-76655584D01*
X68781899Y-76675779D01*
X68781894Y-76675780D01*
X68611625Y-76735360D01*
X68458886Y-76831333D01*
X68331333Y-76958886D01*
X68235360Y-77111625D01*
X68175780Y-77281894D01*
X68175779Y-77281899D01*
X68155584Y-77461145D01*
X68155584Y-77461152D01*
X68175779Y-77640398D01*
X68175780Y-77640403D01*
X68235360Y-77810672D01*
X68331333Y-77963411D01*
X68428741Y-78060819D01*
X68462226Y-78122142D01*
X68457242Y-78191834D01*
X68415370Y-78247767D01*
X68349906Y-78272184D01*
X68341060Y-78272500D01*
X66297067Y-78272500D01*
X66230028Y-78252815D01*
X66209386Y-78236181D01*
X64867028Y-76893823D01*
X64833543Y-76832500D01*
X64838527Y-76762808D01*
X64880399Y-76706875D01*
X64888727Y-76701154D01*
X65002262Y-76629816D01*
X65129816Y-76502262D01*
X65225789Y-76349522D01*
X65285368Y-76179255D01*
X65287521Y-76160145D01*
X65305565Y-76000003D01*
X65305565Y-75999996D01*
X65290398Y-75865383D01*
X65302453Y-75796561D01*
X65349802Y-75745182D01*
X65413618Y-75727500D01*
X73754405Y-75727500D01*
X73821444Y-75747185D01*
G37*
%TD.AperFunction*%
%TA.AperFunction,Conductor*%
G36*
X87305000Y-76816988D02*
G01*
X87247993Y-76784075D01*
X87120826Y-76750000D01*
X86989174Y-76750000D01*
X86862007Y-76784075D01*
X86805000Y-76816988D01*
X86805000Y-75143012D01*
X86862007Y-75175925D01*
X86989174Y-75210000D01*
X87120826Y-75210000D01*
X87247993Y-75175925D01*
X87305000Y-75143012D01*
X87305000Y-76816988D01*
G37*
%TD.AperFunction*%
%TA.AperFunction,Conductor*%
G36*
X55194855Y-50626546D02*
G01*
X55211575Y-50645842D01*
X55341500Y-50831395D01*
X55341505Y-50831401D01*
X55508599Y-50998495D01*
X55694158Y-51128425D01*
X55694594Y-51128730D01*
X55738218Y-51183307D01*
X55745411Y-51252806D01*
X55713889Y-51315160D01*
X55694593Y-51331880D01*
X55618626Y-51385072D01*
X55618625Y-51385072D01*
X56250590Y-52017037D01*
X56187007Y-52034075D01*
X56072993Y-52099901D01*
X55979901Y-52192993D01*
X55914075Y-52307007D01*
X55897037Y-52370590D01*
X55260655Y-51734208D01*
X55208806Y-51723788D01*
X55158623Y-51675173D01*
X55148793Y-51653031D01*
X55140697Y-51628599D01*
X55124814Y-51580666D01*
X55032712Y-51431344D01*
X54908656Y-51307288D01*
X54789679Y-51233903D01*
X54759336Y-51215187D01*
X54759331Y-51215185D01*
X54759215Y-51215146D01*
X54750733Y-51212336D01*
X54693290Y-51172564D01*
X54666467Y-51108048D01*
X54678782Y-51039272D01*
X54707767Y-51002517D01*
X54707573Y-51002323D01*
X54709219Y-51000676D01*
X54710040Y-50999636D01*
X54711388Y-50998504D01*
X54711401Y-50998495D01*
X54878495Y-50831401D01*
X55008425Y-50645842D01*
X55063002Y-50602217D01*
X55132500Y-50595023D01*
X55194855Y-50626546D01*
G37*
%TD.AperFunction*%
%TA.AperFunction,Conductor*%
G36*
X57734855Y-50626546D02*
G01*
X57751575Y-50645842D01*
X57881500Y-50831395D01*
X57881505Y-50831401D01*
X58048599Y-50998495D01*
X58234158Y-51128425D01*
X58234594Y-51128730D01*
X58278218Y-51183307D01*
X58285411Y-51252806D01*
X58253889Y-51315160D01*
X58234593Y-51331880D01*
X58158626Y-51385072D01*
X58158625Y-51385072D01*
X58790590Y-52017037D01*
X58727007Y-52034075D01*
X58612993Y-52099901D01*
X58519901Y-52192993D01*
X58454075Y-52307007D01*
X58437037Y-52370590D01*
X57805072Y-51738625D01*
X57805072Y-51738626D01*
X57751574Y-51815030D01*
X57696998Y-51858655D01*
X57627499Y-51865849D01*
X57565144Y-51834326D01*
X57548424Y-51815030D01*
X57494925Y-51738626D01*
X57494925Y-51738625D01*
X56862962Y-52370589D01*
X56845925Y-52307007D01*
X56780099Y-52192993D01*
X56687007Y-52099901D01*
X56572993Y-52034075D01*
X56509410Y-52017037D01*
X57141373Y-51385073D01*
X57141373Y-51385072D01*
X57065405Y-51331880D01*
X57021780Y-51277304D01*
X57014586Y-51207805D01*
X57046108Y-51145451D01*
X57065399Y-51128734D01*
X57251401Y-50998495D01*
X57418495Y-50831401D01*
X57548425Y-50645842D01*
X57603002Y-50602217D01*
X57672500Y-50595023D01*
X57734855Y-50626546D01*
G37*
%TD.AperFunction*%
%TA.AperFunction,Conductor*%
G36*
X62814855Y-50626546D02*
G01*
X62831575Y-50645842D01*
X62961500Y-50831395D01*
X62961505Y-50831401D01*
X63128599Y-50998495D01*
X63314158Y-51128425D01*
X63314594Y-51128730D01*
X63358218Y-51183307D01*
X63365411Y-51252806D01*
X63333889Y-51315160D01*
X63314593Y-51331880D01*
X63238626Y-51385072D01*
X63238625Y-51385072D01*
X63870590Y-52017037D01*
X63807007Y-52034075D01*
X63692993Y-52099901D01*
X63599901Y-52192993D01*
X63534075Y-52307007D01*
X63517037Y-52370590D01*
X62885073Y-51738626D01*
X62831881Y-51814594D01*
X62777304Y-51858219D01*
X62707806Y-51865413D01*
X62645451Y-51833891D01*
X62628730Y-51814594D01*
X62498494Y-51628597D01*
X62331402Y-51461506D01*
X62331396Y-51461501D01*
X62145842Y-51331575D01*
X62102217Y-51276998D01*
X62095023Y-51207500D01*
X62126546Y-51145145D01*
X62145842Y-51128425D01*
X62273165Y-51039272D01*
X62331401Y-50998495D01*
X62498495Y-50831401D01*
X62628425Y-50645842D01*
X62683002Y-50602217D01*
X62752500Y-50595023D01*
X62814855Y-50626546D01*
G37*
%TD.AperFunction*%
%TA.AperFunction,Conductor*%
G36*
X60274855Y-50626546D02*
G01*
X60291575Y-50645842D01*
X60421501Y-50831396D01*
X60421506Y-50831402D01*
X60588597Y-50998493D01*
X60588603Y-50998498D01*
X60774158Y-51128425D01*
X60817783Y-51183002D01*
X60824977Y-51252500D01*
X60793454Y-51314855D01*
X60774158Y-51331575D01*
X60588597Y-51461505D01*
X60421505Y-51628597D01*
X60291269Y-51814595D01*
X60236692Y-51858220D01*
X60167194Y-51865414D01*
X60104839Y-51833891D01*
X60088119Y-51814595D01*
X60034925Y-51738626D01*
X60034925Y-51738625D01*
X59402962Y-52370589D01*
X59385925Y-52307007D01*
X59320099Y-52192993D01*
X59227007Y-52099901D01*
X59112993Y-52034075D01*
X59049410Y-52017037D01*
X59681373Y-51385073D01*
X59681373Y-51385072D01*
X59605405Y-51331880D01*
X59561780Y-51277304D01*
X59554586Y-51207805D01*
X59586108Y-51145451D01*
X59605399Y-51128734D01*
X59791401Y-50998495D01*
X59958495Y-50831401D01*
X60088425Y-50645842D01*
X60143002Y-50602217D01*
X60212500Y-50595023D01*
X60274855Y-50626546D01*
G37*
%TD.AperFunction*%
%TA.AperFunction,Conductor*%
G36*
X118443039Y-38019685D02*
G01*
X118488794Y-38072489D01*
X118500000Y-38124000D01*
X118500000Y-147376000D01*
X118480315Y-147443039D01*
X118427511Y-147488794D01*
X118376000Y-147500000D01*
X46624000Y-147500000D01*
X46556961Y-147480315D01*
X46511206Y-147427511D01*
X46500000Y-147376000D01*
X46500000Y-143749994D01*
X47244357Y-143749994D01*
X47244357Y-143750005D01*
X47264890Y-143997812D01*
X47264892Y-143997824D01*
X47325936Y-144238881D01*
X47425826Y-144466606D01*
X47561833Y-144674782D01*
X47561836Y-144674785D01*
X47730256Y-144857738D01*
X47926491Y-145010474D01*
X48145190Y-145128828D01*
X48380386Y-145209571D01*
X48625665Y-145250500D01*
X48874335Y-145250500D01*
X49119614Y-145209571D01*
X49354810Y-145128828D01*
X49573509Y-145010474D01*
X49769744Y-144857738D01*
X49938164Y-144674785D01*
X50074173Y-144466607D01*
X50174063Y-144238881D01*
X50235108Y-143997821D01*
X50235109Y-143997812D01*
X50255643Y-143750005D01*
X50255643Y-143749994D01*
X53744357Y-143749994D01*
X53744357Y-143750005D01*
X53764890Y-143997812D01*
X53764892Y-143997824D01*
X53825936Y-144238881D01*
X53925826Y-144466606D01*
X54061833Y-144674782D01*
X54061836Y-144674785D01*
X54230256Y-144857738D01*
X54426491Y-145010474D01*
X54645190Y-145128828D01*
X54880386Y-145209571D01*
X55125665Y-145250500D01*
X55374335Y-145250500D01*
X55619614Y-145209571D01*
X55854810Y-145128828D01*
X56073509Y-145010474D01*
X56078770Y-145006379D01*
X71724500Y-145006379D01*
X71724500Y-145993620D01*
X71761025Y-146177243D01*
X71761027Y-146177251D01*
X71832676Y-146350228D01*
X71832681Y-146350237D01*
X71936697Y-146505907D01*
X71936700Y-146505911D01*
X72069088Y-146638299D01*
X72069092Y-146638302D01*
X72224762Y-146742318D01*
X72224768Y-146742321D01*
X72224769Y-146742322D01*
X72397749Y-146813973D01*
X72581379Y-146850499D01*
X72581383Y-146850500D01*
X72581384Y-146850500D01*
X72768617Y-146850500D01*
X72768618Y-146850499D01*
X72952251Y-146813973D01*
X73125231Y-146742322D01*
X73280908Y-146638302D01*
X73413302Y-146505908D01*
X73517322Y-146350231D01*
X73588973Y-146177251D01*
X73625500Y-145993616D01*
X73625500Y-145006384D01*
X73588973Y-144822749D01*
X73517322Y-144649769D01*
X73517321Y-144649768D01*
X73517318Y-144649762D01*
X73413302Y-144494092D01*
X73413299Y-144494088D01*
X73280911Y-144361700D01*
X73280907Y-144361697D01*
X73125237Y-144257681D01*
X73125228Y-144257676D01*
X72952251Y-144186027D01*
X72952243Y-144186025D01*
X72768620Y-144149500D01*
X72768616Y-144149500D01*
X72581384Y-144149500D01*
X72581379Y-144149500D01*
X72397756Y-144186025D01*
X72397748Y-144186027D01*
X72224771Y-144257676D01*
X72224762Y-144257681D01*
X72069092Y-144361697D01*
X72069088Y-144361700D01*
X71936700Y-144494088D01*
X71936697Y-144494092D01*
X71832681Y-144649762D01*
X71832676Y-144649771D01*
X71761027Y-144822748D01*
X71761025Y-144822756D01*
X71724500Y-145006379D01*
X56078770Y-145006379D01*
X56269744Y-144857738D01*
X56438164Y-144674785D01*
X56574173Y-144466607D01*
X56674063Y-144238881D01*
X56735108Y-143997821D01*
X56735109Y-143997812D01*
X56755643Y-143750005D01*
X56755643Y-143749994D01*
X56735109Y-143502187D01*
X56735107Y-143502175D01*
X56674063Y-143261118D01*
X56574173Y-143033393D01*
X56438166Y-142825217D01*
X56416557Y-142801744D01*
X56269744Y-142642262D01*
X56073509Y-142489526D01*
X56073507Y-142489525D01*
X56073506Y-142489524D01*
X55854811Y-142371172D01*
X55854802Y-142371169D01*
X55619616Y-142290429D01*
X55374335Y-142249500D01*
X55125665Y-142249500D01*
X54880383Y-142290429D01*
X54645197Y-142371169D01*
X54645188Y-142371172D01*
X54426493Y-142489524D01*
X54230257Y-142642261D01*
X54061833Y-142825217D01*
X53925826Y-143033393D01*
X53825936Y-143261118D01*
X53764892Y-143502175D01*
X53764890Y-143502187D01*
X53744357Y-143749994D01*
X50255643Y-143749994D01*
X50235109Y-143502187D01*
X50235107Y-143502175D01*
X50174063Y-143261118D01*
X50074173Y-143033393D01*
X49938166Y-142825217D01*
X49916557Y-142801744D01*
X49769744Y-142642262D01*
X49573509Y-142489526D01*
X49573507Y-142489525D01*
X49573506Y-142489524D01*
X49354811Y-142371172D01*
X49354802Y-142371169D01*
X49119616Y-142290429D01*
X48874335Y-142249500D01*
X48625665Y-142249500D01*
X48380383Y-142290429D01*
X48145197Y-142371169D01*
X48145188Y-142371172D01*
X47926493Y-142489524D01*
X47730257Y-142642261D01*
X47561833Y-142825217D01*
X47425826Y-143033393D01*
X47325936Y-143261118D01*
X47264892Y-143502175D01*
X47264890Y-143502187D01*
X47244357Y-143749994D01*
X46500000Y-143749994D01*
X46500000Y-139249994D01*
X47244859Y-139249994D01*
X47244859Y-139250005D01*
X47265385Y-139497729D01*
X47265387Y-139497738D01*
X47326412Y-139738717D01*
X47426266Y-139966364D01*
X47526564Y-140119882D01*
X48226212Y-139420234D01*
X48237482Y-139462292D01*
X48309890Y-139587708D01*
X48412292Y-139690110D01*
X48537708Y-139762518D01*
X48579765Y-139773787D01*
X47879942Y-140473609D01*
X47926768Y-140510055D01*
X47926770Y-140510056D01*
X48145385Y-140628364D01*
X48145396Y-140628369D01*
X48380506Y-140709083D01*
X48625707Y-140750000D01*
X48874293Y-140750000D01*
X49119493Y-140709083D01*
X49354603Y-140628369D01*
X49354614Y-140628364D01*
X49573228Y-140510057D01*
X49573231Y-140510055D01*
X49620056Y-140473609D01*
X48920234Y-139773787D01*
X48962292Y-139762518D01*
X49087708Y-139690110D01*
X49190110Y-139587708D01*
X49262518Y-139462292D01*
X49273787Y-139420234D01*
X49973434Y-140119882D01*
X50073731Y-139966369D01*
X50173587Y-139738717D01*
X50234612Y-139497738D01*
X50234614Y-139497729D01*
X50255141Y-139250005D01*
X50255141Y-139249994D01*
X53744859Y-139249994D01*
X53744859Y-139250005D01*
X53765385Y-139497729D01*
X53765387Y-139497738D01*
X53826412Y-139738717D01*
X53926266Y-139966364D01*
X54026564Y-140119882D01*
X54726212Y-139420234D01*
X54737482Y-139462292D01*
X54809890Y-139587708D01*
X54912292Y-139690110D01*
X55037708Y-139762518D01*
X55079765Y-139773787D01*
X54379942Y-140473609D01*
X54426768Y-140510055D01*
X54426770Y-140510056D01*
X54645385Y-140628364D01*
X54645396Y-140628369D01*
X54880506Y-140709083D01*
X55125707Y-140750000D01*
X55374293Y-140750000D01*
X55619493Y-140709083D01*
X55854603Y-140628369D01*
X55854614Y-140628364D01*
X56073228Y-140510057D01*
X56073231Y-140510055D01*
X56120056Y-140473609D01*
X55420234Y-139773787D01*
X55462292Y-139762518D01*
X55587708Y-139690110D01*
X55690110Y-139587708D01*
X55762518Y-139462292D01*
X55773787Y-139420235D01*
X56473434Y-140119882D01*
X56573731Y-139966369D01*
X56610740Y-139881995D01*
X63199500Y-139881995D01*
X63199500Y-140118004D01*
X63199501Y-140118020D01*
X63230306Y-140352010D01*
X63291394Y-140579993D01*
X63381714Y-140798045D01*
X63381719Y-140798056D01*
X63451987Y-140919762D01*
X63499727Y-141002450D01*
X63499729Y-141002453D01*
X63499730Y-141002454D01*
X63643406Y-141189697D01*
X63643412Y-141189704D01*
X63810295Y-141356587D01*
X63810301Y-141356592D01*
X63997550Y-141500273D01*
X64083680Y-141550000D01*
X64201943Y-141618280D01*
X64201948Y-141618282D01*
X64201951Y-141618284D01*
X64420007Y-141708606D01*
X64647986Y-141769693D01*
X64881989Y-141800500D01*
X64881996Y-141800500D01*
X65118004Y-141800500D01*
X65118011Y-141800500D01*
X65352014Y-141769693D01*
X65579993Y-141708606D01*
X65798049Y-141618284D01*
X66002450Y-141500273D01*
X66189699Y-141356592D01*
X66269912Y-141276379D01*
X71724500Y-141276379D01*
X71724500Y-142963620D01*
X71761025Y-143147243D01*
X71761027Y-143147251D01*
X71832676Y-143320228D01*
X71832681Y-143320237D01*
X71936697Y-143475907D01*
X71936700Y-143475911D01*
X72069088Y-143608299D01*
X72069092Y-143608302D01*
X72224762Y-143712318D01*
X72224768Y-143712321D01*
X72224769Y-143712322D01*
X72397749Y-143783973D01*
X72581379Y-143820499D01*
X72581383Y-143820500D01*
X72581384Y-143820500D01*
X72768617Y-143820500D01*
X72768618Y-143820499D01*
X72952251Y-143783973D01*
X73125231Y-143712322D01*
X73280908Y-143608302D01*
X73413302Y-143475908D01*
X73517322Y-143320231D01*
X73522182Y-143308497D01*
X73566018Y-143254094D01*
X73632311Y-143232025D01*
X73687180Y-143242667D01*
X73768652Y-143278941D01*
X73768657Y-143278943D01*
X73938289Y-143315000D01*
X74111711Y-143315000D01*
X74281342Y-143278943D01*
X74281347Y-143278941D01*
X74398947Y-143226582D01*
X74468197Y-143217297D01*
X74499818Y-143226581D01*
X74515096Y-143233383D01*
X74618501Y-143279422D01*
X74788236Y-143315500D01*
X74788237Y-143315500D01*
X74961762Y-143315500D01*
X74961764Y-143315500D01*
X75131499Y-143279422D01*
X75131501Y-143279420D01*
X75131504Y-143279420D01*
X75249564Y-143226856D01*
X75318814Y-143217571D01*
X75350436Y-143226856D01*
X75468495Y-143279420D01*
X75468501Y-143279422D01*
X75638236Y-143315500D01*
X75638237Y-143315500D01*
X75811762Y-143315500D01*
X75811764Y-143315500D01*
X75981499Y-143279422D01*
X75981501Y-143279420D01*
X75981504Y-143279420D01*
X76099564Y-143226856D01*
X76168814Y-143217571D01*
X76200436Y-143226856D01*
X76318495Y-143279420D01*
X76318501Y-143279422D01*
X76488236Y-143315500D01*
X76488237Y-143315500D01*
X76661762Y-143315500D01*
X76661764Y-143315500D01*
X76831499Y-143279422D01*
X76831501Y-143279420D01*
X76831504Y-143279420D01*
X76949564Y-143226856D01*
X77018814Y-143217571D01*
X77050436Y-143226856D01*
X77168495Y-143279420D01*
X77168501Y-143279422D01*
X77338236Y-143315500D01*
X77338237Y-143315500D01*
X77511762Y-143315500D01*
X77511764Y-143315500D01*
X77681499Y-143279422D01*
X77681501Y-143279420D01*
X77681504Y-143279420D01*
X77799564Y-143226856D01*
X77868814Y-143217571D01*
X77900436Y-143226856D01*
X78018495Y-143279420D01*
X78018501Y-143279422D01*
X78138962Y-143305026D01*
X78200443Y-143338218D01*
X78200861Y-143338635D01*
X79063316Y-144201090D01*
X79124291Y-144262065D01*
X79198971Y-144305181D01*
X79282265Y-144327500D01*
X80466023Y-144327500D01*
X80533062Y-144347185D01*
X80578817Y-144399989D01*
X80588761Y-144469147D01*
X80569125Y-144520391D01*
X80482681Y-144649762D01*
X80482676Y-144649771D01*
X80411027Y-144822748D01*
X80411025Y-144822756D01*
X80374500Y-145006379D01*
X80374500Y-145993620D01*
X80411025Y-146177243D01*
X80411027Y-146177251D01*
X80482676Y-146350228D01*
X80482681Y-146350237D01*
X80586697Y-146505907D01*
X80586700Y-146505911D01*
X80719088Y-146638299D01*
X80719092Y-146638302D01*
X80874762Y-146742318D01*
X80874768Y-146742321D01*
X80874769Y-146742322D01*
X81047749Y-146813973D01*
X81231379Y-146850499D01*
X81231383Y-146850500D01*
X81231384Y-146850500D01*
X81418617Y-146850500D01*
X81418618Y-146850499D01*
X81602251Y-146813973D01*
X81775231Y-146742322D01*
X81930908Y-146638302D01*
X82063302Y-146505908D01*
X82167322Y-146350231D01*
X82238973Y-146177251D01*
X82275500Y-145993616D01*
X82275500Y-145499994D01*
X108244357Y-145499994D01*
X108244357Y-145500005D01*
X108264890Y-145747812D01*
X108264892Y-145747824D01*
X108325936Y-145988881D01*
X108425826Y-146216606D01*
X108561833Y-146424782D01*
X108561836Y-146424785D01*
X108730256Y-146607738D01*
X108926491Y-146760474D01*
X109145190Y-146878828D01*
X109380386Y-146959571D01*
X109625665Y-147000500D01*
X109874335Y-147000500D01*
X110119614Y-146959571D01*
X110354810Y-146878828D01*
X110573509Y-146760474D01*
X110769744Y-146607738D01*
X110938164Y-146424785D01*
X111074173Y-146216607D01*
X111174063Y-145988881D01*
X111235108Y-145747821D01*
X111255643Y-145500000D01*
X111255643Y-145499994D01*
X114744357Y-145499994D01*
X114744357Y-145500005D01*
X114764890Y-145747812D01*
X114764892Y-145747824D01*
X114825936Y-145988881D01*
X114925826Y-146216606D01*
X115061833Y-146424782D01*
X115061836Y-146424785D01*
X115230256Y-146607738D01*
X115426491Y-146760474D01*
X115645190Y-146878828D01*
X115880386Y-146959571D01*
X116125665Y-147000500D01*
X116374335Y-147000500D01*
X116619614Y-146959571D01*
X116854810Y-146878828D01*
X117073509Y-146760474D01*
X117269744Y-146607738D01*
X117438164Y-146424785D01*
X117574173Y-146216607D01*
X117674063Y-145988881D01*
X117735108Y-145747821D01*
X117755643Y-145500000D01*
X117735108Y-145252179D01*
X117674063Y-145011119D01*
X117673780Y-145010474D01*
X117574173Y-144783393D01*
X117438166Y-144575217D01*
X117363481Y-144494088D01*
X117269744Y-144392262D01*
X117073509Y-144239526D01*
X117073507Y-144239525D01*
X117073506Y-144239524D01*
X116854811Y-144121172D01*
X116854802Y-144121169D01*
X116619616Y-144040429D01*
X116374335Y-143999500D01*
X116125665Y-143999500D01*
X115880383Y-144040429D01*
X115645197Y-144121169D01*
X115645188Y-144121172D01*
X115426493Y-144239524D01*
X115230257Y-144392261D01*
X115061833Y-144575217D01*
X114925826Y-144783393D01*
X114825936Y-145011118D01*
X114764892Y-145252175D01*
X114764890Y-145252187D01*
X114744357Y-145499994D01*
X111255643Y-145499994D01*
X111235108Y-145252179D01*
X111174063Y-145011119D01*
X111173780Y-145010474D01*
X111074173Y-144783393D01*
X110938166Y-144575217D01*
X110863481Y-144494088D01*
X110769744Y-144392262D01*
X110573509Y-144239526D01*
X110573507Y-144239525D01*
X110573506Y-144239524D01*
X110354811Y-144121172D01*
X110354802Y-144121169D01*
X110119616Y-144040429D01*
X109874335Y-143999500D01*
X109625665Y-143999500D01*
X109380383Y-144040429D01*
X109145197Y-144121169D01*
X109145188Y-144121172D01*
X108926493Y-144239524D01*
X108730257Y-144392261D01*
X108561833Y-144575217D01*
X108425826Y-144783393D01*
X108325936Y-145011118D01*
X108264892Y-145252175D01*
X108264890Y-145252187D01*
X108244357Y-145499994D01*
X82275500Y-145499994D01*
X82275500Y-145006384D01*
X82238973Y-144822749D01*
X82167322Y-144649769D01*
X82167321Y-144649768D01*
X82167318Y-144649762D01*
X82080875Y-144520391D01*
X82059997Y-144453713D01*
X82078482Y-144386333D01*
X82130460Y-144339643D01*
X82183977Y-144327500D01*
X82691841Y-144327500D01*
X82758880Y-144347185D01*
X82796835Y-144385528D01*
X82839679Y-144453713D01*
X82870184Y-144502262D01*
X82997738Y-144629816D01*
X83150478Y-144725789D01*
X83315101Y-144783393D01*
X83320745Y-144785368D01*
X83320750Y-144785369D01*
X83499996Y-144805565D01*
X83500000Y-144805565D01*
X83500004Y-144805565D01*
X83679249Y-144785369D01*
X83679252Y-144785368D01*
X83679255Y-144785368D01*
X83849522Y-144725789D01*
X84002262Y-144629816D01*
X84129816Y-144502262D01*
X84225789Y-144349522D01*
X84285368Y-144179255D01*
X84288721Y-144149500D01*
X84305565Y-144000003D01*
X84305565Y-143999996D01*
X84285369Y-143820750D01*
X84285368Y-143820745D01*
X84260611Y-143749994D01*
X84225789Y-143650478D01*
X84129816Y-143497738D01*
X84002262Y-143370184D01*
X83952052Y-143338635D01*
X83849523Y-143274211D01*
X83679254Y-143214631D01*
X83679249Y-143214630D01*
X83500004Y-143194435D01*
X83499996Y-143194435D01*
X83320750Y-143214630D01*
X83320745Y-143214631D01*
X83150476Y-143274211D01*
X82997737Y-143370184D01*
X82870184Y-143497737D01*
X82796835Y-143614472D01*
X82744500Y-143660763D01*
X82691841Y-143672500D01*
X82163931Y-143672500D01*
X82096892Y-143652815D01*
X82051137Y-143600011D01*
X82041193Y-143530853D01*
X82060829Y-143479609D01*
X82167318Y-143320237D01*
X82167321Y-143320232D01*
X82167322Y-143320231D01*
X82238973Y-143147251D01*
X82275500Y-142963616D01*
X82275500Y-141276384D01*
X82238973Y-141092749D01*
X82175702Y-140940000D01*
X82167323Y-140919771D01*
X82167318Y-140919762D01*
X82063302Y-140764092D01*
X82063299Y-140764088D01*
X81930911Y-140631700D01*
X81930907Y-140631697D01*
X81775237Y-140527681D01*
X81775228Y-140527676D01*
X81602251Y-140456027D01*
X81602243Y-140456025D01*
X81418620Y-140419500D01*
X81418616Y-140419500D01*
X81231384Y-140419500D01*
X81231379Y-140419500D01*
X81047756Y-140456025D01*
X81047748Y-140456027D01*
X80874771Y-140527676D01*
X80874762Y-140527681D01*
X80719092Y-140631697D01*
X80719088Y-140631700D01*
X80586700Y-140764088D01*
X80586694Y-140764096D01*
X80482679Y-140919766D01*
X80482674Y-140919775D01*
X80445370Y-141009833D01*
X80418491Y-141050060D01*
X80158782Y-141309769D01*
X80097459Y-141343254D01*
X80027767Y-141338270D01*
X80024629Y-141335921D01*
X80088291Y-141309552D01*
X80144552Y-141253291D01*
X80175000Y-141179782D01*
X80175000Y-141100218D01*
X80144552Y-141026709D01*
X80088291Y-140970448D01*
X80014782Y-140940000D01*
X79935218Y-140940000D01*
X79928854Y-140942635D01*
X79925347Y-140931845D01*
X79923353Y-140862005D01*
X79955598Y-140805847D01*
X80355231Y-140406215D01*
X80231340Y-140351056D01*
X80061711Y-140315000D01*
X79888289Y-140315000D01*
X79718657Y-140351056D01*
X79718656Y-140351056D01*
X79601050Y-140403418D01*
X79531800Y-140412702D01*
X79500180Y-140403418D01*
X79381500Y-140350578D01*
X79381498Y-140350577D01*
X79247841Y-140322168D01*
X79211764Y-140314500D01*
X79038236Y-140314500D01*
X79008483Y-140320824D01*
X78868501Y-140350577D01*
X78868500Y-140350577D01*
X78750434Y-140403144D01*
X78681184Y-140412428D01*
X78649564Y-140403144D01*
X78531500Y-140350578D01*
X78531498Y-140350577D01*
X78397841Y-140322168D01*
X78361764Y-140314500D01*
X78188236Y-140314500D01*
X78158483Y-140320824D01*
X78018501Y-140350577D01*
X78018500Y-140350577D01*
X77900434Y-140403144D01*
X77831184Y-140412428D01*
X77799564Y-140403144D01*
X77681500Y-140350578D01*
X77681498Y-140350577D01*
X77547841Y-140322168D01*
X77511764Y-140314500D01*
X77338236Y-140314500D01*
X77308483Y-140320824D01*
X77168501Y-140350577D01*
X77168500Y-140350577D01*
X77050434Y-140403144D01*
X76981184Y-140412428D01*
X76949564Y-140403144D01*
X76831500Y-140350578D01*
X76831498Y-140350577D01*
X76697841Y-140322168D01*
X76661764Y-140314500D01*
X76488236Y-140314500D01*
X76466454Y-140319129D01*
X76396790Y-140313813D01*
X76341057Y-140271675D01*
X76316952Y-140206095D01*
X76332129Y-140137894D01*
X76352996Y-140110158D01*
X76581159Y-139881995D01*
X98199500Y-139881995D01*
X98199500Y-140118004D01*
X98199501Y-140118020D01*
X98230306Y-140352010D01*
X98291394Y-140579993D01*
X98381714Y-140798045D01*
X98381719Y-140798056D01*
X98451987Y-140919762D01*
X98499727Y-141002450D01*
X98499729Y-141002453D01*
X98499730Y-141002454D01*
X98643406Y-141189697D01*
X98643412Y-141189704D01*
X98810295Y-141356587D01*
X98810301Y-141356592D01*
X98997550Y-141500273D01*
X99083680Y-141550000D01*
X99201943Y-141618280D01*
X99201948Y-141618282D01*
X99201951Y-141618284D01*
X99420007Y-141708606D01*
X99647986Y-141769693D01*
X99881989Y-141800500D01*
X99881996Y-141800500D01*
X100118004Y-141800500D01*
X100118011Y-141800500D01*
X100352014Y-141769693D01*
X100579993Y-141708606D01*
X100798049Y-141618284D01*
X101002450Y-141500273D01*
X101189699Y-141356592D01*
X101356592Y-141189699D01*
X101500273Y-141002450D01*
X101501691Y-140999994D01*
X108244859Y-140999994D01*
X108244859Y-141000005D01*
X108265385Y-141247729D01*
X108265387Y-141247738D01*
X108326412Y-141488717D01*
X108426266Y-141716364D01*
X108526564Y-141869882D01*
X109226212Y-141170234D01*
X109237482Y-141212292D01*
X109309890Y-141337708D01*
X109412292Y-141440110D01*
X109537708Y-141512518D01*
X109579765Y-141523787D01*
X108879942Y-142223609D01*
X108926768Y-142260055D01*
X108926770Y-142260056D01*
X109145385Y-142378364D01*
X109145396Y-142378369D01*
X109380506Y-142459083D01*
X109625707Y-142500000D01*
X109874293Y-142500000D01*
X110119493Y-142459083D01*
X110354603Y-142378369D01*
X110354614Y-142378364D01*
X110573228Y-142260057D01*
X110573231Y-142260055D01*
X110620056Y-142223609D01*
X109920234Y-141523787D01*
X109962292Y-141512518D01*
X110087708Y-141440110D01*
X110190110Y-141337708D01*
X110262518Y-141212292D01*
X110273787Y-141170235D01*
X110973434Y-141869882D01*
X111073731Y-141716369D01*
X111173587Y-141488717D01*
X111234612Y-141247738D01*
X111234614Y-141247729D01*
X111255141Y-141000005D01*
X111255141Y-140999994D01*
X114744859Y-140999994D01*
X114744859Y-141000005D01*
X114765385Y-141247729D01*
X114765387Y-141247738D01*
X114826412Y-141488717D01*
X114926266Y-141716364D01*
X115026564Y-141869882D01*
X115726212Y-141170234D01*
X115737482Y-141212292D01*
X115809890Y-141337708D01*
X115912292Y-141440110D01*
X116037708Y-141512518D01*
X116079765Y-141523787D01*
X115379942Y-142223609D01*
X115426768Y-142260055D01*
X115426770Y-142260056D01*
X115645385Y-142378364D01*
X115645396Y-142378369D01*
X115880506Y-142459083D01*
X116125707Y-142500000D01*
X116374293Y-142500000D01*
X116619493Y-142459083D01*
X116854603Y-142378369D01*
X116854614Y-142378364D01*
X117073228Y-142260057D01*
X117073231Y-142260055D01*
X117120056Y-142223609D01*
X116420234Y-141523787D01*
X116462292Y-141512518D01*
X116587708Y-141440110D01*
X116690110Y-141337708D01*
X116762518Y-141212292D01*
X116773787Y-141170235D01*
X117473434Y-141869882D01*
X117573731Y-141716369D01*
X117673587Y-141488717D01*
X117734612Y-141247738D01*
X117734614Y-141247729D01*
X117755141Y-141000005D01*
X117755141Y-140999994D01*
X117734614Y-140752270D01*
X117734612Y-140752261D01*
X117673587Y-140511282D01*
X117573731Y-140283630D01*
X117473434Y-140130116D01*
X116773787Y-140829764D01*
X116762518Y-140787708D01*
X116690110Y-140662292D01*
X116587708Y-140559890D01*
X116462292Y-140487482D01*
X116420235Y-140476212D01*
X117120057Y-139776390D01*
X117120056Y-139776389D01*
X117073229Y-139739943D01*
X116854614Y-139621635D01*
X116854603Y-139621630D01*
X116619493Y-139540916D01*
X116374293Y-139500000D01*
X116125707Y-139500000D01*
X115880506Y-139540916D01*
X115645396Y-139621630D01*
X115645390Y-139621632D01*
X115426761Y-139739949D01*
X115379942Y-139776388D01*
X115379942Y-139776390D01*
X116079765Y-140476212D01*
X116037708Y-140487482D01*
X115912292Y-140559890D01*
X115809890Y-140662292D01*
X115737482Y-140787708D01*
X115726212Y-140829764D01*
X115026564Y-140130116D01*
X114926267Y-140283632D01*
X114826412Y-140511282D01*
X114765387Y-140752261D01*
X114765385Y-140752270D01*
X114744859Y-140999994D01*
X111255141Y-140999994D01*
X111234614Y-140752270D01*
X111234612Y-140752261D01*
X111173587Y-140511282D01*
X111073731Y-140283630D01*
X110973434Y-140130116D01*
X110273787Y-140829764D01*
X110262518Y-140787708D01*
X110190110Y-140662292D01*
X110087708Y-140559890D01*
X109962292Y-140487482D01*
X109920235Y-140476212D01*
X110620057Y-139776390D01*
X110620056Y-139776389D01*
X110573229Y-139739943D01*
X110354614Y-139621635D01*
X110354603Y-139621630D01*
X110119493Y-139540916D01*
X109874293Y-139500000D01*
X109625707Y-139500000D01*
X109380506Y-139540916D01*
X109145396Y-139621630D01*
X109145390Y-139621632D01*
X108926761Y-139739949D01*
X108879942Y-139776388D01*
X108879942Y-139776390D01*
X109579765Y-140476212D01*
X109537708Y-140487482D01*
X109412292Y-140559890D01*
X109309890Y-140662292D01*
X109237482Y-140787708D01*
X109226212Y-140829764D01*
X108526564Y-140130116D01*
X108426267Y-140283632D01*
X108326412Y-140511282D01*
X108265387Y-140752261D01*
X108265385Y-140752270D01*
X108244859Y-140999994D01*
X101501691Y-140999994D01*
X101618284Y-140798049D01*
X101708606Y-140579993D01*
X101769693Y-140352014D01*
X101800500Y-140118011D01*
X101800500Y-139881989D01*
X101769693Y-139647986D01*
X101708606Y-139420007D01*
X101618284Y-139201951D01*
X101618282Y-139201948D01*
X101618280Y-139201943D01*
X101576118Y-139128918D01*
X101500273Y-138997550D01*
X101356592Y-138810301D01*
X101356587Y-138810295D01*
X101189704Y-138643412D01*
X101189697Y-138643406D01*
X101002454Y-138499730D01*
X101002453Y-138499729D01*
X101002450Y-138499727D01*
X100920957Y-138452677D01*
X100798056Y-138381719D01*
X100798045Y-138381714D01*
X100579993Y-138291394D01*
X100352014Y-138230307D01*
X100352013Y-138230306D01*
X100352010Y-138230306D01*
X100118020Y-138199501D01*
X100118017Y-138199500D01*
X100118011Y-138199500D01*
X99881989Y-138199500D01*
X99881983Y-138199500D01*
X99881979Y-138199501D01*
X99647989Y-138230306D01*
X99420006Y-138291394D01*
X99201954Y-138381714D01*
X99201943Y-138381719D01*
X98997545Y-138499730D01*
X98810302Y-138643406D01*
X98810295Y-138643412D01*
X98643412Y-138810295D01*
X98643406Y-138810302D01*
X98499730Y-138997545D01*
X98381719Y-139201943D01*
X98381714Y-139201954D01*
X98291394Y-139420006D01*
X98230306Y-139647989D01*
X98199501Y-139881979D01*
X98199500Y-139881995D01*
X76581159Y-139881995D01*
X76859602Y-139603553D01*
X77599336Y-138863819D01*
X77660659Y-138830334D01*
X77687017Y-138827500D01*
X84691841Y-138827500D01*
X84758880Y-138847185D01*
X84796835Y-138885528D01*
X84870184Y-139002262D01*
X84997738Y-139129816D01*
X85150478Y-139225789D01*
X85320745Y-139285368D01*
X85320750Y-139285369D01*
X85499996Y-139305565D01*
X85500000Y-139305565D01*
X85500004Y-139305565D01*
X85679249Y-139285369D01*
X85679252Y-139285368D01*
X85679255Y-139285368D01*
X85849522Y-139225789D01*
X86002262Y-139129816D01*
X86129816Y-139002262D01*
X86225789Y-138849522D01*
X86285368Y-138679255D01*
X86285369Y-138679249D01*
X86305565Y-138500003D01*
X86305565Y-138499996D01*
X86285369Y-138320750D01*
X86285368Y-138320745D01*
X86256392Y-138237936D01*
X86225789Y-138150478D01*
X86129816Y-137997738D01*
X86002262Y-137870184D01*
X85902888Y-137807743D01*
X85849523Y-137774211D01*
X85679254Y-137714631D01*
X85679249Y-137714630D01*
X85500004Y-137694435D01*
X85499996Y-137694435D01*
X85320750Y-137714630D01*
X85320745Y-137714631D01*
X85150476Y-137774211D01*
X84997737Y-137870184D01*
X84870184Y-137997737D01*
X84796835Y-138114472D01*
X84744500Y-138160763D01*
X84691841Y-138172500D01*
X77543116Y-138172500D01*
X77456884Y-138172500D01*
X77401354Y-138187379D01*
X77373589Y-138194819D01*
X77298911Y-138237934D01*
X77298908Y-138237936D01*
X75514181Y-140022664D01*
X75452858Y-140056149D01*
X75383166Y-140051165D01*
X75327233Y-140009293D01*
X75302816Y-139943829D01*
X75302500Y-139934983D01*
X75302500Y-139881129D01*
X75322185Y-139814090D01*
X75338819Y-139793448D01*
X75826702Y-139305565D01*
X76355931Y-138776337D01*
X76385597Y-138724952D01*
X76405300Y-138699274D01*
X79640757Y-135463819D01*
X79702080Y-135430334D01*
X79728438Y-135427500D01*
X84254676Y-135427500D01*
X84321715Y-135447185D01*
X84359668Y-135485526D01*
X84370184Y-135502262D01*
X84497738Y-135629816D01*
X84588080Y-135686582D01*
X84632721Y-135714632D01*
X84650478Y-135725789D01*
X84788860Y-135774211D01*
X84820745Y-135785368D01*
X84820750Y-135785369D01*
X84999996Y-135805565D01*
X85000000Y-135805565D01*
X85000004Y-135805565D01*
X85179249Y-135785369D01*
X85179252Y-135785368D01*
X85179255Y-135785368D01*
X85349522Y-135725789D01*
X85502262Y-135629816D01*
X85629816Y-135502262D01*
X85725789Y-135349522D01*
X85785368Y-135179255D01*
X85805565Y-135000000D01*
X85785368Y-134820745D01*
X85725789Y-134650478D01*
X85629816Y-134497738D01*
X85604295Y-134472217D01*
X108244357Y-134472217D01*
X108244357Y-134472228D01*
X108264890Y-134720035D01*
X108264892Y-134720047D01*
X108325936Y-134961104D01*
X108425826Y-135188829D01*
X108561833Y-135397005D01*
X108561836Y-135397008D01*
X108730256Y-135579961D01*
X108926491Y-135732697D01*
X109145190Y-135851051D01*
X109380386Y-135931794D01*
X109625665Y-135972723D01*
X109874335Y-135972723D01*
X110119614Y-135931794D01*
X110354810Y-135851051D01*
X110573509Y-135732697D01*
X110769744Y-135579961D01*
X110938164Y-135397008D01*
X111074173Y-135188830D01*
X111174063Y-134961104D01*
X111235108Y-134720044D01*
X111240256Y-134657915D01*
X111255643Y-134472228D01*
X111255643Y-134472217D01*
X114744357Y-134472217D01*
X114744357Y-134472228D01*
X114764890Y-134720035D01*
X114764892Y-134720047D01*
X114825936Y-134961104D01*
X114925826Y-135188829D01*
X115061833Y-135397005D01*
X115061836Y-135397008D01*
X115230256Y-135579961D01*
X115426491Y-135732697D01*
X115645190Y-135851051D01*
X115880386Y-135931794D01*
X116125665Y-135972723D01*
X116374335Y-135972723D01*
X116619614Y-135931794D01*
X116854810Y-135851051D01*
X117073509Y-135732697D01*
X117269744Y-135579961D01*
X117438164Y-135397008D01*
X117574173Y-135188830D01*
X117674063Y-134961104D01*
X117735108Y-134720044D01*
X117740256Y-134657915D01*
X117755643Y-134472228D01*
X117755643Y-134472217D01*
X117735109Y-134224410D01*
X117735107Y-134224398D01*
X117674063Y-133983341D01*
X117574173Y-133755616D01*
X117438166Y-133547440D01*
X117416557Y-133523967D01*
X117269744Y-133364485D01*
X117073509Y-133211749D01*
X117073507Y-133211748D01*
X117073506Y-133211747D01*
X116854811Y-133093395D01*
X116854802Y-133093392D01*
X116619616Y-133012652D01*
X116374335Y-132971723D01*
X116125665Y-132971723D01*
X115880383Y-133012652D01*
X115645197Y-133093392D01*
X115645188Y-133093395D01*
X115426493Y-133211747D01*
X115230257Y-133364484D01*
X115061833Y-133547440D01*
X114925826Y-133755616D01*
X114825936Y-133983341D01*
X114764892Y-134224398D01*
X114764890Y-134224410D01*
X114744357Y-134472217D01*
X111255643Y-134472217D01*
X111235109Y-134224410D01*
X111235107Y-134224398D01*
X111174063Y-133983341D01*
X111074173Y-133755616D01*
X110938166Y-133547440D01*
X110916557Y-133523967D01*
X110769744Y-133364485D01*
X110573509Y-133211749D01*
X110573507Y-133211748D01*
X110573506Y-133211747D01*
X110354811Y-133093395D01*
X110354802Y-133093392D01*
X110119616Y-133012652D01*
X109874335Y-132971723D01*
X109625665Y-132971723D01*
X109380383Y-133012652D01*
X109145197Y-133093392D01*
X109145188Y-133093395D01*
X108926493Y-133211747D01*
X108730257Y-133364484D01*
X108561833Y-133547440D01*
X108425826Y-133755616D01*
X108325936Y-133983341D01*
X108264892Y-134224398D01*
X108264890Y-134224410D01*
X108244357Y-134472217D01*
X85604295Y-134472217D01*
X85502262Y-134370184D01*
X85349523Y-134274211D01*
X85179254Y-134214631D01*
X85179249Y-134214630D01*
X85000004Y-134194435D01*
X84999996Y-134194435D01*
X84820750Y-134214630D01*
X84820745Y-134214631D01*
X84650476Y-134274211D01*
X84497737Y-134370184D01*
X84370186Y-134497735D01*
X84370184Y-134497737D01*
X84370184Y-134497738D01*
X84359668Y-134514473D01*
X84307337Y-134560762D01*
X84254676Y-134572500D01*
X79443719Y-134572500D01*
X79334989Y-134601633D01*
X79237509Y-134657915D01*
X79237506Y-134657917D01*
X76087681Y-137807743D01*
X76026358Y-137841228D01*
X75956666Y-137836244D01*
X75912319Y-137807743D01*
X75463819Y-137359243D01*
X75430334Y-137297920D01*
X75427500Y-137271562D01*
X75427500Y-137245324D01*
X75447185Y-137178285D01*
X75485526Y-137140331D01*
X75502262Y-137129816D01*
X75629816Y-137002262D01*
X75725789Y-136849522D01*
X75785368Y-136679255D01*
X75805565Y-136500000D01*
X75785368Y-136320745D01*
X75725789Y-136150478D01*
X75629816Y-135997738D01*
X75502262Y-135870184D01*
X75471812Y-135851051D01*
X75349523Y-135774211D01*
X75179254Y-135714631D01*
X75179249Y-135714630D01*
X75000004Y-135694435D01*
X74999996Y-135694435D01*
X74820750Y-135714630D01*
X74820745Y-135714631D01*
X74650476Y-135774211D01*
X74497737Y-135870184D01*
X74370184Y-135997737D01*
X74274211Y-136150476D01*
X74214631Y-136320745D01*
X74214630Y-136320750D01*
X74194435Y-136499996D01*
X74194435Y-136500003D01*
X74214630Y-136679249D01*
X74214631Y-136679254D01*
X74274211Y-136849523D01*
X74370184Y-137002262D01*
X74497738Y-137129816D01*
X74514473Y-137140331D01*
X74560762Y-137192663D01*
X74572500Y-137245324D01*
X74572500Y-137556280D01*
X74601633Y-137665010D01*
X74618622Y-137694435D01*
X74657915Y-137762491D01*
X74657917Y-137762493D01*
X75321588Y-138426164D01*
X75355073Y-138487487D01*
X75350089Y-138557179D01*
X75321588Y-138601526D01*
X74612509Y-139310606D01*
X74532917Y-139390197D01*
X74532915Y-139390200D01*
X74476633Y-139487680D01*
X74447500Y-139596410D01*
X74447500Y-140234373D01*
X74427815Y-140301412D01*
X74375011Y-140347167D01*
X74305853Y-140357111D01*
X74285186Y-140352305D01*
X74281345Y-140351057D01*
X74111711Y-140315000D01*
X73938289Y-140315000D01*
X73768659Y-140351056D01*
X73644767Y-140406215D01*
X74044401Y-140805848D01*
X74077886Y-140867171D01*
X74074652Y-140931845D01*
X74071145Y-140942635D01*
X74064782Y-140940000D01*
X73985218Y-140940000D01*
X73911709Y-140970448D01*
X73855448Y-141026709D01*
X73825000Y-141100218D01*
X73825000Y-141179782D01*
X73855448Y-141253291D01*
X73911709Y-141309552D01*
X73971084Y-141334145D01*
X73924178Y-141345999D01*
X73857936Y-141323777D01*
X73841217Y-141309770D01*
X73581507Y-141050060D01*
X73554627Y-141009831D01*
X73550554Y-140999999D01*
X73538314Y-140970448D01*
X73517325Y-140919775D01*
X73517318Y-140919762D01*
X73413302Y-140764092D01*
X73413299Y-140764088D01*
X73280911Y-140631700D01*
X73280907Y-140631697D01*
X73125237Y-140527681D01*
X73125228Y-140527676D01*
X72952251Y-140456027D01*
X72952243Y-140456025D01*
X72768620Y-140419500D01*
X72768616Y-140419500D01*
X72581384Y-140419500D01*
X72581379Y-140419500D01*
X72397756Y-140456025D01*
X72397748Y-140456027D01*
X72224771Y-140527676D01*
X72224762Y-140527681D01*
X72069092Y-140631697D01*
X72069088Y-140631700D01*
X71936700Y-140764088D01*
X71936697Y-140764092D01*
X71832681Y-140919762D01*
X71832676Y-140919771D01*
X71761027Y-141092748D01*
X71761025Y-141092756D01*
X71724500Y-141276379D01*
X66269912Y-141276379D01*
X66356592Y-141189699D01*
X66500273Y-141002450D01*
X66618284Y-140798049D01*
X66708606Y-140579993D01*
X66769693Y-140352014D01*
X66800500Y-140118011D01*
X66800500Y-139881989D01*
X66769693Y-139647986D01*
X66708606Y-139420007D01*
X66618284Y-139201951D01*
X66618282Y-139201948D01*
X66618280Y-139201943D01*
X66576118Y-139128918D01*
X66500273Y-138997550D01*
X66356592Y-138810301D01*
X66356587Y-138810295D01*
X66189704Y-138643412D01*
X66189697Y-138643406D01*
X66002454Y-138499730D01*
X66002453Y-138499729D01*
X66002450Y-138499727D01*
X65920957Y-138452677D01*
X65798056Y-138381719D01*
X65798045Y-138381714D01*
X65579993Y-138291394D01*
X65352014Y-138230307D01*
X65352013Y-138230306D01*
X65352010Y-138230306D01*
X65118020Y-138199501D01*
X65118017Y-138199500D01*
X65118011Y-138199500D01*
X64881989Y-138199500D01*
X64881983Y-138199500D01*
X64881979Y-138199501D01*
X64647989Y-138230306D01*
X64420006Y-138291394D01*
X64201954Y-138381714D01*
X64201943Y-138381719D01*
X63997545Y-138499730D01*
X63810302Y-138643406D01*
X63810295Y-138643412D01*
X63643412Y-138810295D01*
X63643406Y-138810302D01*
X63499730Y-138997545D01*
X63381719Y-139201943D01*
X63381714Y-139201954D01*
X63291394Y-139420006D01*
X63230306Y-139647989D01*
X63199501Y-139881979D01*
X63199500Y-139881995D01*
X56610740Y-139881995D01*
X56673587Y-139738717D01*
X56734612Y-139497738D01*
X56734614Y-139497729D01*
X56755141Y-139250005D01*
X56755141Y-139249994D01*
X56734614Y-139002270D01*
X56734612Y-139002261D01*
X56673587Y-138761282D01*
X56573731Y-138533630D01*
X56473434Y-138380116D01*
X55773787Y-139079764D01*
X55762518Y-139037708D01*
X55690110Y-138912292D01*
X55587708Y-138809890D01*
X55462292Y-138737482D01*
X55420235Y-138726212D01*
X56120057Y-138026390D01*
X56120056Y-138026389D01*
X56073229Y-137989943D01*
X55854614Y-137871635D01*
X55854603Y-137871630D01*
X55619493Y-137790916D01*
X55374293Y-137750000D01*
X55125707Y-137750000D01*
X54880506Y-137790916D01*
X54645396Y-137871630D01*
X54645390Y-137871632D01*
X54426761Y-137989949D01*
X54379942Y-138026388D01*
X54379942Y-138026390D01*
X55079765Y-138726212D01*
X55037708Y-138737482D01*
X54912292Y-138809890D01*
X54809890Y-138912292D01*
X54737482Y-139037708D01*
X54726212Y-139079764D01*
X54026564Y-138380116D01*
X53926267Y-138533632D01*
X53826412Y-138761282D01*
X53765387Y-139002261D01*
X53765385Y-139002270D01*
X53744859Y-139249994D01*
X50255141Y-139249994D01*
X50234614Y-139002270D01*
X50234612Y-139002261D01*
X50173587Y-138761282D01*
X50073731Y-138533630D01*
X49973434Y-138380116D01*
X49273787Y-139079764D01*
X49262518Y-139037708D01*
X49190110Y-138912292D01*
X49087708Y-138809890D01*
X48962292Y-138737482D01*
X48920235Y-138726212D01*
X49620057Y-138026390D01*
X49620056Y-138026389D01*
X49573229Y-137989943D01*
X49354614Y-137871635D01*
X49354603Y-137871630D01*
X49119493Y-137790916D01*
X48874293Y-137750000D01*
X48625707Y-137750000D01*
X48380506Y-137790916D01*
X48145396Y-137871630D01*
X48145390Y-137871632D01*
X47926761Y-137989949D01*
X47879942Y-138026388D01*
X47879942Y-138026390D01*
X48579765Y-138726212D01*
X48537708Y-138737482D01*
X48412292Y-138809890D01*
X48309890Y-138912292D01*
X48237482Y-139037708D01*
X48226212Y-139079764D01*
X47526564Y-138380116D01*
X47426267Y-138533632D01*
X47326412Y-138761282D01*
X47265387Y-139002261D01*
X47265385Y-139002270D01*
X47244859Y-139249994D01*
X46500000Y-139249994D01*
X46500000Y-129499996D01*
X54694435Y-129499996D01*
X54694435Y-129500003D01*
X54714630Y-129679249D01*
X54714631Y-129679254D01*
X54774211Y-129849523D01*
X54851309Y-129972223D01*
X54870184Y-130002262D01*
X54997738Y-130129816D01*
X55084791Y-130184515D01*
X55141202Y-130219961D01*
X55150478Y-130225789D01*
X55320745Y-130285368D01*
X55320750Y-130285369D01*
X55499996Y-130305565D01*
X55500000Y-130305565D01*
X55500004Y-130305565D01*
X55679249Y-130285369D01*
X55679252Y-130285368D01*
X55679255Y-130285368D01*
X55849522Y-130225789D01*
X56002262Y-130129816D01*
X56129816Y-130002262D01*
X56225789Y-129849522D01*
X56285368Y-129679255D01*
X56290409Y-129634515D01*
X56305565Y-129500003D01*
X56305565Y-129499996D01*
X56285369Y-129320750D01*
X56285368Y-129320745D01*
X56225788Y-129150476D01*
X56174126Y-129068257D01*
X56129816Y-128997738D01*
X56002262Y-128870184D01*
X55849522Y-128774211D01*
X55849520Y-128774210D01*
X55810545Y-128760572D01*
X55753769Y-128719850D01*
X55728022Y-128654897D01*
X55727500Y-128643531D01*
X55727500Y-121098113D01*
X58639400Y-121098113D01*
X58639400Y-121523100D01*
X59459070Y-121523100D01*
X59439325Y-121542845D01*
X59389956Y-121628355D01*
X59364400Y-121723730D01*
X59364400Y-121822470D01*
X59389956Y-121917845D01*
X59439325Y-122003355D01*
X59459070Y-122023100D01*
X58639401Y-122023100D01*
X58639401Y-122448086D01*
X58649894Y-122550797D01*
X58705041Y-122717219D01*
X58705043Y-122717224D01*
X58797084Y-122866445D01*
X58921054Y-122990415D01*
X59070275Y-123082456D01*
X59070280Y-123082458D01*
X59236702Y-123137605D01*
X59236709Y-123137606D01*
X59339419Y-123148099D01*
X59489399Y-123148099D01*
X59489400Y-123148098D01*
X59489400Y-122053430D01*
X59509145Y-122073175D01*
X59594655Y-122122544D01*
X59690030Y-122148100D01*
X59788770Y-122148100D01*
X59884145Y-122122544D01*
X59969655Y-122073175D01*
X59989400Y-122053430D01*
X59989400Y-123148099D01*
X60139372Y-123148099D01*
X60139386Y-123148098D01*
X60242097Y-123137605D01*
X60408519Y-123082458D01*
X60408524Y-123082456D01*
X60557745Y-122990415D01*
X60681715Y-122866445D01*
X60721345Y-122802194D01*
X60773293Y-122755468D01*
X60842255Y-122744245D01*
X60906337Y-122772088D01*
X60914566Y-122779608D01*
X61022472Y-122887514D01*
X61162612Y-122989332D01*
X61316955Y-123067973D01*
X61481699Y-123121502D01*
X61652789Y-123148600D01*
X61652790Y-123148600D01*
X61826010Y-123148600D01*
X61826011Y-123148600D01*
X61997101Y-123121502D01*
X62161845Y-123067973D01*
X62316188Y-122989332D01*
X62456328Y-122887514D01*
X62578814Y-122765028D01*
X62680632Y-122624888D01*
X62759273Y-122470545D01*
X62812802Y-122305801D01*
X62839900Y-122134711D01*
X62839900Y-121411489D01*
X62812802Y-121240399D01*
X62759273Y-121075655D01*
X62680632Y-120921312D01*
X62578814Y-120781172D01*
X62456328Y-120658686D01*
X62316188Y-120556868D01*
X62161845Y-120478227D01*
X61997101Y-120424698D01*
X61997099Y-120424697D01*
X61997098Y-120424697D01*
X61863445Y-120403529D01*
X61826011Y-120397600D01*
X61652789Y-120397600D01*
X61615355Y-120403529D01*
X61481702Y-120424697D01*
X61316952Y-120478228D01*
X61162611Y-120556868D01*
X61022473Y-120658685D01*
X60914566Y-120766592D01*
X60853243Y-120800076D01*
X60783551Y-120795092D01*
X60727618Y-120753220D01*
X60721346Y-120744006D01*
X60681717Y-120679756D01*
X60557745Y-120555784D01*
X60408524Y-120463743D01*
X60408519Y-120463741D01*
X60242097Y-120408594D01*
X60242090Y-120408593D01*
X60139386Y-120398100D01*
X59989400Y-120398100D01*
X59989400Y-121492770D01*
X59969655Y-121473025D01*
X59884145Y-121423656D01*
X59788770Y-121398100D01*
X59690030Y-121398100D01*
X59594655Y-121423656D01*
X59509145Y-121473025D01*
X59489400Y-121492770D01*
X59489400Y-120398100D01*
X59339427Y-120398100D01*
X59339412Y-120398101D01*
X59236702Y-120408594D01*
X59070280Y-120463741D01*
X59070275Y-120463743D01*
X58921054Y-120555784D01*
X58797084Y-120679754D01*
X58705043Y-120828975D01*
X58705041Y-120828980D01*
X58649894Y-120995402D01*
X58649893Y-120995409D01*
X58639400Y-121098113D01*
X55727500Y-121098113D01*
X55727500Y-98654753D01*
X55747185Y-98587714D01*
X55763819Y-98567072D01*
X57229707Y-97101184D01*
X58789545Y-95541346D01*
X58850866Y-95507863D01*
X58920558Y-95512847D01*
X58964905Y-95541348D01*
X60069571Y-96646014D01*
X60103056Y-96707337D01*
X60098072Y-96777029D01*
X60056200Y-96832962D01*
X60047862Y-96838689D01*
X59997737Y-96870184D01*
X59870184Y-96997737D01*
X59774211Y-97150476D01*
X59714631Y-97320745D01*
X59714630Y-97320750D01*
X59694435Y-97499996D01*
X59694435Y-97500003D01*
X59714630Y-97679249D01*
X59714631Y-97679254D01*
X59774211Y-97849523D01*
X59841948Y-97957325D01*
X59870184Y-98002262D01*
X59997738Y-98129816D01*
X60068448Y-98174246D01*
X60132721Y-98214632D01*
X60150478Y-98225789D01*
X60213202Y-98247737D01*
X60320745Y-98285368D01*
X60320750Y-98285369D01*
X60499996Y-98305565D01*
X60500000Y-98305565D01*
X60500002Y-98305565D01*
X60547493Y-98300213D01*
X60621297Y-98291898D01*
X60690118Y-98303952D01*
X60722861Y-98327437D01*
X62172562Y-99777138D01*
X62206047Y-99838461D01*
X62208101Y-99878702D01*
X62194435Y-99999996D01*
X62194435Y-100000003D01*
X62214630Y-100179249D01*
X62214631Y-100179254D01*
X62274211Y-100349523D01*
X62346211Y-100464109D01*
X62370184Y-100502262D01*
X62497738Y-100629816D01*
X62514473Y-100640331D01*
X62560762Y-100692663D01*
X62572500Y-100745324D01*
X62572500Y-101271561D01*
X62552815Y-101338600D01*
X62536181Y-101359242D01*
X59222860Y-104672562D01*
X59161537Y-104706047D01*
X59121296Y-104708101D01*
X59000004Y-104694435D01*
X58999996Y-104694435D01*
X58820750Y-104714630D01*
X58820745Y-104714631D01*
X58650476Y-104774211D01*
X58497737Y-104870184D01*
X58370184Y-104997737D01*
X58274211Y-105150476D01*
X58214631Y-105320745D01*
X58214630Y-105320750D01*
X58194435Y-105499996D01*
X58194435Y-105500003D01*
X58214630Y-105679249D01*
X58214631Y-105679254D01*
X58274211Y-105849523D01*
X58370184Y-106002262D01*
X58497738Y-106129816D01*
X58650478Y-106225789D01*
X58820745Y-106285368D01*
X58820750Y-106285369D01*
X58999996Y-106305565D01*
X59000000Y-106305565D01*
X59000004Y-106305565D01*
X59179249Y-106285369D01*
X59179252Y-106285368D01*
X59179255Y-106285368D01*
X59349522Y-106225789D01*
X59502262Y-106129816D01*
X59629816Y-106002262D01*
X59725789Y-105849522D01*
X59785368Y-105679255D01*
X59805565Y-105500000D01*
X59791898Y-105378701D01*
X59803952Y-105309880D01*
X59827434Y-105277140D01*
X63087821Y-102016754D01*
X63149142Y-101983271D01*
X63218834Y-101988255D01*
X63274767Y-102030127D01*
X63299184Y-102095591D01*
X63299500Y-102104437D01*
X63299500Y-110817543D01*
X63334136Y-110901160D01*
X64736181Y-112303204D01*
X64769666Y-112364527D01*
X64772500Y-112390885D01*
X64772500Y-122643531D01*
X64752815Y-122710570D01*
X64700011Y-122756325D01*
X64689455Y-122760572D01*
X64650479Y-122774210D01*
X64650475Y-122774212D01*
X64497737Y-122870184D01*
X64370184Y-122997737D01*
X64274211Y-123150476D01*
X64214631Y-123320745D01*
X64214630Y-123320750D01*
X64194435Y-123499996D01*
X64194435Y-123500003D01*
X64214630Y-123679249D01*
X64214631Y-123679254D01*
X64274211Y-123849523D01*
X64288562Y-123872362D01*
X64370184Y-124002262D01*
X64497738Y-124129816D01*
X64650478Y-124225789D01*
X64811177Y-124282020D01*
X64820745Y-124285368D01*
X64820750Y-124285369D01*
X64999996Y-124305565D01*
X65000000Y-124305565D01*
X65000004Y-124305565D01*
X65179249Y-124285369D01*
X65179252Y-124285368D01*
X65179255Y-124285368D01*
X65349522Y-124225789D01*
X65502262Y-124129816D01*
X65629816Y-124002262D01*
X65725789Y-123849522D01*
X65785368Y-123679255D01*
X65801238Y-123538403D01*
X65805565Y-123500003D01*
X65805565Y-123499996D01*
X65785369Y-123320750D01*
X65785368Y-123320745D01*
X65765440Y-123263793D01*
X65725789Y-123150478D01*
X65717700Y-123137605D01*
X65629815Y-122997737D01*
X65502262Y-122870184D01*
X65349524Y-122774212D01*
X65349520Y-122774210D01*
X65310545Y-122760572D01*
X65253769Y-122719850D01*
X65228022Y-122654897D01*
X65227500Y-122643531D01*
X65227500Y-112200038D01*
X65227500Y-112200037D01*
X65215356Y-112170719D01*
X65192866Y-112116422D01*
X63790819Y-110714375D01*
X63757334Y-110653052D01*
X63754500Y-110626694D01*
X63754500Y-101885576D01*
X63774185Y-101818537D01*
X63826989Y-101772782D01*
X63892383Y-101762356D01*
X64053996Y-101780565D01*
X64054000Y-101780565D01*
X64054004Y-101780565D01*
X64233249Y-101760369D01*
X64233252Y-101760368D01*
X64233255Y-101760368D01*
X64403522Y-101700789D01*
X64556262Y-101604816D01*
X64587819Y-101573259D01*
X64649142Y-101539774D01*
X64718834Y-101544758D01*
X64774767Y-101586630D01*
X64799184Y-101652094D01*
X64799500Y-101660940D01*
X64799500Y-108481747D01*
X64799500Y-108572253D01*
X64831902Y-108650478D01*
X64834136Y-108655870D01*
X77733252Y-121554985D01*
X77766737Y-121616308D01*
X77762613Y-121683620D01*
X77714632Y-121820742D01*
X77714630Y-121820750D01*
X77694435Y-121999996D01*
X77694435Y-122000003D01*
X77714630Y-122179249D01*
X77714631Y-122179254D01*
X77774211Y-122349523D01*
X77824358Y-122429331D01*
X77870184Y-122502262D01*
X77997738Y-122629816D01*
X78150478Y-122725789D01*
X78282793Y-122772088D01*
X78320745Y-122785368D01*
X78320750Y-122785369D01*
X78499996Y-122805565D01*
X78500000Y-122805565D01*
X78500004Y-122805565D01*
X78679249Y-122785369D01*
X78679252Y-122785368D01*
X78679255Y-122785368D01*
X78849522Y-122725789D01*
X79002262Y-122629816D01*
X79129816Y-122502262D01*
X79225789Y-122349522D01*
X79285368Y-122179255D01*
X79285369Y-122179249D01*
X79305565Y-122000003D01*
X79305565Y-121999997D01*
X79298285Y-121935389D01*
X79310339Y-121866567D01*
X79357688Y-121815188D01*
X79425298Y-121797563D01*
X79435385Y-121798284D01*
X79461857Y-121801267D01*
X79499998Y-121805565D01*
X79500000Y-121805565D01*
X79500004Y-121805565D01*
X79661617Y-121787356D01*
X79730439Y-121799411D01*
X79781818Y-121846760D01*
X79799500Y-121910576D01*
X79799500Y-128877404D01*
X79779815Y-128944443D01*
X79763181Y-128965085D01*
X76945013Y-131783252D01*
X76883690Y-131816737D01*
X76816377Y-131812613D01*
X76679254Y-131764631D01*
X76679249Y-131764630D01*
X76500004Y-131744435D01*
X76499996Y-131744435D01*
X76320750Y-131764630D01*
X76320745Y-131764631D01*
X76150476Y-131824211D01*
X75997737Y-131920184D01*
X75870184Y-132047737D01*
X75774211Y-132200476D01*
X75714631Y-132370745D01*
X75714630Y-132370750D01*
X75694435Y-132549996D01*
X75694435Y-132550003D01*
X75714630Y-132729249D01*
X75714631Y-132729254D01*
X75774211Y-132899523D01*
X75819578Y-132971723D01*
X75870184Y-133052262D01*
X75997738Y-133179816D01*
X76150478Y-133275789D01*
X76320745Y-133335368D01*
X76320750Y-133335369D01*
X76499996Y-133355565D01*
X76500000Y-133355565D01*
X76500004Y-133355565D01*
X76679249Y-133335369D01*
X76679252Y-133335368D01*
X76679255Y-133335368D01*
X76849522Y-133275789D01*
X77002262Y-133179816D01*
X77129816Y-133052262D01*
X77225789Y-132899522D01*
X77285368Y-132729255D01*
X77305565Y-132550000D01*
X77285368Y-132370745D01*
X77237386Y-132233620D01*
X77233825Y-132163841D01*
X77266745Y-132104986D01*
X79399515Y-129972217D01*
X108244859Y-129972217D01*
X108244859Y-129972228D01*
X108265385Y-130219952D01*
X108265387Y-130219961D01*
X108326412Y-130460940D01*
X108426266Y-130688587D01*
X108526564Y-130842105D01*
X109226212Y-130142457D01*
X109237482Y-130184515D01*
X109309890Y-130309931D01*
X109412292Y-130412333D01*
X109537708Y-130484741D01*
X109579765Y-130496010D01*
X108879942Y-131195832D01*
X108926768Y-131232278D01*
X108926770Y-131232279D01*
X109145385Y-131350587D01*
X109145396Y-131350592D01*
X109380506Y-131431306D01*
X109625707Y-131472223D01*
X109874293Y-131472223D01*
X110119493Y-131431306D01*
X110354603Y-131350592D01*
X110354614Y-131350587D01*
X110573228Y-131232280D01*
X110573231Y-131232278D01*
X110620056Y-131195832D01*
X109920234Y-130496010D01*
X109962292Y-130484741D01*
X110087708Y-130412333D01*
X110190110Y-130309931D01*
X110262518Y-130184515D01*
X110273787Y-130142458D01*
X110973434Y-130842105D01*
X111073731Y-130688592D01*
X111173587Y-130460940D01*
X111234612Y-130219961D01*
X111234614Y-130219952D01*
X111255141Y-129972228D01*
X111255141Y-129972217D01*
X114744859Y-129972217D01*
X114744859Y-129972228D01*
X114765385Y-130219952D01*
X114765387Y-130219961D01*
X114826412Y-130460940D01*
X114926266Y-130688587D01*
X115026564Y-130842105D01*
X115726212Y-130142457D01*
X115737482Y-130184515D01*
X115809890Y-130309931D01*
X115912292Y-130412333D01*
X116037708Y-130484741D01*
X116079765Y-130496010D01*
X115379942Y-131195832D01*
X115426768Y-131232278D01*
X115426770Y-131232279D01*
X115645385Y-131350587D01*
X115645396Y-131350592D01*
X115880506Y-131431306D01*
X116125707Y-131472223D01*
X116374293Y-131472223D01*
X116619493Y-131431306D01*
X116854603Y-131350592D01*
X116854614Y-131350587D01*
X117073228Y-131232280D01*
X117073231Y-131232278D01*
X117120056Y-131195832D01*
X116420234Y-130496010D01*
X116462292Y-130484741D01*
X116587708Y-130412333D01*
X116690110Y-130309931D01*
X116762518Y-130184515D01*
X116773787Y-130142458D01*
X117473434Y-130842105D01*
X117573731Y-130688592D01*
X117673587Y-130460940D01*
X117734612Y-130219961D01*
X117734614Y-130219952D01*
X117755141Y-129972228D01*
X117755141Y-129972217D01*
X117734614Y-129724493D01*
X117734612Y-129724484D01*
X117673587Y-129483505D01*
X117573731Y-129255853D01*
X117473434Y-129102339D01*
X116773787Y-129801987D01*
X116762518Y-129759931D01*
X116690110Y-129634515D01*
X116587708Y-129532113D01*
X116462292Y-129459705D01*
X116420235Y-129448435D01*
X117120057Y-128748613D01*
X117120056Y-128748612D01*
X117073229Y-128712166D01*
X116854614Y-128593858D01*
X116854603Y-128593853D01*
X116619493Y-128513139D01*
X116374293Y-128472223D01*
X116125707Y-128472223D01*
X115880506Y-128513139D01*
X115645396Y-128593853D01*
X115645390Y-128593855D01*
X115426761Y-128712172D01*
X115379942Y-128748611D01*
X115379942Y-128748613D01*
X116079765Y-129448435D01*
X116037708Y-129459705D01*
X115912292Y-129532113D01*
X115809890Y-129634515D01*
X115737482Y-129759931D01*
X115726212Y-129801987D01*
X115026564Y-129102339D01*
X114926267Y-129255855D01*
X114826412Y-129483505D01*
X114765387Y-129724484D01*
X114765385Y-129724493D01*
X114744859Y-129972217D01*
X111255141Y-129972217D01*
X111234614Y-129724493D01*
X111234612Y-129724484D01*
X111173587Y-129483505D01*
X111073731Y-129255853D01*
X110973434Y-129102339D01*
X110273787Y-129801987D01*
X110262518Y-129759931D01*
X110190110Y-129634515D01*
X110087708Y-129532113D01*
X109962292Y-129459705D01*
X109920235Y-129448435D01*
X110620057Y-128748613D01*
X110620056Y-128748612D01*
X110573229Y-128712166D01*
X110354614Y-128593858D01*
X110354603Y-128593853D01*
X110119493Y-128513139D01*
X109874293Y-128472223D01*
X109625707Y-128472223D01*
X109380506Y-128513139D01*
X109145396Y-128593853D01*
X109145390Y-128593855D01*
X108926761Y-128712172D01*
X108879942Y-128748611D01*
X108879942Y-128748613D01*
X109579765Y-129448435D01*
X109537708Y-129459705D01*
X109412292Y-129532113D01*
X109309890Y-129634515D01*
X109237482Y-129759931D01*
X109226212Y-129801987D01*
X108526564Y-129102339D01*
X108426267Y-129255855D01*
X108326412Y-129483505D01*
X108265387Y-129724484D01*
X108265385Y-129724493D01*
X108244859Y-129972217D01*
X79399515Y-129972217D01*
X80219865Y-129151868D01*
X80220441Y-129150478D01*
X80254500Y-129068253D01*
X80254500Y-123444440D01*
X108244357Y-123444440D01*
X108244357Y-123444451D01*
X108264890Y-123692258D01*
X108264892Y-123692270D01*
X108325936Y-123933327D01*
X108425826Y-124161052D01*
X108561833Y-124369228D01*
X108561836Y-124369231D01*
X108730256Y-124552184D01*
X108926491Y-124704920D01*
X109145190Y-124823274D01*
X109380386Y-124904017D01*
X109625665Y-124944946D01*
X109874335Y-124944946D01*
X110119614Y-124904017D01*
X110354810Y-124823274D01*
X110573509Y-124704920D01*
X110769744Y-124552184D01*
X110938164Y-124369231D01*
X111074173Y-124161053D01*
X111174063Y-123933327D01*
X111235108Y-123692267D01*
X111236186Y-123679255D01*
X111255643Y-123444451D01*
X111255643Y-123444440D01*
X114744357Y-123444440D01*
X114744357Y-123444451D01*
X114764890Y-123692258D01*
X114764892Y-123692270D01*
X114825936Y-123933327D01*
X114925826Y-124161052D01*
X115061833Y-124369228D01*
X115061836Y-124369231D01*
X115230256Y-124552184D01*
X115426491Y-124704920D01*
X115645190Y-124823274D01*
X115880386Y-124904017D01*
X116125665Y-124944946D01*
X116374335Y-124944946D01*
X116619614Y-124904017D01*
X116854810Y-124823274D01*
X117073509Y-124704920D01*
X117269744Y-124552184D01*
X117438164Y-124369231D01*
X117574173Y-124161053D01*
X117674063Y-123933327D01*
X117735108Y-123692267D01*
X117736186Y-123679255D01*
X117755643Y-123444451D01*
X117755643Y-123444440D01*
X117735109Y-123196633D01*
X117735107Y-123196621D01*
X117674063Y-122955564D01*
X117574173Y-122727839D01*
X117438166Y-122519663D01*
X117392951Y-122470547D01*
X117269744Y-122336708D01*
X117073509Y-122183972D01*
X117073507Y-122183971D01*
X117073506Y-122183970D01*
X116854811Y-122065618D01*
X116854802Y-122065615D01*
X116619616Y-121984875D01*
X116374335Y-121943946D01*
X116125665Y-121943946D01*
X115880383Y-121984875D01*
X115645197Y-122065615D01*
X115645188Y-122065618D01*
X115426493Y-122183970D01*
X115230257Y-122336707D01*
X115061833Y-122519663D01*
X114925826Y-122727839D01*
X114825936Y-122955564D01*
X114764892Y-123196621D01*
X114764890Y-123196633D01*
X114744357Y-123444440D01*
X111255643Y-123444440D01*
X111235109Y-123196633D01*
X111235107Y-123196621D01*
X111174063Y-122955564D01*
X111074173Y-122727839D01*
X110938166Y-122519663D01*
X110892951Y-122470547D01*
X110769744Y-122336708D01*
X110573509Y-122183972D01*
X110573507Y-122183971D01*
X110573506Y-122183970D01*
X110354811Y-122065618D01*
X110354802Y-122065615D01*
X110119616Y-121984875D01*
X109874335Y-121943946D01*
X109625665Y-121943946D01*
X109380383Y-121984875D01*
X109145197Y-122065615D01*
X109145188Y-122065618D01*
X108926493Y-122183970D01*
X108730257Y-122336707D01*
X108561833Y-122519663D01*
X108425826Y-122727839D01*
X108325936Y-122955564D01*
X108264892Y-123196621D01*
X108264890Y-123196633D01*
X108244357Y-123444440D01*
X80254500Y-123444440D01*
X80254500Y-121288537D01*
X80261459Y-121247582D01*
X80285368Y-121179255D01*
X80290531Y-121133433D01*
X80305565Y-121000003D01*
X80305565Y-120999996D01*
X80285369Y-120820750D01*
X80285368Y-120820745D01*
X80261458Y-120752414D01*
X80254500Y-120711459D01*
X80254500Y-117806748D01*
X80254500Y-117806747D01*
X80219865Y-117723132D01*
X80155868Y-117659135D01*
X79266746Y-116770013D01*
X79233261Y-116708690D01*
X79237385Y-116641380D01*
X79285368Y-116504255D01*
X79285847Y-116500003D01*
X79305565Y-116325003D01*
X79305565Y-116324996D01*
X79285369Y-116145750D01*
X79285368Y-116145745D01*
X79225788Y-115975476D01*
X79129815Y-115822737D01*
X79002262Y-115695184D01*
X78849523Y-115599211D01*
X78679254Y-115539631D01*
X78679249Y-115539630D01*
X78500004Y-115519435D01*
X78499996Y-115519435D01*
X78320750Y-115539630D01*
X78320745Y-115539631D01*
X78150476Y-115599211D01*
X77997737Y-115695184D01*
X77870184Y-115822737D01*
X77774211Y-115975476D01*
X77714631Y-116145745D01*
X77714630Y-116145750D01*
X77694435Y-116324996D01*
X77694435Y-116325003D01*
X77714630Y-116504249D01*
X77714631Y-116504254D01*
X77774211Y-116674523D01*
X77795254Y-116708012D01*
X77870184Y-116827262D01*
X77997738Y-116954816D01*
X78150478Y-117050789D01*
X78320742Y-117110367D01*
X78320745Y-117110368D01*
X78320750Y-117110369D01*
X78499996Y-117130565D01*
X78500000Y-117130565D01*
X78500004Y-117130565D01*
X78679249Y-117110369D01*
X78679252Y-117110368D01*
X78679255Y-117110368D01*
X78679256Y-117110367D01*
X78679259Y-117110367D01*
X78711749Y-117098997D01*
X78816380Y-117062385D01*
X78886155Y-117058823D01*
X78945013Y-117091746D01*
X79763181Y-117909914D01*
X79796666Y-117971237D01*
X79799500Y-117997595D01*
X79799500Y-120089424D01*
X79779815Y-120156463D01*
X79727011Y-120202218D01*
X79661617Y-120212644D01*
X79500004Y-120194435D01*
X79499996Y-120194435D01*
X79320750Y-120214630D01*
X79320742Y-120214632D01*
X79183620Y-120262613D01*
X79113841Y-120266174D01*
X79054985Y-120233252D01*
X76265348Y-117443615D01*
X76231863Y-117382292D01*
X76236847Y-117312600D01*
X76278719Y-117256667D01*
X76312075Y-117238892D01*
X76349522Y-117225789D01*
X76502262Y-117129816D01*
X76629816Y-117002262D01*
X76725789Y-116849522D01*
X76785368Y-116679255D01*
X76785901Y-116674523D01*
X76805565Y-116500003D01*
X76805565Y-116499996D01*
X76785369Y-116320750D01*
X76785368Y-116320745D01*
X76725788Y-116150476D01*
X76629815Y-115997737D01*
X76502262Y-115870184D01*
X76426752Y-115822738D01*
X76358724Y-115779993D01*
X76312434Y-115727659D01*
X76301786Y-115658606D01*
X76330161Y-115594757D01*
X76358723Y-115570007D01*
X76502262Y-115479816D01*
X76629816Y-115352262D01*
X76725789Y-115199522D01*
X76785368Y-115029255D01*
X76802426Y-114877853D01*
X76829492Y-114813441D01*
X76837955Y-114804067D01*
X76893639Y-114748383D01*
X76919130Y-114730301D01*
X76918624Y-114729495D01*
X76924522Y-114725789D01*
X77077262Y-114629816D01*
X77204816Y-114502262D01*
X77300789Y-114349522D01*
X77300789Y-114349521D01*
X77304495Y-114343624D01*
X77305301Y-114344130D01*
X77323386Y-114318637D01*
X77417866Y-114224158D01*
X77452501Y-114140543D01*
X77452501Y-114050037D01*
X77452501Y-110999996D01*
X81694435Y-110999996D01*
X81694435Y-111000003D01*
X81714630Y-111179249D01*
X81714631Y-111179254D01*
X81774211Y-111349523D01*
X81863663Y-111491884D01*
X81870184Y-111502262D01*
X81997738Y-111629816D01*
X82014473Y-111640331D01*
X82060762Y-111692663D01*
X82072500Y-111745324D01*
X82072500Y-111943719D01*
X82072500Y-112056281D01*
X82074030Y-112061991D01*
X82101633Y-112165010D01*
X82104930Y-112170720D01*
X82157915Y-112262491D01*
X82157917Y-112262493D01*
X82263181Y-112367757D01*
X82296666Y-112429080D01*
X82299500Y-112455438D01*
X82299500Y-117134083D01*
X82279815Y-117201122D01*
X82227011Y-117246877D01*
X82216456Y-117251124D01*
X82150476Y-117274211D01*
X82150475Y-117274212D01*
X81997737Y-117370184D01*
X81870184Y-117497737D01*
X81774211Y-117650476D01*
X81714631Y-117820745D01*
X81714630Y-117820750D01*
X81694435Y-117999996D01*
X81694435Y-118000003D01*
X81714630Y-118179249D01*
X81714631Y-118179254D01*
X81774211Y-118349523D01*
X81814034Y-118412900D01*
X81870184Y-118502262D01*
X81997738Y-118629816D01*
X82014473Y-118640331D01*
X82060762Y-118692663D01*
X82072500Y-118745324D01*
X82072500Y-120754675D01*
X82052815Y-120821714D01*
X82014475Y-120859667D01*
X81997739Y-120870183D01*
X81997735Y-120870186D01*
X81870184Y-120997737D01*
X81774211Y-121150476D01*
X81714631Y-121320745D01*
X81714630Y-121320750D01*
X81694435Y-121499996D01*
X81694435Y-121500003D01*
X81714630Y-121679249D01*
X81714631Y-121679254D01*
X81774211Y-121849523D01*
X81859259Y-121984875D01*
X81870184Y-122002262D01*
X81997738Y-122129816D01*
X82150478Y-122225789D01*
X82320745Y-122285368D01*
X82320750Y-122285369D01*
X82499996Y-122305565D01*
X82500000Y-122305565D01*
X82500004Y-122305565D01*
X82679249Y-122285369D01*
X82679252Y-122285368D01*
X82679255Y-122285368D01*
X82849522Y-122225789D01*
X83002262Y-122129816D01*
X83129816Y-122002262D01*
X83225789Y-121849522D01*
X83285368Y-121679255D01*
X83285369Y-121679249D01*
X83305565Y-121500003D01*
X83305565Y-121499996D01*
X83285369Y-121320750D01*
X83285368Y-121320745D01*
X83257254Y-121240399D01*
X83225789Y-121150478D01*
X83129816Y-120997738D01*
X83002262Y-120870184D01*
X82993602Y-120864742D01*
X82985525Y-120859667D01*
X82939235Y-120807331D01*
X82927500Y-120754675D01*
X82927500Y-118944440D01*
X108244859Y-118944440D01*
X108244859Y-118944451D01*
X108265385Y-119192175D01*
X108265387Y-119192184D01*
X108326412Y-119433163D01*
X108426266Y-119660810D01*
X108526564Y-119814328D01*
X109226212Y-119114680D01*
X109237482Y-119156738D01*
X109309890Y-119282154D01*
X109412292Y-119384556D01*
X109537708Y-119456964D01*
X109579765Y-119468233D01*
X108879942Y-120168055D01*
X108926768Y-120204501D01*
X108926770Y-120204502D01*
X109145385Y-120322810D01*
X109145396Y-120322815D01*
X109380506Y-120403529D01*
X109625707Y-120444446D01*
X109874293Y-120444446D01*
X110119493Y-120403529D01*
X110354603Y-120322815D01*
X110354614Y-120322810D01*
X110573228Y-120204503D01*
X110573231Y-120204501D01*
X110620056Y-120168055D01*
X109920234Y-119468233D01*
X109962292Y-119456964D01*
X110087708Y-119384556D01*
X110190110Y-119282154D01*
X110262518Y-119156738D01*
X110273787Y-119114681D01*
X110973434Y-119814328D01*
X111073731Y-119660815D01*
X111173587Y-119433163D01*
X111234612Y-119192184D01*
X111234614Y-119192175D01*
X111255141Y-118944451D01*
X111255141Y-118944440D01*
X114744859Y-118944440D01*
X114744859Y-118944451D01*
X114765385Y-119192175D01*
X114765387Y-119192184D01*
X114826412Y-119433163D01*
X114926266Y-119660810D01*
X115026564Y-119814328D01*
X115726212Y-119114680D01*
X115737482Y-119156738D01*
X115809890Y-119282154D01*
X115912292Y-119384556D01*
X116037708Y-119456964D01*
X116079765Y-119468233D01*
X115379942Y-120168055D01*
X115426768Y-120204501D01*
X115426770Y-120204502D01*
X115645385Y-120322810D01*
X115645396Y-120322815D01*
X115880506Y-120403529D01*
X116125707Y-120444446D01*
X116374293Y-120444446D01*
X116619493Y-120403529D01*
X116854603Y-120322815D01*
X116854614Y-120322810D01*
X117073228Y-120204503D01*
X117073231Y-120204501D01*
X117120056Y-120168055D01*
X116420234Y-119468233D01*
X116462292Y-119456964D01*
X116587708Y-119384556D01*
X116690110Y-119282154D01*
X116762518Y-119156738D01*
X116773787Y-119114681D01*
X117473434Y-119814328D01*
X117573731Y-119660815D01*
X117673587Y-119433163D01*
X117734612Y-119192184D01*
X117734614Y-119192175D01*
X117755141Y-118944451D01*
X117755141Y-118944440D01*
X117734614Y-118696716D01*
X117734612Y-118696707D01*
X117673587Y-118455728D01*
X117573731Y-118228076D01*
X117473434Y-118074562D01*
X116773787Y-118774210D01*
X116762518Y-118732154D01*
X116690110Y-118606738D01*
X116587708Y-118504336D01*
X116462292Y-118431928D01*
X116420235Y-118420658D01*
X117120057Y-117720836D01*
X117120056Y-117720835D01*
X117073229Y-117684389D01*
X116854614Y-117566081D01*
X116854603Y-117566076D01*
X116619493Y-117485362D01*
X116374293Y-117444446D01*
X116125707Y-117444446D01*
X115880506Y-117485362D01*
X115645396Y-117566076D01*
X115645390Y-117566078D01*
X115426761Y-117684395D01*
X115379942Y-117720834D01*
X115379942Y-117720836D01*
X116079765Y-118420658D01*
X116037708Y-118431928D01*
X115912292Y-118504336D01*
X115809890Y-118606738D01*
X115737482Y-118732154D01*
X115726212Y-118774210D01*
X115026564Y-118074562D01*
X114926267Y-118228078D01*
X114826412Y-118455728D01*
X114765387Y-118696707D01*
X114765385Y-118696716D01*
X114744859Y-118944440D01*
X111255141Y-118944440D01*
X111234614Y-118696716D01*
X111234612Y-118696707D01*
X111173587Y-118455728D01*
X111073731Y-118228076D01*
X110973434Y-118074562D01*
X110273787Y-118774210D01*
X110262518Y-118732154D01*
X110190110Y-118606738D01*
X110087708Y-118504336D01*
X109962292Y-118431928D01*
X109920235Y-118420658D01*
X110620057Y-117720836D01*
X110620056Y-117720835D01*
X110573229Y-117684389D01*
X110354614Y-117566081D01*
X110354603Y-117566076D01*
X110119493Y-117485362D01*
X109874293Y-117444446D01*
X109625707Y-117444446D01*
X109380506Y-117485362D01*
X109145396Y-117566076D01*
X109145390Y-117566078D01*
X108926761Y-117684395D01*
X108879942Y-117720834D01*
X108879942Y-117720836D01*
X109579765Y-118420658D01*
X109537708Y-118431928D01*
X109412292Y-118504336D01*
X109309890Y-118606738D01*
X109237482Y-118732154D01*
X109226212Y-118774210D01*
X108526564Y-118074562D01*
X108426267Y-118228078D01*
X108326412Y-118455728D01*
X108265387Y-118696707D01*
X108265385Y-118696716D01*
X108244859Y-118944440D01*
X82927500Y-118944440D01*
X82927500Y-118745324D01*
X82947185Y-118678285D01*
X82985526Y-118640331D01*
X83002262Y-118629816D01*
X83129816Y-118502262D01*
X83225789Y-118349522D01*
X83285368Y-118179255D01*
X83305565Y-118000000D01*
X83302324Y-117971237D01*
X83285369Y-117820750D01*
X83285366Y-117820737D01*
X83225790Y-117650481D01*
X83225789Y-117650478D01*
X83205473Y-117618145D01*
X83173506Y-117567269D01*
X83154500Y-117501297D01*
X83154500Y-112416663D01*
X108244357Y-112416663D01*
X108244357Y-112416674D01*
X108264890Y-112664481D01*
X108264892Y-112664493D01*
X108325936Y-112905550D01*
X108425826Y-113133275D01*
X108561833Y-113341451D01*
X108561836Y-113341454D01*
X108730256Y-113524407D01*
X108926491Y-113677143D01*
X109145190Y-113795497D01*
X109380386Y-113876240D01*
X109625665Y-113917169D01*
X109874335Y-113917169D01*
X110119614Y-113876240D01*
X110354810Y-113795497D01*
X110573509Y-113677143D01*
X110769744Y-113524407D01*
X110938164Y-113341454D01*
X111074173Y-113133276D01*
X111174063Y-112905550D01*
X111235108Y-112664490D01*
X111255643Y-112416669D01*
X111255643Y-112416663D01*
X114744357Y-112416663D01*
X114744357Y-112416674D01*
X114764890Y-112664481D01*
X114764892Y-112664493D01*
X114825936Y-112905550D01*
X114925826Y-113133275D01*
X115061833Y-113341451D01*
X115061836Y-113341454D01*
X115230256Y-113524407D01*
X115426491Y-113677143D01*
X115645190Y-113795497D01*
X115880386Y-113876240D01*
X116125665Y-113917169D01*
X116374335Y-113917169D01*
X116619614Y-113876240D01*
X116854810Y-113795497D01*
X117073509Y-113677143D01*
X117269744Y-113524407D01*
X117438164Y-113341454D01*
X117574173Y-113133276D01*
X117674063Y-112905550D01*
X117735108Y-112664490D01*
X117755643Y-112416669D01*
X117753506Y-112390885D01*
X117735109Y-112168856D01*
X117735107Y-112168844D01*
X117674063Y-111927787D01*
X117574173Y-111700062D01*
X117438166Y-111491886D01*
X117416557Y-111468413D01*
X117269744Y-111308931D01*
X117073509Y-111156195D01*
X117073507Y-111156194D01*
X117073506Y-111156193D01*
X116854811Y-111037841D01*
X116854802Y-111037838D01*
X116619616Y-110957098D01*
X116374335Y-110916169D01*
X116125665Y-110916169D01*
X115880383Y-110957098D01*
X115645197Y-111037838D01*
X115645188Y-111037841D01*
X115426493Y-111156193D01*
X115230257Y-111308930D01*
X115061833Y-111491886D01*
X114925826Y-111700062D01*
X114825936Y-111927787D01*
X114764892Y-112168844D01*
X114764890Y-112168856D01*
X114744357Y-112416663D01*
X111255643Y-112416663D01*
X111253506Y-112390885D01*
X111235109Y-112168856D01*
X111235107Y-112168844D01*
X111174063Y-111927787D01*
X111074173Y-111700062D01*
X110938166Y-111491886D01*
X110916557Y-111468413D01*
X110769744Y-111308931D01*
X110573509Y-111156195D01*
X110573507Y-111156194D01*
X110573506Y-111156193D01*
X110354811Y-111037841D01*
X110354802Y-111037838D01*
X110119616Y-110957098D01*
X109874335Y-110916169D01*
X109625665Y-110916169D01*
X109380383Y-110957098D01*
X109145197Y-111037838D01*
X109145188Y-111037841D01*
X108926493Y-111156193D01*
X108730257Y-111308930D01*
X108561833Y-111491886D01*
X108425826Y-111700062D01*
X108325936Y-111927787D01*
X108264892Y-112168844D01*
X108264890Y-112168856D01*
X108244357Y-112416663D01*
X83154500Y-112416663D01*
X83154500Y-112170720D01*
X83154500Y-112170719D01*
X83125367Y-112061991D01*
X83069085Y-111964509D01*
X82989491Y-111884915D01*
X82963819Y-111859243D01*
X82930334Y-111797920D01*
X82927500Y-111771562D01*
X82927500Y-111745324D01*
X82947185Y-111678285D01*
X82985526Y-111640331D01*
X83002262Y-111629816D01*
X83129816Y-111502262D01*
X83225789Y-111349522D01*
X83285368Y-111179255D01*
X83285369Y-111179249D01*
X83305565Y-111000003D01*
X83305565Y-110999996D01*
X83285369Y-110820750D01*
X83285368Y-110820745D01*
X83252578Y-110727037D01*
X83225789Y-110650478D01*
X83129816Y-110497738D01*
X83002262Y-110370184D01*
X82849523Y-110274211D01*
X82679254Y-110214631D01*
X82679249Y-110214630D01*
X82500004Y-110194435D01*
X82499996Y-110194435D01*
X82320750Y-110214630D01*
X82320745Y-110214631D01*
X82150476Y-110274211D01*
X81997737Y-110370184D01*
X81870184Y-110497737D01*
X81774211Y-110650476D01*
X81714631Y-110820745D01*
X81714630Y-110820750D01*
X81694435Y-110999996D01*
X77452501Y-110999996D01*
X77452501Y-107916663D01*
X108244859Y-107916663D01*
X108244859Y-107916674D01*
X108265385Y-108164398D01*
X108265387Y-108164407D01*
X108326412Y-108405386D01*
X108426266Y-108633033D01*
X108526564Y-108786551D01*
X109226212Y-108086903D01*
X109237482Y-108128961D01*
X109309890Y-108254377D01*
X109412292Y-108356779D01*
X109537708Y-108429187D01*
X109579765Y-108440456D01*
X108879942Y-109140278D01*
X108926768Y-109176724D01*
X108926770Y-109176725D01*
X109145385Y-109295033D01*
X109145396Y-109295038D01*
X109380506Y-109375752D01*
X109625707Y-109416669D01*
X109874293Y-109416669D01*
X110119493Y-109375752D01*
X110354603Y-109295038D01*
X110354614Y-109295033D01*
X110573228Y-109176726D01*
X110573231Y-109176724D01*
X110620056Y-109140278D01*
X109920234Y-108440456D01*
X109962292Y-108429187D01*
X110087708Y-108356779D01*
X110190110Y-108254377D01*
X110262518Y-108128961D01*
X110273787Y-108086904D01*
X110973434Y-108786551D01*
X111073731Y-108633038D01*
X111173587Y-108405386D01*
X111234612Y-108164407D01*
X111234614Y-108164398D01*
X111255141Y-107916674D01*
X111255141Y-107916663D01*
X114744859Y-107916663D01*
X114744859Y-107916674D01*
X114765385Y-108164398D01*
X114765387Y-108164407D01*
X114826412Y-108405386D01*
X114926266Y-108633033D01*
X115026564Y-108786551D01*
X115726212Y-108086903D01*
X115737482Y-108128961D01*
X115809890Y-108254377D01*
X115912292Y-108356779D01*
X116037708Y-108429187D01*
X116079765Y-108440456D01*
X115379942Y-109140278D01*
X115426768Y-109176724D01*
X115426770Y-109176725D01*
X115645385Y-109295033D01*
X115645396Y-109295038D01*
X115880506Y-109375752D01*
X116125707Y-109416669D01*
X116374293Y-109416669D01*
X116619493Y-109375752D01*
X116854603Y-109295038D01*
X116854614Y-109295033D01*
X117073228Y-109176726D01*
X117073231Y-109176724D01*
X117120056Y-109140278D01*
X116420234Y-108440456D01*
X116462292Y-108429187D01*
X116587708Y-108356779D01*
X116690110Y-108254377D01*
X116762518Y-108128961D01*
X116773787Y-108086904D01*
X117473434Y-108786551D01*
X117573731Y-108633038D01*
X117673587Y-108405386D01*
X117734612Y-108164407D01*
X117734614Y-108164398D01*
X117755141Y-107916674D01*
X117755141Y-107916663D01*
X117734614Y-107668939D01*
X117734612Y-107668930D01*
X117673587Y-107427951D01*
X117573731Y-107200299D01*
X117473434Y-107046785D01*
X116773787Y-107746433D01*
X116762518Y-107704377D01*
X116690110Y-107578961D01*
X116587708Y-107476559D01*
X116462292Y-107404151D01*
X116420235Y-107392881D01*
X117120057Y-106693059D01*
X117120056Y-106693058D01*
X117073229Y-106656612D01*
X116854614Y-106538304D01*
X116854603Y-106538299D01*
X116619493Y-106457585D01*
X116374293Y-106416669D01*
X116125707Y-106416669D01*
X115880506Y-106457585D01*
X115645396Y-106538299D01*
X115645390Y-106538301D01*
X115426761Y-106656618D01*
X115379942Y-106693057D01*
X115379942Y-106693059D01*
X116079765Y-107392881D01*
X116037708Y-107404151D01*
X115912292Y-107476559D01*
X115809890Y-107578961D01*
X115737482Y-107704377D01*
X115726212Y-107746433D01*
X115026564Y-107046785D01*
X114926267Y-107200301D01*
X114826412Y-107427951D01*
X114765387Y-107668930D01*
X114765385Y-107668939D01*
X114744859Y-107916663D01*
X111255141Y-107916663D01*
X111234614Y-107668939D01*
X111234612Y-107668930D01*
X111173587Y-107427951D01*
X111073731Y-107200299D01*
X110973434Y-107046785D01*
X110273787Y-107746433D01*
X110262518Y-107704377D01*
X110190110Y-107578961D01*
X110087708Y-107476559D01*
X109962292Y-107404151D01*
X109920235Y-107392881D01*
X110620057Y-106693059D01*
X110620056Y-106693058D01*
X110573229Y-106656612D01*
X110354614Y-106538304D01*
X110354603Y-106538299D01*
X110119493Y-106457585D01*
X109874293Y-106416669D01*
X109625707Y-106416669D01*
X109380506Y-106457585D01*
X109145396Y-106538299D01*
X109145390Y-106538301D01*
X108926761Y-106656618D01*
X108879942Y-106693057D01*
X108879942Y-106693059D01*
X109579765Y-107392881D01*
X109537708Y-107404151D01*
X109412292Y-107476559D01*
X109309890Y-107578961D01*
X109237482Y-107704377D01*
X109226212Y-107746433D01*
X108526564Y-107046785D01*
X108426267Y-107200301D01*
X108326412Y-107427951D01*
X108265387Y-107668930D01*
X108265385Y-107668939D01*
X108244859Y-107916663D01*
X77452501Y-107916663D01*
X77452501Y-101388886D01*
X108244357Y-101388886D01*
X108244357Y-101388897D01*
X108264890Y-101636704D01*
X108264892Y-101636716D01*
X108325936Y-101877773D01*
X108425826Y-102105498D01*
X108561833Y-102313674D01*
X108561836Y-102313677D01*
X108730256Y-102496630D01*
X108926491Y-102649366D01*
X109145190Y-102767720D01*
X109380386Y-102848463D01*
X109625665Y-102889392D01*
X109874335Y-102889392D01*
X110119614Y-102848463D01*
X110354810Y-102767720D01*
X110573509Y-102649366D01*
X110769744Y-102496630D01*
X110938164Y-102313677D01*
X111074173Y-102105499D01*
X111174063Y-101877773D01*
X111235108Y-101636713D01*
X111243141Y-101539774D01*
X111255643Y-101388897D01*
X111255643Y-101388886D01*
X114744357Y-101388886D01*
X114744357Y-101388897D01*
X114764890Y-101636704D01*
X114764892Y-101636716D01*
X114825936Y-101877773D01*
X114925826Y-102105498D01*
X115061833Y-102313674D01*
X115061836Y-102313677D01*
X115230256Y-102496630D01*
X115426491Y-102649366D01*
X115645190Y-102767720D01*
X115880386Y-102848463D01*
X116125665Y-102889392D01*
X116374335Y-102889392D01*
X116619614Y-102848463D01*
X116854810Y-102767720D01*
X117073509Y-102649366D01*
X117269744Y-102496630D01*
X117438164Y-102313677D01*
X117574173Y-102105499D01*
X117674063Y-101877773D01*
X117735108Y-101636713D01*
X117743141Y-101539774D01*
X117755643Y-101388897D01*
X117755643Y-101388886D01*
X117735109Y-101141079D01*
X117735107Y-101141067D01*
X117674063Y-100900010D01*
X117574173Y-100672285D01*
X117438166Y-100464109D01*
X117416557Y-100440636D01*
X117269744Y-100281154D01*
X117073509Y-100128418D01*
X117073507Y-100128417D01*
X117073506Y-100128416D01*
X116854811Y-100010064D01*
X116854802Y-100010061D01*
X116619616Y-99929321D01*
X116374335Y-99888392D01*
X116125665Y-99888392D01*
X115880383Y-99929321D01*
X115645197Y-100010061D01*
X115645188Y-100010064D01*
X115426493Y-100128416D01*
X115230257Y-100281153D01*
X115061833Y-100464109D01*
X114925826Y-100672285D01*
X114825936Y-100900010D01*
X114764892Y-101141067D01*
X114764890Y-101141079D01*
X114744357Y-101388886D01*
X111255643Y-101388886D01*
X111235109Y-101141079D01*
X111235107Y-101141067D01*
X111174063Y-100900010D01*
X111074173Y-100672285D01*
X110938166Y-100464109D01*
X110916557Y-100440636D01*
X110769744Y-100281154D01*
X110573509Y-100128418D01*
X110573507Y-100128417D01*
X110573506Y-100128416D01*
X110354811Y-100010064D01*
X110354802Y-100010061D01*
X110119616Y-99929321D01*
X109874335Y-99888392D01*
X109625665Y-99888392D01*
X109380383Y-99929321D01*
X109145197Y-100010061D01*
X109145188Y-100010064D01*
X108926493Y-100128416D01*
X108730257Y-100281153D01*
X108561833Y-100464109D01*
X108425826Y-100672285D01*
X108325936Y-100900010D01*
X108264892Y-101141067D01*
X108264890Y-101141079D01*
X108244357Y-101388886D01*
X77452501Y-101388886D01*
X77452501Y-96888886D01*
X108244859Y-96888886D01*
X108244859Y-96888897D01*
X108265385Y-97136621D01*
X108265387Y-97136630D01*
X108326412Y-97377609D01*
X108426266Y-97605256D01*
X108526564Y-97758774D01*
X109226212Y-97059126D01*
X109237482Y-97101184D01*
X109309890Y-97226600D01*
X109412292Y-97329002D01*
X109537708Y-97401410D01*
X109579765Y-97412679D01*
X108879942Y-98112501D01*
X108926768Y-98148947D01*
X108926770Y-98148948D01*
X109145385Y-98267256D01*
X109145396Y-98267261D01*
X109380506Y-98347975D01*
X109625707Y-98388892D01*
X109874293Y-98388892D01*
X110119493Y-98347975D01*
X110354603Y-98267261D01*
X110354614Y-98267256D01*
X110573228Y-98148949D01*
X110573231Y-98148947D01*
X110620056Y-98112501D01*
X109920234Y-97412679D01*
X109962292Y-97401410D01*
X110087708Y-97329002D01*
X110190110Y-97226600D01*
X110262518Y-97101184D01*
X110273787Y-97059127D01*
X110973434Y-97758774D01*
X111073731Y-97605261D01*
X111173587Y-97377609D01*
X111234612Y-97136630D01*
X111234614Y-97136621D01*
X111255141Y-96888897D01*
X111255141Y-96888886D01*
X114744859Y-96888886D01*
X114744859Y-96888897D01*
X114765385Y-97136621D01*
X114765387Y-97136630D01*
X114826412Y-97377609D01*
X114926266Y-97605256D01*
X115026564Y-97758774D01*
X115726212Y-97059126D01*
X115737482Y-97101184D01*
X115809890Y-97226600D01*
X115912292Y-97329002D01*
X116037708Y-97401410D01*
X116079765Y-97412679D01*
X115379942Y-98112501D01*
X115426768Y-98148947D01*
X115426770Y-98148948D01*
X115645385Y-98267256D01*
X115645396Y-98267261D01*
X115880506Y-98347975D01*
X116125707Y-98388892D01*
X116374293Y-98388892D01*
X116619493Y-98347975D01*
X116854603Y-98267261D01*
X116854614Y-98267256D01*
X117073228Y-98148949D01*
X117073231Y-98148947D01*
X117120056Y-98112501D01*
X116420234Y-97412679D01*
X116462292Y-97401410D01*
X116587708Y-97329002D01*
X116690110Y-97226600D01*
X116762518Y-97101184D01*
X116773787Y-97059127D01*
X117473434Y-97758774D01*
X117573731Y-97605261D01*
X117673587Y-97377609D01*
X117734612Y-97136630D01*
X117734614Y-97136621D01*
X117755141Y-96888897D01*
X117755141Y-96888886D01*
X117734614Y-96641162D01*
X117734612Y-96641153D01*
X117673587Y-96400174D01*
X117573731Y-96172522D01*
X117473434Y-96019008D01*
X116773787Y-96718656D01*
X116762518Y-96676600D01*
X116690110Y-96551184D01*
X116587708Y-96448782D01*
X116462292Y-96376374D01*
X116420235Y-96365104D01*
X117120057Y-95665282D01*
X117120056Y-95665281D01*
X117073229Y-95628835D01*
X116854614Y-95510527D01*
X116854603Y-95510522D01*
X116619493Y-95429808D01*
X116374293Y-95388892D01*
X116125707Y-95388892D01*
X115880506Y-95429808D01*
X115645396Y-95510522D01*
X115645390Y-95510524D01*
X115426761Y-95628841D01*
X115379942Y-95665280D01*
X115379942Y-95665282D01*
X116079765Y-96365104D01*
X116037708Y-96376374D01*
X115912292Y-96448782D01*
X115809890Y-96551184D01*
X115737482Y-96676600D01*
X115726212Y-96718656D01*
X115026564Y-96019008D01*
X114926267Y-96172524D01*
X114826412Y-96400174D01*
X114765387Y-96641153D01*
X114765385Y-96641162D01*
X114744859Y-96888886D01*
X111255141Y-96888886D01*
X111234614Y-96641162D01*
X111234612Y-96641153D01*
X111173587Y-96400174D01*
X111073731Y-96172522D01*
X110973434Y-96019008D01*
X110273787Y-96718656D01*
X110262518Y-96676600D01*
X110190110Y-96551184D01*
X110087708Y-96448782D01*
X109962292Y-96376374D01*
X109920235Y-96365104D01*
X110620057Y-95665282D01*
X110620056Y-95665281D01*
X110573229Y-95628835D01*
X110354614Y-95510527D01*
X110354603Y-95510522D01*
X110119493Y-95429808D01*
X109874293Y-95388892D01*
X109625707Y-95388892D01*
X109380506Y-95429808D01*
X109145396Y-95510522D01*
X109145390Y-95510524D01*
X108926761Y-95628841D01*
X108879942Y-95665280D01*
X108879942Y-95665282D01*
X109579765Y-96365104D01*
X109537708Y-96376374D01*
X109412292Y-96448782D01*
X109309890Y-96551184D01*
X109237482Y-96676600D01*
X109226212Y-96718656D01*
X108526564Y-96019008D01*
X108426267Y-96172524D01*
X108326412Y-96400174D01*
X108265387Y-96641153D01*
X108265385Y-96641162D01*
X108244859Y-96888886D01*
X77452501Y-96888886D01*
X77452501Y-91499996D01*
X80694435Y-91499996D01*
X80694435Y-91500003D01*
X80714630Y-91679249D01*
X80714631Y-91679254D01*
X80774211Y-91849523D01*
X80870184Y-92002262D01*
X80997738Y-92129816D01*
X81150478Y-92225789D01*
X81320745Y-92285368D01*
X81320750Y-92285369D01*
X81499996Y-92305565D01*
X81500000Y-92305565D01*
X81500004Y-92305565D01*
X81679249Y-92285369D01*
X81679252Y-92285368D01*
X81679255Y-92285368D01*
X81849522Y-92225789D01*
X82002262Y-92129816D01*
X82129816Y-92002262D01*
X82225789Y-91849522D01*
X82285368Y-91679255D01*
X82285369Y-91679249D01*
X82305565Y-91500003D01*
X82305565Y-91499996D01*
X82285369Y-91320750D01*
X82285368Y-91320745D01*
X82225788Y-91150476D01*
X82129815Y-90997737D01*
X82002262Y-90870184D01*
X81849524Y-90774212D01*
X81849520Y-90774210D01*
X81810545Y-90760572D01*
X81753769Y-90719850D01*
X81728022Y-90654897D01*
X81727500Y-90643531D01*
X81727500Y-90361109D01*
X108244357Y-90361109D01*
X108244357Y-90361120D01*
X108264890Y-90608927D01*
X108264892Y-90608939D01*
X108325936Y-90849996D01*
X108425826Y-91077721D01*
X108561833Y-91285897D01*
X108561836Y-91285900D01*
X108730256Y-91468853D01*
X108926491Y-91621589D01*
X109145190Y-91739943D01*
X109380386Y-91820686D01*
X109625665Y-91861615D01*
X109874335Y-91861615D01*
X110119614Y-91820686D01*
X110354810Y-91739943D01*
X110573509Y-91621589D01*
X110769744Y-91468853D01*
X110938164Y-91285900D01*
X111074173Y-91077722D01*
X111174063Y-90849996D01*
X111235108Y-90608936D01*
X111235109Y-90608927D01*
X111255643Y-90361120D01*
X111255643Y-90361109D01*
X114744357Y-90361109D01*
X114744357Y-90361120D01*
X114764890Y-90608927D01*
X114764892Y-90608939D01*
X114825936Y-90849996D01*
X114925826Y-91077721D01*
X115061833Y-91285897D01*
X115061836Y-91285900D01*
X115230256Y-91468853D01*
X115426491Y-91621589D01*
X115645190Y-91739943D01*
X115880386Y-91820686D01*
X116125665Y-91861615D01*
X116374335Y-91861615D01*
X116619614Y-91820686D01*
X116854810Y-91739943D01*
X117073509Y-91621589D01*
X117269744Y-91468853D01*
X117438164Y-91285900D01*
X117574173Y-91077722D01*
X117674063Y-90849996D01*
X117735108Y-90608936D01*
X117735109Y-90608927D01*
X117755643Y-90361120D01*
X117755643Y-90361109D01*
X117735109Y-90113302D01*
X117735107Y-90113290D01*
X117674063Y-89872233D01*
X117574173Y-89644508D01*
X117438166Y-89436332D01*
X117367281Y-89359331D01*
X117269744Y-89253377D01*
X117073509Y-89100641D01*
X117073507Y-89100640D01*
X117073506Y-89100639D01*
X116854811Y-88982287D01*
X116854802Y-88982284D01*
X116619616Y-88901544D01*
X116374335Y-88860615D01*
X116125665Y-88860615D01*
X115880383Y-88901544D01*
X115645197Y-88982284D01*
X115645188Y-88982287D01*
X115426493Y-89100639D01*
X115230257Y-89253376D01*
X115061833Y-89436332D01*
X114925826Y-89644508D01*
X114825936Y-89872233D01*
X114764892Y-90113290D01*
X114764890Y-90113302D01*
X114744357Y-90361109D01*
X111255643Y-90361109D01*
X111235109Y-90113302D01*
X111235107Y-90113290D01*
X111174063Y-89872233D01*
X111074173Y-89644508D01*
X110938166Y-89436332D01*
X110867281Y-89359331D01*
X110769744Y-89253377D01*
X110573509Y-89100641D01*
X110573507Y-89100640D01*
X110573506Y-89100639D01*
X110354811Y-88982287D01*
X110354802Y-88982284D01*
X110119616Y-88901544D01*
X109874335Y-88860615D01*
X109625665Y-88860615D01*
X109380383Y-88901544D01*
X109145197Y-88982284D01*
X109145188Y-88982287D01*
X108926493Y-89100639D01*
X108730257Y-89253376D01*
X108561833Y-89436332D01*
X108425826Y-89644508D01*
X108325936Y-89872233D01*
X108264892Y-90113290D01*
X108264890Y-90113302D01*
X108244357Y-90361109D01*
X81727500Y-90361109D01*
X81727500Y-86145594D01*
X81747185Y-86078555D01*
X81763814Y-86057918D01*
X81960623Y-85861109D01*
X108244859Y-85861109D01*
X108244859Y-85861120D01*
X108265385Y-86108844D01*
X108265387Y-86108853D01*
X108326412Y-86349832D01*
X108426266Y-86577479D01*
X108526564Y-86730997D01*
X109226212Y-86031349D01*
X109237482Y-86073407D01*
X109309890Y-86198823D01*
X109412292Y-86301225D01*
X109537708Y-86373633D01*
X109579765Y-86384902D01*
X108879942Y-87084724D01*
X108926768Y-87121170D01*
X108926770Y-87121171D01*
X109145385Y-87239479D01*
X109145396Y-87239484D01*
X109380506Y-87320198D01*
X109625707Y-87361115D01*
X109874293Y-87361115D01*
X110119493Y-87320198D01*
X110354603Y-87239484D01*
X110354614Y-87239479D01*
X110573228Y-87121172D01*
X110573231Y-87121170D01*
X110620056Y-87084724D01*
X109920234Y-86384902D01*
X109962292Y-86373633D01*
X110087708Y-86301225D01*
X110190110Y-86198823D01*
X110262518Y-86073407D01*
X110273787Y-86031350D01*
X110973434Y-86730997D01*
X111073731Y-86577484D01*
X111173587Y-86349832D01*
X111234612Y-86108853D01*
X111234614Y-86108844D01*
X111255141Y-85861120D01*
X111255141Y-85861109D01*
X114744859Y-85861109D01*
X114744859Y-85861120D01*
X114765385Y-86108844D01*
X114765387Y-86108853D01*
X114826412Y-86349832D01*
X114926266Y-86577479D01*
X115026564Y-86730997D01*
X115726212Y-86031349D01*
X115737482Y-86073407D01*
X115809890Y-86198823D01*
X115912292Y-86301225D01*
X116037708Y-86373633D01*
X116079765Y-86384902D01*
X115379942Y-87084724D01*
X115426768Y-87121170D01*
X115426770Y-87121171D01*
X115645385Y-87239479D01*
X115645396Y-87239484D01*
X115880506Y-87320198D01*
X116125707Y-87361115D01*
X116374293Y-87361115D01*
X116619493Y-87320198D01*
X116854603Y-87239484D01*
X116854614Y-87239479D01*
X117073228Y-87121172D01*
X117073231Y-87121170D01*
X117120056Y-87084724D01*
X116420234Y-86384902D01*
X116462292Y-86373633D01*
X116587708Y-86301225D01*
X116690110Y-86198823D01*
X116762518Y-86073407D01*
X116773787Y-86031350D01*
X117473434Y-86730997D01*
X117573731Y-86577484D01*
X117673587Y-86349832D01*
X117734612Y-86108853D01*
X117734614Y-86108844D01*
X117755141Y-85861120D01*
X117755141Y-85861109D01*
X117734614Y-85613385D01*
X117734612Y-85613376D01*
X117673587Y-85372397D01*
X117573731Y-85144745D01*
X117473434Y-84991231D01*
X116773787Y-85690879D01*
X116762518Y-85648823D01*
X116690110Y-85523407D01*
X116587708Y-85421005D01*
X116462292Y-85348597D01*
X116420235Y-85337327D01*
X117120057Y-84637505D01*
X117120056Y-84637504D01*
X117073229Y-84601058D01*
X116854614Y-84482750D01*
X116854603Y-84482745D01*
X116619493Y-84402031D01*
X116374293Y-84361115D01*
X116125707Y-84361115D01*
X115880506Y-84402031D01*
X115645396Y-84482745D01*
X115645390Y-84482747D01*
X115426761Y-84601064D01*
X115379942Y-84637503D01*
X115379942Y-84637505D01*
X116079765Y-85337327D01*
X116037708Y-85348597D01*
X115912292Y-85421005D01*
X115809890Y-85523407D01*
X115737482Y-85648823D01*
X115726212Y-85690879D01*
X115026564Y-84991231D01*
X114926267Y-85144747D01*
X114826412Y-85372397D01*
X114765387Y-85613376D01*
X114765385Y-85613385D01*
X114744859Y-85861109D01*
X111255141Y-85861109D01*
X111234614Y-85613385D01*
X111234612Y-85613376D01*
X111173587Y-85372397D01*
X111073731Y-85144745D01*
X110973434Y-84991231D01*
X110273787Y-85690879D01*
X110262518Y-85648823D01*
X110190110Y-85523407D01*
X110087708Y-85421005D01*
X109962292Y-85348597D01*
X109920235Y-85337327D01*
X110620057Y-84637505D01*
X110620056Y-84637504D01*
X110573229Y-84601058D01*
X110354614Y-84482750D01*
X110354603Y-84482745D01*
X110119493Y-84402031D01*
X109874293Y-84361115D01*
X109625707Y-84361115D01*
X109380506Y-84402031D01*
X109145396Y-84482745D01*
X109145390Y-84482747D01*
X108926761Y-84601064D01*
X108879942Y-84637503D01*
X108879942Y-84637505D01*
X109579765Y-85337327D01*
X109537708Y-85348597D01*
X109412292Y-85421005D01*
X109309890Y-85523407D01*
X109237482Y-85648823D01*
X109226212Y-85690879D01*
X108526564Y-84991231D01*
X108426267Y-85144747D01*
X108326412Y-85372397D01*
X108265387Y-85613376D01*
X108265385Y-85613385D01*
X108244859Y-85861109D01*
X81960623Y-85861109D01*
X84054986Y-83766745D01*
X84116307Y-83733262D01*
X84183620Y-83737386D01*
X84320745Y-83785368D01*
X84320750Y-83785369D01*
X84499996Y-83805565D01*
X84500000Y-83805565D01*
X84500004Y-83805565D01*
X84679249Y-83785369D01*
X84679252Y-83785368D01*
X84679255Y-83785368D01*
X84849522Y-83725789D01*
X85002262Y-83629816D01*
X85129816Y-83502262D01*
X85225789Y-83349522D01*
X85285368Y-83179255D01*
X85285369Y-83179249D01*
X85305565Y-83000003D01*
X85305565Y-82999996D01*
X85285369Y-82820750D01*
X85285368Y-82820745D01*
X85282935Y-82813793D01*
X85225789Y-82650478D01*
X85129816Y-82497738D01*
X85002262Y-82370184D01*
X84901922Y-82307136D01*
X84849523Y-82274211D01*
X84679254Y-82214631D01*
X84679249Y-82214630D01*
X84500004Y-82194435D01*
X84499996Y-82194435D01*
X84320750Y-82214630D01*
X84320745Y-82214631D01*
X84150476Y-82274211D01*
X83997737Y-82370184D01*
X83870184Y-82497737D01*
X83774211Y-82650476D01*
X83714631Y-82820745D01*
X83714630Y-82820750D01*
X83694435Y-82999996D01*
X83694435Y-83000003D01*
X83714630Y-83179249D01*
X83714631Y-83179254D01*
X83762613Y-83316377D01*
X83766174Y-83386156D01*
X83733252Y-83445013D01*
X81952480Y-85225787D01*
X81371132Y-85807135D01*
X81307135Y-85871132D01*
X81289154Y-85914542D01*
X81272500Y-85954746D01*
X81272500Y-90643531D01*
X81252815Y-90710570D01*
X81200011Y-90756325D01*
X81189455Y-90760572D01*
X81150479Y-90774210D01*
X81150475Y-90774212D01*
X80997737Y-90870184D01*
X80870184Y-90997737D01*
X80774211Y-91150476D01*
X80714631Y-91320745D01*
X80714630Y-91320750D01*
X80694435Y-91499996D01*
X77452501Y-91499996D01*
X77452501Y-90802253D01*
X77472186Y-90735214D01*
X77488820Y-90714572D01*
X77792816Y-90410576D01*
X78169846Y-90033547D01*
X78169846Y-90033545D01*
X78169848Y-90033544D01*
X78187163Y-89991739D01*
X78204480Y-89949932D01*
X78204480Y-89859426D01*
X78204480Y-86878027D01*
X78169845Y-86794412D01*
X78105848Y-86730415D01*
X76966047Y-85590614D01*
X76932562Y-85529291D01*
X76937546Y-85459599D01*
X76948734Y-85436961D01*
X76958760Y-85421005D01*
X77026310Y-85313500D01*
X77085889Y-85143233D01*
X77087401Y-85129815D01*
X77106086Y-84963981D01*
X77106086Y-84963975D01*
X77100572Y-84915040D01*
X77112626Y-84846218D01*
X77159975Y-84794839D01*
X77182835Y-84784115D01*
X77349522Y-84725789D01*
X77502262Y-84629816D01*
X77629816Y-84502262D01*
X77725789Y-84349522D01*
X77785368Y-84179255D01*
X77786508Y-84169141D01*
X77805565Y-84000003D01*
X77805565Y-83999996D01*
X77785369Y-83820750D01*
X77785368Y-83820745D01*
X77756199Y-83737386D01*
X77725789Y-83650478D01*
X77716804Y-83636179D01*
X77642165Y-83517392D01*
X77629816Y-83497738D01*
X77502262Y-83370184D01*
X77349524Y-83274212D01*
X77349520Y-83274210D01*
X77310545Y-83260572D01*
X77253769Y-83219850D01*
X77228022Y-83154897D01*
X77227500Y-83143531D01*
X77227500Y-82954748D01*
X77227499Y-82954745D01*
X77226830Y-82953131D01*
X77212486Y-82918500D01*
X77192866Y-82871132D01*
X76628868Y-82307135D01*
X76550054Y-82274488D01*
X76495653Y-82230648D01*
X76473589Y-82164354D01*
X76490869Y-82096655D01*
X76509822Y-82072255D01*
X76579816Y-82002262D01*
X76675789Y-81849522D01*
X76735368Y-81679255D01*
X76736514Y-81669084D01*
X76755565Y-81500003D01*
X76755565Y-81499996D01*
X76735369Y-81320750D01*
X76735368Y-81320745D01*
X76675788Y-81150476D01*
X76579815Y-80997737D01*
X76452262Y-80870184D01*
X76299523Y-80774211D01*
X76129254Y-80714631D01*
X76129249Y-80714630D01*
X75950004Y-80694435D01*
X75949996Y-80694435D01*
X75828703Y-80708101D01*
X75759881Y-80696046D01*
X75727139Y-80672562D01*
X74453785Y-79399208D01*
X73144832Y-78090256D01*
X73111348Y-78028934D01*
X73116332Y-77959242D01*
X73158204Y-77903309D01*
X73170513Y-77895189D01*
X73262491Y-77842085D01*
X73367757Y-77736819D01*
X73429080Y-77703334D01*
X73455438Y-77700500D01*
X74699272Y-77700500D01*
X74766311Y-77720185D01*
X74786953Y-77736819D01*
X76363536Y-79313402D01*
X76397021Y-79374725D01*
X76399855Y-79401083D01*
X76399855Y-79511769D01*
X76428988Y-79620499D01*
X76457129Y-79669239D01*
X76485270Y-79717980D01*
X78436374Y-81669085D01*
X78533857Y-81725367D01*
X78642584Y-81754500D01*
X78642585Y-81754500D01*
X78642586Y-81754500D01*
X79357413Y-81754500D01*
X79357415Y-81754500D01*
X79466143Y-81725367D01*
X79563625Y-81669085D01*
X81899378Y-79333332D01*
X108244357Y-79333332D01*
X108244357Y-79333343D01*
X108264890Y-79581150D01*
X108264892Y-79581162D01*
X108325936Y-79822219D01*
X108425826Y-80049944D01*
X108561833Y-80258120D01*
X108561836Y-80258123D01*
X108730256Y-80441076D01*
X108926491Y-80593812D01*
X108926493Y-80593813D01*
X109137678Y-80708101D01*
X109145190Y-80712166D01*
X109380386Y-80792909D01*
X109625665Y-80833838D01*
X109874335Y-80833838D01*
X110119614Y-80792909D01*
X110354810Y-80712166D01*
X110573509Y-80593812D01*
X110769744Y-80441076D01*
X110938164Y-80258123D01*
X111074173Y-80049945D01*
X111174063Y-79822219D01*
X111235108Y-79581159D01*
X111240858Y-79511769D01*
X111255643Y-79333343D01*
X111255643Y-79333332D01*
X114744357Y-79333332D01*
X114744357Y-79333343D01*
X114764890Y-79581150D01*
X114764892Y-79581162D01*
X114825936Y-79822219D01*
X114925826Y-80049944D01*
X115061833Y-80258120D01*
X115061836Y-80258123D01*
X115230256Y-80441076D01*
X115426491Y-80593812D01*
X115426493Y-80593813D01*
X115637678Y-80708101D01*
X115645190Y-80712166D01*
X115880386Y-80792909D01*
X116125665Y-80833838D01*
X116374335Y-80833838D01*
X116619614Y-80792909D01*
X116854810Y-80712166D01*
X117073509Y-80593812D01*
X117269744Y-80441076D01*
X117438164Y-80258123D01*
X117574173Y-80049945D01*
X117674063Y-79822219D01*
X117735108Y-79581159D01*
X117740858Y-79511769D01*
X117755643Y-79333343D01*
X117755643Y-79333332D01*
X117735109Y-79085525D01*
X117735107Y-79085513D01*
X117674063Y-78844456D01*
X117574173Y-78616731D01*
X117438166Y-78408555D01*
X117416557Y-78385082D01*
X117269744Y-78225600D01*
X117073509Y-78072864D01*
X117073507Y-78072863D01*
X117073506Y-78072862D01*
X116854811Y-77954510D01*
X116854802Y-77954507D01*
X116619616Y-77873767D01*
X116374335Y-77832838D01*
X116125665Y-77832838D01*
X115880383Y-77873767D01*
X115645197Y-77954507D01*
X115645188Y-77954510D01*
X115426493Y-78072862D01*
X115230257Y-78225599D01*
X115061833Y-78408555D01*
X114925826Y-78616731D01*
X114825936Y-78844456D01*
X114764892Y-79085513D01*
X114764890Y-79085525D01*
X114744357Y-79333332D01*
X111255643Y-79333332D01*
X111235109Y-79085525D01*
X111235107Y-79085513D01*
X111174063Y-78844456D01*
X111074173Y-78616731D01*
X110938166Y-78408555D01*
X110916557Y-78385082D01*
X110769744Y-78225600D01*
X110573509Y-78072864D01*
X110573507Y-78072863D01*
X110573506Y-78072862D01*
X110354811Y-77954510D01*
X110354802Y-77954507D01*
X110119616Y-77873767D01*
X109874335Y-77832838D01*
X109625665Y-77832838D01*
X109380383Y-77873767D01*
X109145197Y-77954507D01*
X109145188Y-77954510D01*
X108926493Y-78072862D01*
X108730257Y-78225599D01*
X108561833Y-78408555D01*
X108425826Y-78616731D01*
X108325936Y-78844456D01*
X108264892Y-79085513D01*
X108264890Y-79085525D01*
X108244357Y-79333332D01*
X81899378Y-79333332D01*
X82317085Y-78915625D01*
X82373367Y-78818143D01*
X82402500Y-78709415D01*
X82402500Y-78619762D01*
X82422185Y-78552723D01*
X82474093Y-78507381D01*
X82652830Y-78424035D01*
X82846401Y-78288495D01*
X83013495Y-78121401D01*
X83130356Y-77954507D01*
X83143425Y-77935842D01*
X83198002Y-77892217D01*
X83267500Y-77885023D01*
X83329855Y-77916546D01*
X83346575Y-77935842D01*
X83476500Y-78121395D01*
X83476505Y-78121401D01*
X83643599Y-78288495D01*
X83689657Y-78320745D01*
X83837165Y-78424032D01*
X83837167Y-78424033D01*
X83837170Y-78424035D01*
X84051337Y-78523903D01*
X84279592Y-78585063D01*
X84467918Y-78601539D01*
X84514999Y-78605659D01*
X84515000Y-78605659D01*
X84515001Y-78605659D01*
X84554234Y-78602226D01*
X84750408Y-78585063D01*
X84978663Y-78523903D01*
X85192830Y-78424035D01*
X85386401Y-78288495D01*
X85553495Y-78121401D01*
X85683730Y-77935405D01*
X85738307Y-77891781D01*
X85807805Y-77884587D01*
X85870160Y-77916110D01*
X85886879Y-77935405D01*
X86016890Y-78121078D01*
X86183917Y-78288105D01*
X86377421Y-78423600D01*
X86591507Y-78523429D01*
X86591516Y-78523433D01*
X86805000Y-78580634D01*
X86805000Y-77683012D01*
X86862007Y-77715925D01*
X86989174Y-77750000D01*
X87120826Y-77750000D01*
X87247993Y-77715925D01*
X87305000Y-77683012D01*
X87305000Y-78580633D01*
X87518483Y-78523433D01*
X87518492Y-78523429D01*
X87732578Y-78423600D01*
X87926082Y-78288105D01*
X88093105Y-78121082D01*
X88228600Y-77927578D01*
X88328429Y-77713492D01*
X88328432Y-77713486D01*
X88385636Y-77500000D01*
X87488012Y-77500000D01*
X87520925Y-77442993D01*
X87555000Y-77315826D01*
X87555000Y-77184174D01*
X87520925Y-77057007D01*
X87488012Y-77000000D01*
X88385636Y-77000000D01*
X88385635Y-76999999D01*
X88328432Y-76786513D01*
X88328429Y-76786507D01*
X88228600Y-76572422D01*
X88228599Y-76572420D01*
X88093113Y-76378926D01*
X88093108Y-76378920D01*
X87926082Y-76211894D01*
X87739968Y-76081575D01*
X87696344Y-76026998D01*
X87689151Y-75957499D01*
X87720673Y-75895145D01*
X87739968Y-75878425D01*
X87926082Y-75748105D01*
X88093105Y-75581082D01*
X88228600Y-75387578D01*
X88328429Y-75173492D01*
X88328432Y-75173486D01*
X88385636Y-74960000D01*
X87488012Y-74960000D01*
X87520925Y-74902993D01*
X87539591Y-74833332D01*
X108244859Y-74833332D01*
X108244859Y-74833343D01*
X108265385Y-75081067D01*
X108265387Y-75081076D01*
X108326412Y-75322055D01*
X108426266Y-75549702D01*
X108526564Y-75703220D01*
X109226212Y-75003572D01*
X109237482Y-75045630D01*
X109309890Y-75171046D01*
X109412292Y-75273448D01*
X109537708Y-75345856D01*
X109579765Y-75357125D01*
X108879942Y-76056947D01*
X108926768Y-76093393D01*
X108926770Y-76093394D01*
X109145385Y-76211702D01*
X109145396Y-76211707D01*
X109380506Y-76292421D01*
X109625707Y-76333338D01*
X109874293Y-76333338D01*
X110119493Y-76292421D01*
X110354603Y-76211707D01*
X110354614Y-76211702D01*
X110573228Y-76093395D01*
X110573231Y-76093393D01*
X110620056Y-76056947D01*
X109920234Y-75357125D01*
X109962292Y-75345856D01*
X110087708Y-75273448D01*
X110190110Y-75171046D01*
X110262518Y-75045630D01*
X110273787Y-75003573D01*
X110973434Y-75703220D01*
X111073731Y-75549707D01*
X111173587Y-75322055D01*
X111234612Y-75081076D01*
X111234614Y-75081067D01*
X111255141Y-74833343D01*
X111255141Y-74833332D01*
X114744859Y-74833332D01*
X114744859Y-74833343D01*
X114765385Y-75081067D01*
X114765387Y-75081076D01*
X114826412Y-75322055D01*
X114926266Y-75549702D01*
X115026564Y-75703220D01*
X115726212Y-75003572D01*
X115737482Y-75045630D01*
X115809890Y-75171046D01*
X115912292Y-75273448D01*
X116037708Y-75345856D01*
X116079765Y-75357125D01*
X115379942Y-76056947D01*
X115426768Y-76093393D01*
X115426770Y-76093394D01*
X115645385Y-76211702D01*
X115645396Y-76211707D01*
X115880506Y-76292421D01*
X116125707Y-76333338D01*
X116374293Y-76333338D01*
X116619493Y-76292421D01*
X116854603Y-76211707D01*
X116854614Y-76211702D01*
X117073228Y-76093395D01*
X117073231Y-76093393D01*
X117120056Y-76056947D01*
X116420234Y-75357125D01*
X116462292Y-75345856D01*
X116587708Y-75273448D01*
X116690110Y-75171046D01*
X116762518Y-75045630D01*
X116773787Y-75003573D01*
X117473434Y-75703220D01*
X117573731Y-75549707D01*
X117673587Y-75322055D01*
X117734612Y-75081076D01*
X117734614Y-75081067D01*
X117755141Y-74833343D01*
X117755141Y-74833332D01*
X117734614Y-74585608D01*
X117734612Y-74585599D01*
X117673587Y-74344620D01*
X117573731Y-74116968D01*
X117473434Y-73963454D01*
X116773787Y-74663102D01*
X116762518Y-74621046D01*
X116690110Y-74495630D01*
X116587708Y-74393228D01*
X116462292Y-74320820D01*
X116420235Y-74309550D01*
X117120057Y-73609728D01*
X117120056Y-73609727D01*
X117073229Y-73573281D01*
X116854614Y-73454973D01*
X116854603Y-73454968D01*
X116619493Y-73374254D01*
X116374293Y-73333338D01*
X116125707Y-73333338D01*
X115880506Y-73374254D01*
X115645396Y-73454968D01*
X115645390Y-73454970D01*
X115426761Y-73573287D01*
X115379942Y-73609726D01*
X115379942Y-73609728D01*
X116079765Y-74309550D01*
X116037708Y-74320820D01*
X115912292Y-74393228D01*
X115809890Y-74495630D01*
X115737482Y-74621046D01*
X115726212Y-74663102D01*
X115026564Y-73963454D01*
X114926267Y-74116970D01*
X114826412Y-74344620D01*
X114765387Y-74585599D01*
X114765385Y-74585608D01*
X114744859Y-74833332D01*
X111255141Y-74833332D01*
X111234614Y-74585608D01*
X111234612Y-74585599D01*
X111173587Y-74344620D01*
X111073731Y-74116968D01*
X110973434Y-73963454D01*
X110273787Y-74663102D01*
X110262518Y-74621046D01*
X110190110Y-74495630D01*
X110087708Y-74393228D01*
X109962292Y-74320820D01*
X109920235Y-74309550D01*
X110620057Y-73609728D01*
X110620056Y-73609727D01*
X110573229Y-73573281D01*
X110354614Y-73454973D01*
X110354603Y-73454968D01*
X110119493Y-73374254D01*
X109874293Y-73333338D01*
X109625707Y-73333338D01*
X109380506Y-73374254D01*
X109145396Y-73454968D01*
X109145390Y-73454970D01*
X108926761Y-73573287D01*
X108879942Y-73609726D01*
X108879942Y-73609728D01*
X109579765Y-74309550D01*
X109537708Y-74320820D01*
X109412292Y-74393228D01*
X109309890Y-74495630D01*
X109237482Y-74621046D01*
X109226212Y-74663102D01*
X108526564Y-73963454D01*
X108426267Y-74116970D01*
X108326412Y-74344620D01*
X108265387Y-74585599D01*
X108265385Y-74585608D01*
X108244859Y-74833332D01*
X87539591Y-74833332D01*
X87555000Y-74775826D01*
X87555000Y-74644174D01*
X87520925Y-74517007D01*
X87488012Y-74460000D01*
X88385636Y-74460000D01*
X88385635Y-74459999D01*
X88328432Y-74246513D01*
X88328429Y-74246507D01*
X88228600Y-74032422D01*
X88228599Y-74032420D01*
X88093113Y-73838926D01*
X88093108Y-73838920D01*
X87926082Y-73671894D01*
X87732578Y-73536399D01*
X87518492Y-73436570D01*
X87518486Y-73436567D01*
X87305000Y-73379364D01*
X87305000Y-74276988D01*
X87247993Y-74244075D01*
X87120826Y-74210000D01*
X86989174Y-74210000D01*
X86862007Y-74244075D01*
X86805000Y-74276988D01*
X86805000Y-73379364D01*
X86804999Y-73379364D01*
X86591513Y-73436567D01*
X86591507Y-73436570D01*
X86377422Y-73536399D01*
X86377420Y-73536400D01*
X86183926Y-73671886D01*
X86183920Y-73671891D01*
X86016891Y-73838920D01*
X86016890Y-73838922D01*
X85886880Y-74024595D01*
X85832303Y-74068219D01*
X85762804Y-74075412D01*
X85700450Y-74043890D01*
X85683730Y-74024594D01*
X85553494Y-73838597D01*
X85386402Y-73671506D01*
X85386395Y-73671501D01*
X85192834Y-73535967D01*
X85192830Y-73535965D01*
X85192828Y-73535964D01*
X84978663Y-73436097D01*
X84978659Y-73436096D01*
X84978655Y-73436094D01*
X84750413Y-73374938D01*
X84750403Y-73374936D01*
X84515001Y-73354341D01*
X84514999Y-73354341D01*
X84279596Y-73374936D01*
X84279586Y-73374938D01*
X84051344Y-73436094D01*
X84051335Y-73436098D01*
X83837171Y-73535964D01*
X83837169Y-73535965D01*
X83643600Y-73671503D01*
X83521673Y-73793430D01*
X83460350Y-73826914D01*
X83390658Y-73821930D01*
X83334725Y-73780058D01*
X83317810Y-73749081D01*
X83268797Y-73617671D01*
X83268793Y-73617664D01*
X83182547Y-73502455D01*
X83182544Y-73502452D01*
X83067335Y-73416206D01*
X83067328Y-73416202D01*
X82932482Y-73365908D01*
X82932483Y-73365908D01*
X82872883Y-73359501D01*
X82872881Y-73359500D01*
X82872873Y-73359500D01*
X82872864Y-73359500D01*
X81077129Y-73359500D01*
X81077123Y-73359501D01*
X81017516Y-73365908D01*
X80882671Y-73416202D01*
X80882664Y-73416206D01*
X80767455Y-73502452D01*
X80767452Y-73502455D01*
X80681206Y-73617664D01*
X80681202Y-73617671D01*
X80630908Y-73752517D01*
X80624501Y-73812116D01*
X80624500Y-73812135D01*
X80624500Y-75607870D01*
X80624501Y-75607876D01*
X80630908Y-75667483D01*
X80681202Y-75802328D01*
X80681206Y-75802335D01*
X80767452Y-75917544D01*
X80767455Y-75917547D01*
X80882664Y-76003793D01*
X80882671Y-76003797D01*
X81014081Y-76052810D01*
X81070015Y-76094681D01*
X81094432Y-76160145D01*
X81079580Y-76228418D01*
X81058430Y-76256673D01*
X80936503Y-76378600D01*
X80800965Y-76572169D01*
X80800964Y-76572171D01*
X80701098Y-76786335D01*
X80701094Y-76786344D01*
X80639938Y-77014586D01*
X80639936Y-77014596D01*
X80619341Y-77249999D01*
X80619341Y-77250000D01*
X80639936Y-77485403D01*
X80639938Y-77485413D01*
X80701094Y-77713655D01*
X80701096Y-77713659D01*
X80701097Y-77713663D01*
X80781004Y-77885023D01*
X80800965Y-77927830D01*
X80800967Y-77927834D01*
X80839876Y-77983401D01*
X80936505Y-78121401D01*
X81103599Y-78288495D01*
X81149657Y-78320745D01*
X81297165Y-78424032D01*
X81297166Y-78424032D01*
X81297170Y-78424035D01*
X81342872Y-78445346D01*
X81395310Y-78491516D01*
X81414463Y-78558709D01*
X81394248Y-78625590D01*
X81378148Y-78645408D01*
X79853985Y-80169571D01*
X79792662Y-80203056D01*
X79722970Y-80198072D01*
X79667037Y-80156200D01*
X79661310Y-80147861D01*
X79629817Y-80097740D01*
X79629815Y-80097737D01*
X79502262Y-79970184D01*
X79349523Y-79874211D01*
X79179254Y-79814631D01*
X79179249Y-79814630D01*
X79000004Y-79794435D01*
X78999996Y-79794435D01*
X78820750Y-79814630D01*
X78820742Y-79814632D01*
X78683620Y-79862613D01*
X78613841Y-79866174D01*
X78554985Y-79833252D01*
X74028870Y-75307136D01*
X73984239Y-75288649D01*
X73945253Y-75272500D01*
X65045253Y-75272500D01*
X64954747Y-75272500D01*
X64954745Y-75272500D01*
X64954742Y-75272501D01*
X64947523Y-75275491D01*
X64878053Y-75282955D01*
X64856306Y-75275901D01*
X64856094Y-75276510D01*
X64679262Y-75214633D01*
X64679249Y-75214630D01*
X64500004Y-75194435D01*
X64499996Y-75194435D01*
X64320750Y-75214630D01*
X64320742Y-75214632D01*
X64292454Y-75224531D01*
X64222675Y-75228092D01*
X64162048Y-75193363D01*
X64129821Y-75131370D01*
X64127500Y-75107489D01*
X64127500Y-72391460D01*
X64147185Y-72324421D01*
X64199989Y-72278666D01*
X64210530Y-72274424D01*
X64349522Y-72225789D01*
X64502262Y-72129816D01*
X64629816Y-72002262D01*
X64631240Y-71999996D01*
X84194435Y-71999996D01*
X84194435Y-72000003D01*
X84214630Y-72179249D01*
X84214631Y-72179254D01*
X84274211Y-72349523D01*
X84300562Y-72391460D01*
X84370184Y-72502262D01*
X84497738Y-72629816D01*
X84650478Y-72725789D01*
X84820745Y-72785368D01*
X84820750Y-72785369D01*
X84999996Y-72805565D01*
X85000000Y-72805565D01*
X85000004Y-72805565D01*
X85179249Y-72785369D01*
X85179252Y-72785368D01*
X85179255Y-72785368D01*
X85349522Y-72725789D01*
X85502262Y-72629816D01*
X85629816Y-72502262D01*
X85725789Y-72349522D01*
X85739427Y-72310545D01*
X85780149Y-72253770D01*
X85845101Y-72228022D01*
X85856469Y-72227500D01*
X86720252Y-72227500D01*
X86720253Y-72227500D01*
X86727464Y-72224512D01*
X86796933Y-72217041D01*
X86818691Y-72224099D01*
X86818905Y-72223489D01*
X86995745Y-72285368D01*
X86995750Y-72285369D01*
X87174996Y-72305565D01*
X87175000Y-72305565D01*
X87175004Y-72305565D01*
X87354249Y-72285369D01*
X87354252Y-72285368D01*
X87354255Y-72285368D01*
X87524522Y-72225789D01*
X87677262Y-72129816D01*
X87804816Y-72002262D01*
X87900789Y-71849522D01*
X87960368Y-71679255D01*
X87960369Y-71679249D01*
X87980565Y-71500003D01*
X87980565Y-71499996D01*
X87960369Y-71320750D01*
X87960368Y-71320745D01*
X87900788Y-71150476D01*
X87804815Y-70997737D01*
X87677262Y-70870184D01*
X87524523Y-70774211D01*
X87354254Y-70714631D01*
X87354249Y-70714630D01*
X87175004Y-70694435D01*
X87174996Y-70694435D01*
X86995750Y-70714630D01*
X86995745Y-70714631D01*
X86825476Y-70774211D01*
X86672737Y-70870184D01*
X86545184Y-70997737D01*
X86449211Y-71150476D01*
X86389631Y-71320745D01*
X86389630Y-71320750D01*
X86369435Y-71499996D01*
X86369435Y-71500003D01*
X86384602Y-71634617D01*
X86372547Y-71703439D01*
X86325198Y-71754818D01*
X86261382Y-71772500D01*
X85856469Y-71772500D01*
X85789430Y-71752815D01*
X85743675Y-71700011D01*
X85739427Y-71689454D01*
X85725788Y-71650476D01*
X85631237Y-71500000D01*
X85629816Y-71497738D01*
X85502262Y-71370184D01*
X85349523Y-71274211D01*
X85179254Y-71214631D01*
X85179249Y-71214630D01*
X85000004Y-71194435D01*
X84999996Y-71194435D01*
X84820750Y-71214630D01*
X84820745Y-71214631D01*
X84650476Y-71274211D01*
X84497737Y-71370184D01*
X84370184Y-71497737D01*
X84274211Y-71650476D01*
X84214631Y-71820745D01*
X84214630Y-71820750D01*
X84194435Y-71999996D01*
X64631240Y-71999996D01*
X64725789Y-71849522D01*
X64785368Y-71679255D01*
X64785369Y-71679249D01*
X64805565Y-71500003D01*
X64805565Y-71499996D01*
X64785369Y-71320750D01*
X64785368Y-71320745D01*
X64725788Y-71150476D01*
X64629815Y-70997737D01*
X64502262Y-70870184D01*
X64349523Y-70774211D01*
X64179254Y-70714631D01*
X64179249Y-70714630D01*
X64000004Y-70694435D01*
X63999996Y-70694435D01*
X63820750Y-70714630D01*
X63820745Y-70714631D01*
X63650476Y-70774211D01*
X63497737Y-70870184D01*
X63370184Y-70997737D01*
X63274211Y-71150476D01*
X63214631Y-71320745D01*
X63214630Y-71320750D01*
X63194435Y-71499996D01*
X63194435Y-71500003D01*
X63214630Y-71679249D01*
X63214631Y-71679254D01*
X63274211Y-71849523D01*
X63368760Y-71999996D01*
X63370184Y-72002262D01*
X63497738Y-72129816D01*
X63614473Y-72203166D01*
X63660763Y-72255498D01*
X63672500Y-72308158D01*
X63672500Y-76075114D01*
X63652815Y-76142153D01*
X63600011Y-76187908D01*
X63534620Y-76198335D01*
X63508130Y-76195351D01*
X63500000Y-76194435D01*
X63499999Y-76194435D01*
X63499998Y-76194435D01*
X63499996Y-76194435D01*
X63320750Y-76214630D01*
X63320745Y-76214631D01*
X63150476Y-76274211D01*
X62997737Y-76370184D01*
X62870184Y-76497737D01*
X62774211Y-76650476D01*
X62714631Y-76820745D01*
X62714630Y-76820750D01*
X62694435Y-76999996D01*
X62694435Y-77000000D01*
X62714630Y-77179249D01*
X62714631Y-77179254D01*
X62774211Y-77349523D01*
X62795254Y-77383012D01*
X62870184Y-77502262D01*
X62997738Y-77629816D01*
X63037654Y-77654897D01*
X63144498Y-77722032D01*
X63150478Y-77725789D01*
X63288857Y-77774210D01*
X63320745Y-77785368D01*
X63320750Y-77785369D01*
X63499996Y-77805565D01*
X63500000Y-77805565D01*
X63500004Y-77805565D01*
X63679249Y-77785369D01*
X63679252Y-77785368D01*
X63679255Y-77785368D01*
X63679256Y-77785367D01*
X63679259Y-77785367D01*
X63711749Y-77773997D01*
X63816380Y-77737385D01*
X63886155Y-77733823D01*
X63945012Y-77766745D01*
X68871132Y-82692866D01*
X68923681Y-82714632D01*
X68954747Y-82727500D01*
X68954748Y-82727500D01*
X69045253Y-82727500D01*
X76354405Y-82727500D01*
X76421444Y-82747185D01*
X76442086Y-82763819D01*
X76734652Y-83056385D01*
X76768137Y-83117708D01*
X76763153Y-83187400D01*
X76721281Y-83243333D01*
X76687927Y-83261107D01*
X76650476Y-83274211D01*
X76650475Y-83274212D01*
X76497737Y-83370184D01*
X76370184Y-83497737D01*
X76274211Y-83650476D01*
X76214631Y-83820745D01*
X76214630Y-83820750D01*
X76194435Y-83999995D01*
X76194435Y-83999996D01*
X76194435Y-84000000D01*
X76194690Y-84002262D01*
X76199949Y-84048940D01*
X76187893Y-84117762D01*
X76140543Y-84169141D01*
X76117682Y-84179864D01*
X75950999Y-84238188D01*
X75798258Y-84334162D01*
X75670705Y-84461715D01*
X75574733Y-84614453D01*
X75574732Y-84614454D01*
X75536189Y-84724603D01*
X75495467Y-84781378D01*
X75460104Y-84800688D01*
X75349955Y-84839231D01*
X75349954Y-84839232D01*
X75197216Y-84935204D01*
X75069663Y-85062757D01*
X74973690Y-85215496D01*
X74914110Y-85385765D01*
X74914109Y-85385770D01*
X74893914Y-85565016D01*
X74893914Y-85565023D01*
X74914109Y-85744269D01*
X74914110Y-85744274D01*
X74973690Y-85914543D01*
X75063776Y-86057913D01*
X75069663Y-86067282D01*
X75197217Y-86194836D01*
X75349957Y-86290809D01*
X75518635Y-86349832D01*
X75520224Y-86350388D01*
X75520229Y-86350389D01*
X75699475Y-86370585D01*
X75699479Y-86370585D01*
X75699483Y-86370585D01*
X75878728Y-86350389D01*
X75878731Y-86350388D01*
X75878734Y-86350388D01*
X76049001Y-86290809D01*
X76172461Y-86213233D01*
X76239697Y-86194233D01*
X76306532Y-86214600D01*
X76326114Y-86230546D01*
X77263181Y-87167612D01*
X77296666Y-87228935D01*
X77299500Y-87255293D01*
X77299500Y-88589424D01*
X77279815Y-88656463D01*
X77227011Y-88702218D01*
X77161617Y-88712644D01*
X77000004Y-88694435D01*
X76999996Y-88694435D01*
X76820750Y-88714630D01*
X76820745Y-88714631D01*
X76650476Y-88774211D01*
X76497737Y-88870184D01*
X76370184Y-88997737D01*
X76274211Y-89150476D01*
X76260573Y-89189454D01*
X76219851Y-89246230D01*
X76154899Y-89271978D01*
X76143531Y-89272500D01*
X73383469Y-89272500D01*
X73316430Y-89252815D01*
X73270675Y-89200011D01*
X73266427Y-89189454D01*
X73252788Y-89150476D01*
X73213582Y-89088080D01*
X73156816Y-88997738D01*
X73029262Y-88870184D01*
X72996379Y-88849522D01*
X72876523Y-88774211D01*
X72706254Y-88714631D01*
X72706249Y-88714630D01*
X72527004Y-88694435D01*
X72526996Y-88694435D01*
X72365383Y-88712644D01*
X72296561Y-88700589D01*
X72245182Y-88653240D01*
X72227500Y-88589424D01*
X72227500Y-88356469D01*
X72247185Y-88289430D01*
X72299989Y-88243675D01*
X72310542Y-88239428D01*
X72349522Y-88225789D01*
X72502262Y-88129816D01*
X72629816Y-88002262D01*
X72725789Y-87849522D01*
X72785368Y-87679255D01*
X72786122Y-87672562D01*
X72805565Y-87500003D01*
X72805565Y-87499996D01*
X72785369Y-87320750D01*
X72785368Y-87320745D01*
X72762465Y-87255293D01*
X72725789Y-87150478D01*
X72629816Y-86997738D01*
X72502262Y-86870184D01*
X72381672Y-86794412D01*
X72349523Y-86774211D01*
X72179254Y-86714631D01*
X72179249Y-86714630D01*
X72000004Y-86694435D01*
X71999996Y-86694435D01*
X71820750Y-86714630D01*
X71820745Y-86714631D01*
X71650476Y-86774211D01*
X71497739Y-86870183D01*
X71432508Y-86935414D01*
X71371184Y-86968898D01*
X71301493Y-86963913D01*
X71257146Y-86935413D01*
X68266746Y-83945013D01*
X68233261Y-83883690D01*
X68237385Y-83816380D01*
X68277934Y-83700500D01*
X68285367Y-83679259D01*
X68285369Y-83679249D01*
X68305565Y-83500003D01*
X68305565Y-83499996D01*
X68285369Y-83320750D01*
X68285368Y-83320745D01*
X68264500Y-83261107D01*
X68225789Y-83150478D01*
X68129816Y-82997738D01*
X68002262Y-82870184D01*
X67849523Y-82774211D01*
X67679254Y-82714631D01*
X67679249Y-82714630D01*
X67500004Y-82694435D01*
X67499996Y-82694435D01*
X67320750Y-82714630D01*
X67320745Y-82714631D01*
X67150476Y-82774211D01*
X66997737Y-82870184D01*
X66870184Y-82997737D01*
X66854994Y-83021913D01*
X66802659Y-83068204D01*
X66733605Y-83078852D01*
X66669757Y-83050477D01*
X66645006Y-83021913D01*
X66631237Y-83000000D01*
X66629816Y-82997738D01*
X66502262Y-82870184D01*
X66349523Y-82774211D01*
X66179254Y-82714631D01*
X66179249Y-82714630D01*
X66000004Y-82694435D01*
X65999996Y-82694435D01*
X65820750Y-82714630D01*
X65820745Y-82714631D01*
X65650476Y-82774211D01*
X65497737Y-82870184D01*
X65370184Y-82997737D01*
X65274211Y-83150476D01*
X65214631Y-83320745D01*
X65214630Y-83320750D01*
X65194435Y-83499996D01*
X65194435Y-83500003D01*
X65214630Y-83679249D01*
X65214631Y-83679254D01*
X65274211Y-83849523D01*
X65295254Y-83883012D01*
X65370184Y-84002262D01*
X65497738Y-84129816D01*
X65650478Y-84225789D01*
X65771050Y-84267979D01*
X65820745Y-84285368D01*
X65820750Y-84285369D01*
X65999996Y-84305565D01*
X66000000Y-84305565D01*
X66000004Y-84305565D01*
X66179249Y-84285369D01*
X66179252Y-84285368D01*
X66179255Y-84285368D01*
X66179256Y-84285367D01*
X66179259Y-84285367D01*
X66211749Y-84273997D01*
X66316380Y-84237385D01*
X66386155Y-84233823D01*
X66445013Y-84266746D01*
X70236181Y-88057914D01*
X70269666Y-88119237D01*
X70272500Y-88145595D01*
X70272500Y-93283461D01*
X70252815Y-93350500D01*
X70200011Y-93396255D01*
X70130853Y-93406199D01*
X70107550Y-93400504D01*
X70098263Y-93397254D01*
X70098249Y-93397251D01*
X69919004Y-93377056D01*
X69918996Y-93377056D01*
X69739750Y-93397251D01*
X69739745Y-93397252D01*
X69569476Y-93456832D01*
X69417472Y-93552344D01*
X69350236Y-93571344D01*
X69283400Y-93550976D01*
X69238186Y-93497709D01*
X69227500Y-93447350D01*
X69227500Y-90590893D01*
X69217355Y-90566403D01*
X69192866Y-90507278D01*
X69192863Y-90507275D01*
X69192863Y-90507274D01*
X66519723Y-87834136D01*
X66519722Y-87834135D01*
X66436107Y-87799500D01*
X64172595Y-87799500D01*
X64105556Y-87779815D01*
X64084914Y-87763181D01*
X61765348Y-85443615D01*
X61731863Y-85382292D01*
X61736847Y-85312600D01*
X61778719Y-85256667D01*
X61812076Y-85238892D01*
X61849520Y-85225790D01*
X61849525Y-85225787D01*
X62002262Y-85129816D01*
X62129816Y-85002262D01*
X62225789Y-84849522D01*
X62285368Y-84679255D01*
X62285550Y-84677639D01*
X62305565Y-84500003D01*
X62305565Y-84499996D01*
X62285369Y-84320750D01*
X62285368Y-84320745D01*
X62244778Y-84204745D01*
X62225789Y-84150478D01*
X62129816Y-83997738D01*
X62002262Y-83870184D01*
X61941531Y-83832024D01*
X61849523Y-83774211D01*
X61679254Y-83714631D01*
X61679249Y-83714630D01*
X61500004Y-83694435D01*
X61499996Y-83694435D01*
X61320750Y-83714630D01*
X61320742Y-83714632D01*
X61183620Y-83762613D01*
X61113841Y-83766174D01*
X61054985Y-83733252D01*
X60906914Y-83585181D01*
X60873429Y-83523858D01*
X60878413Y-83454166D01*
X60920285Y-83398233D01*
X60985749Y-83373816D01*
X60994595Y-83373500D01*
X63092765Y-83373500D01*
X63159804Y-83393185D01*
X63180446Y-83409819D01*
X63311315Y-83540688D01*
X63344800Y-83602011D01*
X63340676Y-83669323D01*
X63292695Y-83806445D01*
X63292693Y-83806453D01*
X63272498Y-83985699D01*
X63272498Y-83985706D01*
X63292693Y-84164952D01*
X63292694Y-84164957D01*
X63352274Y-84335226D01*
X63394251Y-84402031D01*
X63448247Y-84487965D01*
X63575801Y-84615519D01*
X63666143Y-84672285D01*
X63677234Y-84679254D01*
X63728541Y-84711492D01*
X63898808Y-84771071D01*
X63898813Y-84771072D01*
X64078059Y-84791268D01*
X64078063Y-84791268D01*
X64078067Y-84791268D01*
X64257312Y-84771072D01*
X64257315Y-84771071D01*
X64257318Y-84771071D01*
X64427585Y-84711492D01*
X64580325Y-84615519D01*
X64707879Y-84487965D01*
X64803852Y-84335225D01*
X64863431Y-84164958D01*
X64863432Y-84164952D01*
X64883628Y-83985706D01*
X64883628Y-83985699D01*
X64863432Y-83806453D01*
X64863431Y-83806448D01*
X64849539Y-83766747D01*
X64803852Y-83636181D01*
X64707879Y-83483441D01*
X64580325Y-83355887D01*
X64524397Y-83320745D01*
X64427586Y-83259914D01*
X64257317Y-83200334D01*
X64257312Y-83200333D01*
X64078067Y-83180138D01*
X64078059Y-83180138D01*
X63898813Y-83200333D01*
X63898805Y-83200335D01*
X63761683Y-83248316D01*
X63691904Y-83251877D01*
X63633048Y-83218955D01*
X63367230Y-82953136D01*
X63367225Y-82953134D01*
X63283613Y-82918500D01*
X59191514Y-82918500D01*
X59101008Y-82918500D01*
X59101006Y-82918500D01*
X59101004Y-82918501D01*
X59017395Y-82953131D01*
X59017393Y-82953133D01*
X58621006Y-83349522D01*
X58517132Y-83453396D01*
X58453135Y-83517393D01*
X58443486Y-83540688D01*
X58418500Y-83601007D01*
X58418500Y-95217562D01*
X58398815Y-95284601D01*
X58382180Y-95305243D01*
X55371132Y-98316293D01*
X55307135Y-98380290D01*
X55303572Y-98388892D01*
X55272500Y-98463904D01*
X55272500Y-128643531D01*
X55252815Y-128710570D01*
X55200011Y-128756325D01*
X55189455Y-128760572D01*
X55150479Y-128774210D01*
X55150475Y-128774212D01*
X54997737Y-128870184D01*
X54870184Y-128997737D01*
X54774211Y-129150476D01*
X54714631Y-129320745D01*
X54714630Y-129320750D01*
X54694435Y-129499996D01*
X46500000Y-129499996D01*
X46500000Y-119499997D01*
X48244723Y-119499997D01*
X48244723Y-119500002D01*
X48263793Y-119717975D01*
X48263793Y-119717979D01*
X48320422Y-119929322D01*
X48320424Y-119929326D01*
X48320425Y-119929330D01*
X48366661Y-120028484D01*
X48412897Y-120127638D01*
X48412898Y-120127639D01*
X48538402Y-120306877D01*
X48693123Y-120461598D01*
X48872361Y-120587102D01*
X48934993Y-120616308D01*
X48980693Y-120637618D01*
X49033132Y-120683790D01*
X49052284Y-120750984D01*
X49032068Y-120817865D01*
X48980693Y-120862382D01*
X48872362Y-120912898D01*
X48872357Y-120912900D01*
X48693121Y-121038402D01*
X48538402Y-121193121D01*
X48412900Y-121372357D01*
X48412898Y-121372361D01*
X48320426Y-121570668D01*
X48320422Y-121570677D01*
X48263793Y-121782020D01*
X48263793Y-121782023D01*
X48262370Y-121798285D01*
X48244723Y-121999997D01*
X48244723Y-122000002D01*
X48263793Y-122217975D01*
X48263793Y-122217979D01*
X48320422Y-122429322D01*
X48320424Y-122429326D01*
X48320425Y-122429330D01*
X48329171Y-122448086D01*
X48412897Y-122627638D01*
X48414422Y-122629816D01*
X48538402Y-122806877D01*
X48693123Y-122961598D01*
X48845039Y-123067971D01*
X48872361Y-123087102D01*
X48980693Y-123137618D01*
X49033132Y-123183790D01*
X49052284Y-123250984D01*
X49032068Y-123317865D01*
X48980693Y-123362382D01*
X48872362Y-123412898D01*
X48872357Y-123412900D01*
X48693121Y-123538402D01*
X48538402Y-123693121D01*
X48412900Y-123872357D01*
X48412898Y-123872361D01*
X48320426Y-124070668D01*
X48320422Y-124070677D01*
X48263793Y-124282020D01*
X48263793Y-124282024D01*
X48244723Y-124499997D01*
X48244723Y-124500002D01*
X48263793Y-124717975D01*
X48263793Y-124717979D01*
X48320422Y-124929322D01*
X48320424Y-124929326D01*
X48320425Y-124929330D01*
X48327707Y-124944946D01*
X48412897Y-125127638D01*
X48412898Y-125127639D01*
X48538402Y-125306877D01*
X48693123Y-125461598D01*
X48872361Y-125587102D01*
X49070670Y-125679575D01*
X49282023Y-125736207D01*
X49464926Y-125752208D01*
X49499998Y-125755277D01*
X49500000Y-125755277D01*
X49500002Y-125755277D01*
X49528254Y-125752805D01*
X49717977Y-125736207D01*
X49929330Y-125679575D01*
X50127639Y-125587102D01*
X50306877Y-125461598D01*
X50461598Y-125306877D01*
X50587102Y-125127639D01*
X50679575Y-124929330D01*
X50736207Y-124717977D01*
X50755277Y-124500000D01*
X50736207Y-124282023D01*
X50679575Y-124070670D01*
X50587102Y-123872362D01*
X50587100Y-123872359D01*
X50587099Y-123872357D01*
X50461599Y-123693124D01*
X50447724Y-123679249D01*
X50306877Y-123538402D01*
X50127639Y-123412898D01*
X50019306Y-123362381D01*
X49966867Y-123316210D01*
X49947715Y-123249016D01*
X49967931Y-123182135D01*
X50019307Y-123137618D01*
X50019335Y-123137605D01*
X50127639Y-123087102D01*
X50306877Y-122961598D01*
X50461598Y-122806877D01*
X50587102Y-122627639D01*
X50679575Y-122429330D01*
X50736207Y-122217977D01*
X50753256Y-122023100D01*
X50755277Y-122000002D01*
X50755277Y-121999997D01*
X50749624Y-121935389D01*
X50736207Y-121782023D01*
X50679575Y-121570670D01*
X50587102Y-121372362D01*
X50587100Y-121372359D01*
X50587099Y-121372357D01*
X50461599Y-121193124D01*
X50401908Y-121133433D01*
X50306877Y-121038402D01*
X50127639Y-120912898D01*
X50019306Y-120862381D01*
X49966867Y-120816210D01*
X49947715Y-120749016D01*
X49967931Y-120682135D01*
X50019307Y-120637618D01*
X50063550Y-120616987D01*
X50127639Y-120587102D01*
X50306877Y-120461598D01*
X50461598Y-120306877D01*
X50587102Y-120127639D01*
X50679575Y-119929330D01*
X50736207Y-119717977D01*
X50755277Y-119500000D01*
X50736207Y-119282023D01*
X50679575Y-119070670D01*
X50587102Y-118872362D01*
X50587100Y-118872359D01*
X50587099Y-118872357D01*
X50461599Y-118693124D01*
X50398288Y-118629813D01*
X50306877Y-118538402D01*
X50127639Y-118412898D01*
X50127640Y-118412898D01*
X50127638Y-118412897D01*
X50028484Y-118366661D01*
X49929330Y-118320425D01*
X49929326Y-118320424D01*
X49929322Y-118320422D01*
X49717977Y-118263793D01*
X49500002Y-118244723D01*
X49499998Y-118244723D01*
X49354682Y-118257436D01*
X49282023Y-118263793D01*
X49282020Y-118263793D01*
X49070677Y-118320422D01*
X49070668Y-118320426D01*
X48872361Y-118412898D01*
X48872357Y-118412900D01*
X48693121Y-118538402D01*
X48538402Y-118693121D01*
X48412900Y-118872357D01*
X48412898Y-118872361D01*
X48320426Y-119070668D01*
X48320422Y-119070677D01*
X48263793Y-119282020D01*
X48263793Y-119282024D01*
X48244723Y-119499997D01*
X46500000Y-119499997D01*
X46500000Y-88929997D01*
X53244723Y-88929997D01*
X53244723Y-88930002D01*
X53263793Y-89147975D01*
X53263793Y-89147979D01*
X53320422Y-89359322D01*
X53320424Y-89359326D01*
X53320425Y-89359330D01*
X53356331Y-89436330D01*
X53412897Y-89557638D01*
X53412898Y-89557639D01*
X53538402Y-89736877D01*
X53693123Y-89891598D01*
X53872361Y-90017102D01*
X54070670Y-90109575D01*
X54070676Y-90109576D01*
X54070677Y-90109577D01*
X54084549Y-90113294D01*
X54282023Y-90166207D01*
X54464926Y-90182208D01*
X54499998Y-90185277D01*
X54500000Y-90185277D01*
X54500002Y-90185277D01*
X54528254Y-90182805D01*
X54717977Y-90166207D01*
X54929330Y-90109575D01*
X55127639Y-90017102D01*
X55306877Y-89891598D01*
X55461598Y-89736877D01*
X55587102Y-89557639D01*
X55679575Y-89359330D01*
X55736207Y-89147977D01*
X55755277Y-88930000D01*
X55752787Y-88901544D01*
X55748236Y-88849522D01*
X55736207Y-88712023D01*
X55679575Y-88500670D01*
X55587102Y-88302362D01*
X55587100Y-88302359D01*
X55587099Y-88302357D01*
X55461599Y-88123124D01*
X55396389Y-88057914D01*
X55306877Y-87968402D01*
X55160205Y-87865701D01*
X55127638Y-87842897D01*
X54956685Y-87763181D01*
X54929330Y-87750425D01*
X54929326Y-87750424D01*
X54929322Y-87750422D01*
X54717977Y-87693793D01*
X54500002Y-87674723D01*
X54499998Y-87674723D01*
X54354682Y-87687436D01*
X54282023Y-87693793D01*
X54282020Y-87693793D01*
X54070677Y-87750422D01*
X54070668Y-87750426D01*
X53872361Y-87842898D01*
X53872357Y-87842900D01*
X53693121Y-87968402D01*
X53538402Y-88123121D01*
X53412900Y-88302357D01*
X53412898Y-88302361D01*
X53320426Y-88500668D01*
X53320422Y-88500677D01*
X53263793Y-88712020D01*
X53263793Y-88712024D01*
X53244723Y-88929997D01*
X46500000Y-88929997D01*
X46500000Y-84049997D01*
X53244723Y-84049997D01*
X53244723Y-84050002D01*
X53263793Y-84267975D01*
X53263793Y-84267979D01*
X53320422Y-84479322D01*
X53320424Y-84479326D01*
X53320425Y-84479330D01*
X53334175Y-84508817D01*
X53412897Y-84677638D01*
X53436601Y-84711491D01*
X53538402Y-84856877D01*
X53693123Y-85011598D01*
X53872361Y-85137102D01*
X54070670Y-85229575D01*
X54070676Y-85229576D01*
X54070677Y-85229577D01*
X54099821Y-85237386D01*
X54282023Y-85286207D01*
X54464926Y-85302208D01*
X54499998Y-85305277D01*
X54500000Y-85305277D01*
X54500002Y-85305277D01*
X54528254Y-85302805D01*
X54717977Y-85286207D01*
X54929330Y-85229575D01*
X55127639Y-85137102D01*
X55306877Y-85011598D01*
X55461598Y-84856877D01*
X55587102Y-84677639D01*
X55679575Y-84479330D01*
X55736207Y-84267977D01*
X55755277Y-84050000D01*
X55755184Y-84048940D01*
X55749652Y-83985703D01*
X55736207Y-83832023D01*
X55682026Y-83629816D01*
X55679577Y-83620677D01*
X55679576Y-83620676D01*
X55679575Y-83620670D01*
X55587102Y-83422362D01*
X55587100Y-83422359D01*
X55587099Y-83422357D01*
X55461599Y-83243124D01*
X55397724Y-83179249D01*
X55306877Y-83088402D01*
X55127639Y-82962898D01*
X55127640Y-82962898D01*
X55127638Y-82962897D01*
X55028484Y-82916661D01*
X54929330Y-82870425D01*
X54929326Y-82870424D01*
X54929322Y-82870422D01*
X54717977Y-82813793D01*
X54500002Y-82794723D01*
X54499998Y-82794723D01*
X54354682Y-82807436D01*
X54282023Y-82813793D01*
X54282020Y-82813793D01*
X54070677Y-82870422D01*
X54070668Y-82870426D01*
X53872361Y-82962898D01*
X53872357Y-82962900D01*
X53693121Y-83088402D01*
X53538402Y-83243121D01*
X53412900Y-83422357D01*
X53412898Y-83422361D01*
X53320426Y-83620668D01*
X53320422Y-83620677D01*
X53263793Y-83832020D01*
X53263793Y-83832024D01*
X53244723Y-84049997D01*
X46500000Y-84049997D01*
X46500000Y-78499996D01*
X61194435Y-78499996D01*
X61194435Y-78500003D01*
X61214630Y-78679249D01*
X61214631Y-78679254D01*
X61274211Y-78849523D01*
X61370184Y-79002262D01*
X61497738Y-79129816D01*
X61650478Y-79225789D01*
X61800866Y-79278412D01*
X61820745Y-79285368D01*
X61820750Y-79285369D01*
X61999996Y-79305565D01*
X62000000Y-79305565D01*
X62000004Y-79305565D01*
X62179249Y-79285369D01*
X62179252Y-79285368D01*
X62179255Y-79285368D01*
X62349522Y-79225789D01*
X62502262Y-79129816D01*
X62629816Y-79002262D01*
X62725789Y-78849522D01*
X62785368Y-78679255D01*
X62791415Y-78625590D01*
X62805565Y-78500003D01*
X62805565Y-78499996D01*
X62785369Y-78320750D01*
X62785368Y-78320745D01*
X62774083Y-78288495D01*
X62725789Y-78150478D01*
X62629816Y-77997738D01*
X62502262Y-77870184D01*
X62442826Y-77832838D01*
X62349524Y-77774212D01*
X62349520Y-77774210D01*
X62310545Y-77760572D01*
X62253769Y-77719850D01*
X62228022Y-77654897D01*
X62227500Y-77643531D01*
X62227500Y-68305555D01*
X108244357Y-68305555D01*
X108244357Y-68305566D01*
X108264890Y-68553373D01*
X108264892Y-68553385D01*
X108325936Y-68794442D01*
X108425826Y-69022167D01*
X108561833Y-69230343D01*
X108561836Y-69230346D01*
X108730256Y-69413299D01*
X108926491Y-69566035D01*
X109145190Y-69684389D01*
X109380386Y-69765132D01*
X109625665Y-69806061D01*
X109874335Y-69806061D01*
X110119614Y-69765132D01*
X110354810Y-69684389D01*
X110573509Y-69566035D01*
X110769744Y-69413299D01*
X110938164Y-69230346D01*
X111074173Y-69022168D01*
X111174063Y-68794442D01*
X111235108Y-68553382D01*
X111255643Y-68305561D01*
X111255643Y-68305555D01*
X114744357Y-68305555D01*
X114744357Y-68305566D01*
X114764890Y-68553373D01*
X114764892Y-68553385D01*
X114825936Y-68794442D01*
X114925826Y-69022167D01*
X115061833Y-69230343D01*
X115061836Y-69230346D01*
X115230256Y-69413299D01*
X115426491Y-69566035D01*
X115645190Y-69684389D01*
X115880386Y-69765132D01*
X116125665Y-69806061D01*
X116374335Y-69806061D01*
X116619614Y-69765132D01*
X116854810Y-69684389D01*
X117073509Y-69566035D01*
X117269744Y-69413299D01*
X117438164Y-69230346D01*
X117574173Y-69022168D01*
X117674063Y-68794442D01*
X117735108Y-68553382D01*
X117755643Y-68305561D01*
X117735108Y-68057740D01*
X117674063Y-67816680D01*
X117574173Y-67588954D01*
X117438166Y-67380778D01*
X117416557Y-67357305D01*
X117269744Y-67197823D01*
X117073509Y-67045087D01*
X117073507Y-67045086D01*
X117073506Y-67045085D01*
X116854811Y-66926733D01*
X116854802Y-66926730D01*
X116619616Y-66845990D01*
X116374335Y-66805061D01*
X116125665Y-66805061D01*
X115880383Y-66845990D01*
X115645197Y-66926730D01*
X115645188Y-66926733D01*
X115426493Y-67045085D01*
X115230257Y-67197822D01*
X115061833Y-67380778D01*
X114925826Y-67588954D01*
X114825936Y-67816679D01*
X114764892Y-68057736D01*
X114764890Y-68057748D01*
X114744357Y-68305555D01*
X111255643Y-68305555D01*
X111235108Y-68057740D01*
X111174063Y-67816680D01*
X111074173Y-67588954D01*
X110938166Y-67380778D01*
X110916557Y-67357305D01*
X110769744Y-67197823D01*
X110573509Y-67045087D01*
X110573507Y-67045086D01*
X110573506Y-67045085D01*
X110354811Y-66926733D01*
X110354802Y-66926730D01*
X110119616Y-66845990D01*
X109874335Y-66805061D01*
X109625665Y-66805061D01*
X109380383Y-66845990D01*
X109145197Y-66926730D01*
X109145188Y-66926733D01*
X108926493Y-67045085D01*
X108730257Y-67197822D01*
X108561833Y-67380778D01*
X108425826Y-67588954D01*
X108325936Y-67816679D01*
X108264892Y-68057736D01*
X108264890Y-68057748D01*
X108244357Y-68305555D01*
X62227500Y-68305555D01*
X62227500Y-65645594D01*
X62247185Y-65578555D01*
X62263814Y-65557918D01*
X64016176Y-63805555D01*
X108244859Y-63805555D01*
X108244859Y-63805566D01*
X108265385Y-64053290D01*
X108265387Y-64053299D01*
X108326412Y-64294278D01*
X108426266Y-64521925D01*
X108526564Y-64675443D01*
X109226212Y-63975795D01*
X109237482Y-64017853D01*
X109309890Y-64143269D01*
X109412292Y-64245671D01*
X109537708Y-64318079D01*
X109579765Y-64329348D01*
X108879942Y-65029170D01*
X108926768Y-65065616D01*
X108926770Y-65065617D01*
X109145385Y-65183925D01*
X109145396Y-65183930D01*
X109380506Y-65264644D01*
X109625707Y-65305561D01*
X109874293Y-65305561D01*
X110119493Y-65264644D01*
X110354603Y-65183930D01*
X110354614Y-65183925D01*
X110573228Y-65065618D01*
X110573231Y-65065616D01*
X110620056Y-65029170D01*
X109920234Y-64329348D01*
X109962292Y-64318079D01*
X110087708Y-64245671D01*
X110190110Y-64143269D01*
X110262518Y-64017853D01*
X110273787Y-63975796D01*
X110973434Y-64675443D01*
X111073731Y-64521930D01*
X111173587Y-64294278D01*
X111234612Y-64053299D01*
X111234614Y-64053290D01*
X111255141Y-63805566D01*
X111255141Y-63805555D01*
X114744859Y-63805555D01*
X114744859Y-63805566D01*
X114765385Y-64053290D01*
X114765387Y-64053299D01*
X114826412Y-64294278D01*
X114926266Y-64521925D01*
X115026564Y-64675443D01*
X115726212Y-63975795D01*
X115737482Y-64017853D01*
X115809890Y-64143269D01*
X115912292Y-64245671D01*
X116037708Y-64318079D01*
X116079765Y-64329348D01*
X115379942Y-65029170D01*
X115426768Y-65065616D01*
X115426770Y-65065617D01*
X115645385Y-65183925D01*
X115645396Y-65183930D01*
X115880506Y-65264644D01*
X116125707Y-65305561D01*
X116374293Y-65305561D01*
X116619493Y-65264644D01*
X116854603Y-65183930D01*
X116854614Y-65183925D01*
X117073228Y-65065618D01*
X117073231Y-65065616D01*
X117120056Y-65029170D01*
X116420234Y-64329348D01*
X116462292Y-64318079D01*
X116587708Y-64245671D01*
X116690110Y-64143269D01*
X116762518Y-64017853D01*
X116773787Y-63975796D01*
X117473434Y-64675443D01*
X117573731Y-64521930D01*
X117673587Y-64294278D01*
X117734612Y-64053299D01*
X117734614Y-64053290D01*
X117755141Y-63805566D01*
X117755141Y-63805555D01*
X117734614Y-63557831D01*
X117734612Y-63557822D01*
X117673587Y-63316843D01*
X117573731Y-63089191D01*
X117473434Y-62935677D01*
X116773787Y-63635325D01*
X116762518Y-63593269D01*
X116690110Y-63467853D01*
X116587708Y-63365451D01*
X116462292Y-63293043D01*
X116420235Y-63281773D01*
X117120057Y-62581951D01*
X117120056Y-62581950D01*
X117073229Y-62545504D01*
X116854614Y-62427196D01*
X116854603Y-62427191D01*
X116619493Y-62346477D01*
X116374293Y-62305561D01*
X116125707Y-62305561D01*
X115880506Y-62346477D01*
X115645396Y-62427191D01*
X115645390Y-62427193D01*
X115426761Y-62545510D01*
X115379942Y-62581949D01*
X115379942Y-62581951D01*
X116079765Y-63281773D01*
X116037708Y-63293043D01*
X115912292Y-63365451D01*
X115809890Y-63467853D01*
X115737482Y-63593269D01*
X115726212Y-63635325D01*
X115026564Y-62935677D01*
X114926267Y-63089193D01*
X114826412Y-63316843D01*
X114765387Y-63557822D01*
X114765385Y-63557831D01*
X114744859Y-63805555D01*
X111255141Y-63805555D01*
X111234614Y-63557831D01*
X111234612Y-63557822D01*
X111173587Y-63316843D01*
X111073731Y-63089191D01*
X110973434Y-62935677D01*
X110273787Y-63635325D01*
X110262518Y-63593269D01*
X110190110Y-63467853D01*
X110087708Y-63365451D01*
X109962292Y-63293043D01*
X109920235Y-63281773D01*
X110620057Y-62581951D01*
X110620056Y-62581950D01*
X110573229Y-62545504D01*
X110354614Y-62427196D01*
X110354603Y-62427191D01*
X110119493Y-62346477D01*
X109874293Y-62305561D01*
X109625707Y-62305561D01*
X109380506Y-62346477D01*
X109145396Y-62427191D01*
X109145390Y-62427193D01*
X108926761Y-62545510D01*
X108879942Y-62581949D01*
X108879942Y-62581951D01*
X109579765Y-63281773D01*
X109537708Y-63293043D01*
X109412292Y-63365451D01*
X109309890Y-63467853D01*
X109237482Y-63593269D01*
X109226212Y-63635325D01*
X108526564Y-62935677D01*
X108426267Y-63089193D01*
X108326412Y-63316843D01*
X108265387Y-63557822D01*
X108265385Y-63557831D01*
X108244859Y-63805555D01*
X64016176Y-63805555D01*
X65554986Y-62266745D01*
X65616307Y-62233262D01*
X65683620Y-62237386D01*
X65820745Y-62285368D01*
X65820750Y-62285369D01*
X65999996Y-62305565D01*
X66000000Y-62305565D01*
X66000004Y-62305565D01*
X66179249Y-62285369D01*
X66179252Y-62285368D01*
X66179255Y-62285368D01*
X66349522Y-62225789D01*
X66502262Y-62129816D01*
X66629816Y-62002262D01*
X66725789Y-61849522D01*
X66785368Y-61679255D01*
X66790854Y-61630565D01*
X66805565Y-61500003D01*
X66805565Y-61499996D01*
X66785369Y-61320750D01*
X66785368Y-61320745D01*
X66761488Y-61252500D01*
X66725789Y-61150478D01*
X66629816Y-60997738D01*
X66502262Y-60870184D01*
X66430357Y-60825003D01*
X66349523Y-60774211D01*
X66179254Y-60714631D01*
X66179249Y-60714630D01*
X66000004Y-60694435D01*
X65999996Y-60694435D01*
X65820750Y-60714630D01*
X65820745Y-60714631D01*
X65650476Y-60774211D01*
X65497737Y-60870184D01*
X65370184Y-60997737D01*
X65274211Y-61150476D01*
X65214631Y-61320745D01*
X65214630Y-61320750D01*
X65194435Y-61499996D01*
X65194435Y-61500003D01*
X65214630Y-61679249D01*
X65214631Y-61679254D01*
X65262613Y-61816377D01*
X65266174Y-61886156D01*
X65233252Y-61945013D01*
X62656342Y-64521925D01*
X61871132Y-65307135D01*
X61807135Y-65371132D01*
X61786846Y-65420111D01*
X61772500Y-65454746D01*
X61772500Y-77643531D01*
X61752815Y-77710570D01*
X61700011Y-77756325D01*
X61689455Y-77760572D01*
X61650479Y-77774210D01*
X61650475Y-77774212D01*
X61497737Y-77870184D01*
X61370184Y-77997737D01*
X61274211Y-78150476D01*
X61214631Y-78320745D01*
X61214630Y-78320750D01*
X61194435Y-78499996D01*
X46500000Y-78499996D01*
X46500000Y-60999996D01*
X52194435Y-60999996D01*
X52194435Y-61000003D01*
X52214630Y-61179249D01*
X52214631Y-61179254D01*
X52274211Y-61349523D01*
X52340372Y-61454817D01*
X52370184Y-61502262D01*
X52497738Y-61629816D01*
X52650478Y-61725789D01*
X52820745Y-61785368D01*
X52820750Y-61785369D01*
X52999996Y-61805565D01*
X53000000Y-61805565D01*
X53000004Y-61805565D01*
X53179249Y-61785369D01*
X53179252Y-61785368D01*
X53179255Y-61785368D01*
X53349522Y-61725789D01*
X53502262Y-61629816D01*
X53629816Y-61502262D01*
X53640331Y-61485526D01*
X53692663Y-61439238D01*
X53745324Y-61427500D01*
X55920096Y-61427500D01*
X55987135Y-61447185D01*
X55997413Y-61454556D01*
X55997731Y-61454809D01*
X55997738Y-61454816D01*
X56150478Y-61550789D01*
X56320745Y-61610368D01*
X56320750Y-61610369D01*
X56499996Y-61630565D01*
X56500000Y-61630565D01*
X56500004Y-61630565D01*
X56679249Y-61610369D01*
X56679252Y-61610368D01*
X56679255Y-61610368D01*
X56849522Y-61550789D01*
X57002262Y-61454816D01*
X57129816Y-61327262D01*
X57140331Y-61310526D01*
X57192663Y-61264238D01*
X57245324Y-61252500D01*
X58254676Y-61252500D01*
X58321715Y-61272185D01*
X58359668Y-61310526D01*
X58370184Y-61327262D01*
X58497738Y-61454816D01*
X58650478Y-61550789D01*
X58820745Y-61610368D01*
X58820750Y-61610369D01*
X58999996Y-61630565D01*
X59000000Y-61630565D01*
X59000004Y-61630565D01*
X59179249Y-61610369D01*
X59179252Y-61610368D01*
X59179255Y-61610368D01*
X59349522Y-61550789D01*
X59502262Y-61454816D01*
X59629816Y-61327262D01*
X59640331Y-61310526D01*
X59692663Y-61264238D01*
X59745324Y-61252500D01*
X61754676Y-61252500D01*
X61821715Y-61272185D01*
X61859668Y-61310526D01*
X61870184Y-61327262D01*
X61997738Y-61454816D01*
X62150478Y-61550789D01*
X62320745Y-61610368D01*
X62320750Y-61610369D01*
X62499996Y-61630565D01*
X62500000Y-61630565D01*
X62500004Y-61630565D01*
X62679249Y-61610369D01*
X62679252Y-61610368D01*
X62679255Y-61610368D01*
X62849522Y-61550789D01*
X63002262Y-61454816D01*
X63129816Y-61327262D01*
X63225789Y-61174522D01*
X63285368Y-61004255D01*
X63285847Y-61000003D01*
X63305565Y-60825003D01*
X63305565Y-60824996D01*
X63285369Y-60645750D01*
X63285368Y-60645745D01*
X63225788Y-60475476D01*
X63129815Y-60322737D01*
X63002262Y-60195184D01*
X62849523Y-60099211D01*
X62679254Y-60039631D01*
X62679249Y-60039630D01*
X62500004Y-60019435D01*
X62499996Y-60019435D01*
X62320750Y-60039630D01*
X62320745Y-60039631D01*
X62150476Y-60099211D01*
X61997737Y-60195184D01*
X61870186Y-60322735D01*
X61870184Y-60322737D01*
X61870184Y-60322738D01*
X61859668Y-60339473D01*
X61807337Y-60385762D01*
X61754676Y-60397500D01*
X59745324Y-60397500D01*
X59678285Y-60377815D01*
X59640331Y-60339473D01*
X59629816Y-60322738D01*
X59502262Y-60195184D01*
X59501070Y-60194435D01*
X59349523Y-60099211D01*
X59179254Y-60039631D01*
X59179249Y-60039630D01*
X59000004Y-60019435D01*
X58999996Y-60019435D01*
X58820750Y-60039630D01*
X58820745Y-60039631D01*
X58650476Y-60099211D01*
X58497737Y-60195184D01*
X58370186Y-60322735D01*
X58370184Y-60322737D01*
X58370184Y-60322738D01*
X58359668Y-60339473D01*
X58307337Y-60385762D01*
X58254676Y-60397500D01*
X57245324Y-60397500D01*
X57178285Y-60377815D01*
X57140331Y-60339473D01*
X57129816Y-60322738D01*
X57002262Y-60195184D01*
X57001070Y-60194435D01*
X56849523Y-60099211D01*
X56679254Y-60039631D01*
X56679249Y-60039630D01*
X56500004Y-60019435D01*
X56499996Y-60019435D01*
X56320750Y-60039630D01*
X56320745Y-60039631D01*
X56150476Y-60099211D01*
X55997737Y-60195184D01*
X55870184Y-60322737D01*
X55774210Y-60475477D01*
X55769321Y-60489453D01*
X55728601Y-60546229D01*
X55663648Y-60571978D01*
X55652279Y-60572500D01*
X53745324Y-60572500D01*
X53678285Y-60552815D01*
X53640331Y-60514473D01*
X53629816Y-60497738D01*
X53502262Y-60370184D01*
X53453383Y-60339471D01*
X53349523Y-60274211D01*
X53179254Y-60214631D01*
X53179249Y-60214630D01*
X53000004Y-60194435D01*
X52999996Y-60194435D01*
X52820750Y-60214630D01*
X52820745Y-60214631D01*
X52650476Y-60274211D01*
X52497737Y-60370184D01*
X52370184Y-60497737D01*
X52274211Y-60650476D01*
X52214631Y-60820745D01*
X52214630Y-60820750D01*
X52194435Y-60999996D01*
X46500000Y-60999996D01*
X46500000Y-57277778D01*
X108244357Y-57277778D01*
X108244357Y-57277789D01*
X108264890Y-57525596D01*
X108264892Y-57525608D01*
X108325936Y-57766665D01*
X108425826Y-57994390D01*
X108561833Y-58202566D01*
X108561836Y-58202569D01*
X108730256Y-58385522D01*
X108926491Y-58538258D01*
X109145190Y-58656612D01*
X109380386Y-58737355D01*
X109625665Y-58778284D01*
X109874335Y-58778284D01*
X110119614Y-58737355D01*
X110354810Y-58656612D01*
X110573509Y-58538258D01*
X110769744Y-58385522D01*
X110938164Y-58202569D01*
X111074173Y-57994391D01*
X111174063Y-57766665D01*
X111235108Y-57525605D01*
X111255643Y-57277784D01*
X111255643Y-57277778D01*
X114744357Y-57277778D01*
X114744357Y-57277789D01*
X114764890Y-57525596D01*
X114764892Y-57525608D01*
X114825936Y-57766665D01*
X114925826Y-57994390D01*
X115061833Y-58202566D01*
X115061836Y-58202569D01*
X115230256Y-58385522D01*
X115426491Y-58538258D01*
X115645190Y-58656612D01*
X115880386Y-58737355D01*
X116125665Y-58778284D01*
X116374335Y-58778284D01*
X116619614Y-58737355D01*
X116854810Y-58656612D01*
X117073509Y-58538258D01*
X117269744Y-58385522D01*
X117438164Y-58202569D01*
X117574173Y-57994391D01*
X117674063Y-57766665D01*
X117735108Y-57525605D01*
X117755643Y-57277784D01*
X117735108Y-57029963D01*
X117674063Y-56788903D01*
X117574173Y-56561177D01*
X117438166Y-56353001D01*
X117416557Y-56329528D01*
X117269744Y-56170046D01*
X117073509Y-56017310D01*
X117073507Y-56017309D01*
X117073506Y-56017308D01*
X116854811Y-55898956D01*
X116854802Y-55898953D01*
X116619616Y-55818213D01*
X116374335Y-55777284D01*
X116125665Y-55777284D01*
X115880383Y-55818213D01*
X115645197Y-55898953D01*
X115645188Y-55898956D01*
X115426493Y-56017308D01*
X115230257Y-56170045D01*
X115061833Y-56353001D01*
X114925826Y-56561177D01*
X114825936Y-56788902D01*
X114764892Y-57029959D01*
X114764890Y-57029971D01*
X114744357Y-57277778D01*
X111255643Y-57277778D01*
X111235108Y-57029963D01*
X111174063Y-56788903D01*
X111074173Y-56561177D01*
X110938166Y-56353001D01*
X110916557Y-56329528D01*
X110769744Y-56170046D01*
X110573509Y-56017310D01*
X110573507Y-56017309D01*
X110573506Y-56017308D01*
X110354811Y-55898956D01*
X110354802Y-55898953D01*
X110119616Y-55818213D01*
X109874335Y-55777284D01*
X109625665Y-55777284D01*
X109380383Y-55818213D01*
X109145197Y-55898953D01*
X109145188Y-55898956D01*
X108926493Y-56017308D01*
X108730257Y-56170045D01*
X108561833Y-56353001D01*
X108425826Y-56561177D01*
X108325936Y-56788902D01*
X108264892Y-57029959D01*
X108264890Y-57029971D01*
X108244357Y-57277778D01*
X46500000Y-57277778D01*
X46500000Y-49959999D01*
X52484341Y-49959999D01*
X52484341Y-49960000D01*
X52504936Y-50195403D01*
X52504938Y-50195413D01*
X52566094Y-50423655D01*
X52566096Y-50423659D01*
X52566097Y-50423663D01*
X52570000Y-50432032D01*
X52665965Y-50637830D01*
X52665967Y-50637834D01*
X52774281Y-50792521D01*
X52801505Y-50831401D01*
X52968599Y-50998495D01*
X52968604Y-50998499D01*
X52969968Y-50999643D01*
X52970407Y-51000303D01*
X52972427Y-51002323D01*
X52972021Y-51002728D01*
X53008669Y-51057815D01*
X53009776Y-51127676D01*
X52972937Y-51187046D01*
X52929267Y-51212336D01*
X52920669Y-51215184D01*
X52920663Y-51215187D01*
X52771342Y-51307289D01*
X52647289Y-51431342D01*
X52555187Y-51580663D01*
X52555185Y-51580668D01*
X52531207Y-51653031D01*
X52500001Y-51747203D01*
X52500001Y-51747204D01*
X52500000Y-51747204D01*
X52489500Y-51849983D01*
X52489500Y-53150001D01*
X52489501Y-53150018D01*
X52500000Y-53252796D01*
X52500001Y-53252799D01*
X52539303Y-53371402D01*
X52555186Y-53419334D01*
X52647288Y-53568656D01*
X52771344Y-53692712D01*
X52920666Y-53784814D01*
X53087203Y-53839999D01*
X53189991Y-53850500D01*
X54490008Y-53850499D01*
X54592797Y-53839999D01*
X54759334Y-53784814D01*
X54908656Y-53692712D01*
X55032712Y-53568656D01*
X55124814Y-53419334D01*
X55148794Y-53346965D01*
X55188565Y-53289523D01*
X55253081Y-53262699D01*
X55263861Y-53262585D01*
X55897037Y-52629409D01*
X55914075Y-52692993D01*
X55979901Y-52807007D01*
X56072993Y-52900099D01*
X56187007Y-52965925D01*
X56250590Y-52982962D01*
X55618625Y-53614925D01*
X55702421Y-53673599D01*
X55916507Y-53773429D01*
X55916516Y-53773433D01*
X56144673Y-53834567D01*
X56144684Y-53834569D01*
X56379998Y-53855157D01*
X56380002Y-53855157D01*
X56615315Y-53834569D01*
X56615326Y-53834567D01*
X56843483Y-53773433D01*
X56843492Y-53773429D01*
X57057578Y-53673600D01*
X57057582Y-53673598D01*
X57141373Y-53614926D01*
X57141373Y-53614925D01*
X56509409Y-52982962D01*
X56572993Y-52965925D01*
X56687007Y-52900099D01*
X56780099Y-52807007D01*
X56845925Y-52692993D01*
X56862962Y-52629410D01*
X57494925Y-53261373D01*
X57548425Y-53184968D01*
X57603002Y-53141344D01*
X57672501Y-53134151D01*
X57734855Y-53165673D01*
X57751576Y-53184969D01*
X57805073Y-53261372D01*
X58437037Y-52629409D01*
X58454075Y-52692993D01*
X58519901Y-52807007D01*
X58612993Y-52900099D01*
X58727007Y-52965925D01*
X58790590Y-52982962D01*
X58158625Y-53614925D01*
X58242421Y-53673599D01*
X58456507Y-53773429D01*
X58456516Y-53773433D01*
X58684673Y-53834567D01*
X58684684Y-53834569D01*
X58919998Y-53855157D01*
X58920002Y-53855157D01*
X59155315Y-53834569D01*
X59155326Y-53834567D01*
X59383483Y-53773433D01*
X59383492Y-53773429D01*
X59597578Y-53673600D01*
X59597582Y-53673598D01*
X59681373Y-53614926D01*
X59681373Y-53614925D01*
X59049409Y-52982962D01*
X59112993Y-52965925D01*
X59227007Y-52900099D01*
X59320099Y-52807007D01*
X59385925Y-52692993D01*
X59402962Y-52629410D01*
X60034925Y-53261373D01*
X60088119Y-53185405D01*
X60142696Y-53141781D01*
X60212195Y-53134588D01*
X60274549Y-53166110D01*
X60291269Y-53185405D01*
X60421505Y-53371401D01*
X60588599Y-53538495D01*
X60631675Y-53568657D01*
X60782165Y-53674032D01*
X60782167Y-53674033D01*
X60782170Y-53674035D01*
X60996337Y-53773903D01*
X61224592Y-53835063D01*
X61401034Y-53850500D01*
X61459999Y-53855659D01*
X61460000Y-53855659D01*
X61460001Y-53855659D01*
X61518966Y-53850500D01*
X61695408Y-53835063D01*
X61923663Y-53773903D01*
X62137830Y-53674035D01*
X62331401Y-53538495D01*
X62498495Y-53371401D01*
X62628732Y-53185403D01*
X62683307Y-53141780D01*
X62752805Y-53134586D01*
X62815160Y-53166109D01*
X62831880Y-53185405D01*
X62885073Y-53261373D01*
X63517037Y-52629409D01*
X63534075Y-52692993D01*
X63599901Y-52807007D01*
X63692993Y-52900099D01*
X63807007Y-52965925D01*
X63870590Y-52982962D01*
X63238625Y-53614925D01*
X63322421Y-53673599D01*
X63536507Y-53773429D01*
X63536516Y-53773433D01*
X63764673Y-53834567D01*
X63764684Y-53834569D01*
X63999998Y-53855157D01*
X64000002Y-53855157D01*
X64235315Y-53834569D01*
X64235326Y-53834567D01*
X64463483Y-53773433D01*
X64463492Y-53773429D01*
X64677578Y-53673600D01*
X64677582Y-53673598D01*
X64761373Y-53614926D01*
X64761373Y-53614925D01*
X64129409Y-52982962D01*
X64192993Y-52965925D01*
X64307007Y-52900099D01*
X64400099Y-52807007D01*
X64465925Y-52692993D01*
X64482962Y-52629409D01*
X65114925Y-53261373D01*
X65114926Y-53261373D01*
X65173598Y-53177582D01*
X65173600Y-53177578D01*
X65273429Y-52963492D01*
X65273433Y-52963483D01*
X65323192Y-52777778D01*
X108244859Y-52777778D01*
X108244859Y-52777789D01*
X108265385Y-53025513D01*
X108265387Y-53025522D01*
X108326412Y-53266501D01*
X108426266Y-53494148D01*
X108526564Y-53647666D01*
X109226212Y-52948018D01*
X109237482Y-52990076D01*
X109309890Y-53115492D01*
X109412292Y-53217894D01*
X109537708Y-53290302D01*
X109579765Y-53301571D01*
X108879942Y-54001393D01*
X108926768Y-54037839D01*
X108926770Y-54037840D01*
X109145385Y-54156148D01*
X109145396Y-54156153D01*
X109380506Y-54236867D01*
X109625707Y-54277784D01*
X109874293Y-54277784D01*
X110119493Y-54236867D01*
X110354603Y-54156153D01*
X110354614Y-54156148D01*
X110573228Y-54037841D01*
X110573231Y-54037839D01*
X110620056Y-54001393D01*
X109920234Y-53301571D01*
X109962292Y-53290302D01*
X110087708Y-53217894D01*
X110190110Y-53115492D01*
X110262518Y-52990076D01*
X110273787Y-52948019D01*
X110973434Y-53647666D01*
X111073731Y-53494153D01*
X111173587Y-53266501D01*
X111234612Y-53025522D01*
X111234614Y-53025513D01*
X111255141Y-52777789D01*
X111255141Y-52777778D01*
X114744859Y-52777778D01*
X114744859Y-52777789D01*
X114765385Y-53025513D01*
X114765387Y-53025522D01*
X114826412Y-53266501D01*
X114926266Y-53494148D01*
X115026564Y-53647666D01*
X115726212Y-52948018D01*
X115737482Y-52990076D01*
X115809890Y-53115492D01*
X115912292Y-53217894D01*
X116037708Y-53290302D01*
X116079765Y-53301571D01*
X115379942Y-54001393D01*
X115426768Y-54037839D01*
X115426770Y-54037840D01*
X115645385Y-54156148D01*
X115645396Y-54156153D01*
X115880506Y-54236867D01*
X116125707Y-54277784D01*
X116374293Y-54277784D01*
X116619493Y-54236867D01*
X116854603Y-54156153D01*
X116854614Y-54156148D01*
X117073228Y-54037841D01*
X117073231Y-54037839D01*
X117120056Y-54001393D01*
X116420234Y-53301571D01*
X116462292Y-53290302D01*
X116587708Y-53217894D01*
X116690110Y-53115492D01*
X116762518Y-52990076D01*
X116773787Y-52948019D01*
X117473434Y-53647666D01*
X117573731Y-53494153D01*
X117673587Y-53266501D01*
X117734612Y-53025522D01*
X117734614Y-53025513D01*
X117755141Y-52777789D01*
X117755141Y-52777778D01*
X117734614Y-52530054D01*
X117734612Y-52530045D01*
X117673587Y-52289066D01*
X117573731Y-52061414D01*
X117473434Y-51907900D01*
X116773787Y-52607548D01*
X116762518Y-52565492D01*
X116690110Y-52440076D01*
X116587708Y-52337674D01*
X116462292Y-52265266D01*
X116420235Y-52253996D01*
X117120057Y-51554174D01*
X117120056Y-51554173D01*
X117073229Y-51517727D01*
X116854614Y-51399419D01*
X116854603Y-51399414D01*
X116619493Y-51318700D01*
X116374293Y-51277784D01*
X116125707Y-51277784D01*
X115880506Y-51318700D01*
X115645396Y-51399414D01*
X115645390Y-51399416D01*
X115426761Y-51517733D01*
X115379942Y-51554172D01*
X115379942Y-51554174D01*
X116079765Y-52253996D01*
X116037708Y-52265266D01*
X115912292Y-52337674D01*
X115809890Y-52440076D01*
X115737482Y-52565492D01*
X115726212Y-52607548D01*
X115026564Y-51907900D01*
X114926267Y-52061416D01*
X114826412Y-52289066D01*
X114765387Y-52530045D01*
X114765385Y-52530054D01*
X114744859Y-52777778D01*
X111255141Y-52777778D01*
X111234614Y-52530054D01*
X111234612Y-52530045D01*
X111173587Y-52289066D01*
X111073731Y-52061414D01*
X110973434Y-51907900D01*
X110273787Y-52607548D01*
X110262518Y-52565492D01*
X110190110Y-52440076D01*
X110087708Y-52337674D01*
X109962292Y-52265266D01*
X109920235Y-52253996D01*
X110620057Y-51554174D01*
X110620056Y-51554173D01*
X110573229Y-51517727D01*
X110354614Y-51399419D01*
X110354603Y-51399414D01*
X110119493Y-51318700D01*
X109874293Y-51277784D01*
X109625707Y-51277784D01*
X109380506Y-51318700D01*
X109145396Y-51399414D01*
X109145390Y-51399416D01*
X108926761Y-51517733D01*
X108879942Y-51554172D01*
X108879942Y-51554174D01*
X109579765Y-52253996D01*
X109537708Y-52265266D01*
X109412292Y-52337674D01*
X109309890Y-52440076D01*
X109237482Y-52565492D01*
X109226212Y-52607548D01*
X108526564Y-51907900D01*
X108426267Y-52061416D01*
X108326412Y-52289066D01*
X108265387Y-52530045D01*
X108265385Y-52530054D01*
X108244859Y-52777778D01*
X65323192Y-52777778D01*
X65334567Y-52735326D01*
X65334569Y-52735315D01*
X65355157Y-52500001D01*
X65355157Y-52499998D01*
X65334569Y-52264684D01*
X65334567Y-52264673D01*
X65273433Y-52036516D01*
X65273429Y-52036507D01*
X65173600Y-51822423D01*
X65173599Y-51822421D01*
X65114925Y-51738626D01*
X65114925Y-51738625D01*
X64482962Y-52370589D01*
X64465925Y-52307007D01*
X64400099Y-52192993D01*
X64307007Y-52099901D01*
X64192993Y-52034075D01*
X64129410Y-52017037D01*
X64761373Y-51385073D01*
X64761373Y-51385072D01*
X64685405Y-51331880D01*
X64641780Y-51277304D01*
X64634586Y-51207805D01*
X64666108Y-51145451D01*
X64685399Y-51128734D01*
X64871401Y-50998495D01*
X65038495Y-50831401D01*
X65174035Y-50637830D01*
X65273903Y-50423663D01*
X65335063Y-50195408D01*
X65355659Y-49960000D01*
X65335063Y-49724592D01*
X65273903Y-49496337D01*
X65174035Y-49282171D01*
X65168425Y-49274158D01*
X65038494Y-49088597D01*
X64871402Y-48921506D01*
X64871395Y-48921501D01*
X64677834Y-48785967D01*
X64677830Y-48785965D01*
X64677828Y-48785964D01*
X64463663Y-48686097D01*
X64463659Y-48686096D01*
X64463655Y-48686094D01*
X64235413Y-48624938D01*
X64235403Y-48624936D01*
X64000001Y-48604341D01*
X63999999Y-48604341D01*
X63764596Y-48624936D01*
X63764586Y-48624938D01*
X63536344Y-48686094D01*
X63536335Y-48686098D01*
X63322171Y-48785964D01*
X63322169Y-48785965D01*
X63128597Y-48921505D01*
X62961505Y-49088597D01*
X62831575Y-49274158D01*
X62776998Y-49317783D01*
X62707500Y-49324977D01*
X62645145Y-49293454D01*
X62628425Y-49274158D01*
X62498494Y-49088597D01*
X62331402Y-48921506D01*
X62331395Y-48921501D01*
X62137834Y-48785967D01*
X62137830Y-48785965D01*
X62137828Y-48785964D01*
X61923663Y-48686097D01*
X61923659Y-48686096D01*
X61923655Y-48686094D01*
X61695413Y-48624938D01*
X61695403Y-48624936D01*
X61460001Y-48604341D01*
X61459999Y-48604341D01*
X61224596Y-48624936D01*
X61224586Y-48624938D01*
X60996344Y-48686094D01*
X60996335Y-48686098D01*
X60782171Y-48785964D01*
X60782169Y-48785965D01*
X60588597Y-48921505D01*
X60421505Y-49088597D01*
X60291575Y-49274158D01*
X60236998Y-49317783D01*
X60167500Y-49324977D01*
X60105145Y-49293454D01*
X60088425Y-49274158D01*
X59958494Y-49088597D01*
X59791402Y-48921506D01*
X59791395Y-48921501D01*
X59597834Y-48785967D01*
X59597830Y-48785965D01*
X59597828Y-48785964D01*
X59383663Y-48686097D01*
X59383659Y-48686096D01*
X59383655Y-48686094D01*
X59155413Y-48624938D01*
X59155403Y-48624936D01*
X58920001Y-48604341D01*
X58919999Y-48604341D01*
X58684596Y-48624936D01*
X58684586Y-48624938D01*
X58456344Y-48686094D01*
X58456335Y-48686098D01*
X58242171Y-48785964D01*
X58242169Y-48785965D01*
X58048597Y-48921505D01*
X57881505Y-49088597D01*
X57751575Y-49274158D01*
X57696998Y-49317783D01*
X57627500Y-49324977D01*
X57565145Y-49293454D01*
X57548425Y-49274158D01*
X57418494Y-49088597D01*
X57251402Y-48921506D01*
X57251395Y-48921501D01*
X57057834Y-48785967D01*
X57057830Y-48785965D01*
X57057828Y-48785964D01*
X56843663Y-48686097D01*
X56843659Y-48686096D01*
X56843655Y-48686094D01*
X56615413Y-48624938D01*
X56615403Y-48624936D01*
X56380001Y-48604341D01*
X56379999Y-48604341D01*
X56144596Y-48624936D01*
X56144586Y-48624938D01*
X55916344Y-48686094D01*
X55916335Y-48686098D01*
X55702171Y-48785964D01*
X55702169Y-48785965D01*
X55508597Y-48921505D01*
X55341505Y-49088597D01*
X55211575Y-49274158D01*
X55156998Y-49317783D01*
X55087500Y-49324977D01*
X55025145Y-49293454D01*
X55008425Y-49274158D01*
X54878494Y-49088597D01*
X54711402Y-48921506D01*
X54711395Y-48921501D01*
X54517834Y-48785967D01*
X54517830Y-48785965D01*
X54517828Y-48785964D01*
X54303663Y-48686097D01*
X54303659Y-48686096D01*
X54303655Y-48686094D01*
X54075413Y-48624938D01*
X54075403Y-48624936D01*
X53840001Y-48604341D01*
X53839999Y-48604341D01*
X53604596Y-48624936D01*
X53604586Y-48624938D01*
X53376344Y-48686094D01*
X53376335Y-48686098D01*
X53162171Y-48785964D01*
X53162169Y-48785965D01*
X52968597Y-48921505D01*
X52801505Y-49088597D01*
X52665965Y-49282169D01*
X52665964Y-49282171D01*
X52566098Y-49496335D01*
X52566094Y-49496344D01*
X52504938Y-49724586D01*
X52504936Y-49724596D01*
X52484341Y-49959999D01*
X46500000Y-49959999D01*
X46500000Y-46249994D01*
X108244357Y-46249994D01*
X108244357Y-46250005D01*
X108264890Y-46497812D01*
X108264892Y-46497824D01*
X108325936Y-46738881D01*
X108425826Y-46966606D01*
X108561833Y-47174782D01*
X108561836Y-47174785D01*
X108730256Y-47357738D01*
X108926491Y-47510474D01*
X109145190Y-47628828D01*
X109380386Y-47709571D01*
X109625665Y-47750500D01*
X109874335Y-47750500D01*
X110119614Y-47709571D01*
X110354810Y-47628828D01*
X110573509Y-47510474D01*
X110769744Y-47357738D01*
X110938164Y-47174785D01*
X111074173Y-46966607D01*
X111174063Y-46738881D01*
X111235108Y-46497821D01*
X111255643Y-46250000D01*
X111255643Y-46249994D01*
X114744357Y-46249994D01*
X114744357Y-46250005D01*
X114764890Y-46497812D01*
X114764892Y-46497824D01*
X114825936Y-46738881D01*
X114925826Y-46966606D01*
X115061833Y-47174782D01*
X115061836Y-47174785D01*
X115230256Y-47357738D01*
X115426491Y-47510474D01*
X115645190Y-47628828D01*
X115880386Y-47709571D01*
X116125665Y-47750500D01*
X116374335Y-47750500D01*
X116619614Y-47709571D01*
X116854810Y-47628828D01*
X117073509Y-47510474D01*
X117269744Y-47357738D01*
X117438164Y-47174785D01*
X117574173Y-46966607D01*
X117674063Y-46738881D01*
X117735108Y-46497821D01*
X117755643Y-46250000D01*
X117735108Y-46002179D01*
X117674063Y-45761119D01*
X117574173Y-45533393D01*
X117438166Y-45325217D01*
X117416557Y-45301744D01*
X117269744Y-45142262D01*
X117073509Y-44989526D01*
X117073507Y-44989525D01*
X117073506Y-44989524D01*
X116854811Y-44871172D01*
X116854802Y-44871169D01*
X116619616Y-44790429D01*
X116374335Y-44749500D01*
X116125665Y-44749500D01*
X115880383Y-44790429D01*
X115645197Y-44871169D01*
X115645188Y-44871172D01*
X115426493Y-44989524D01*
X115230257Y-45142261D01*
X115061833Y-45325217D01*
X114925826Y-45533393D01*
X114825936Y-45761118D01*
X114764892Y-46002175D01*
X114764890Y-46002187D01*
X114744357Y-46249994D01*
X111255643Y-46249994D01*
X111235108Y-46002179D01*
X111174063Y-45761119D01*
X111074173Y-45533393D01*
X110938166Y-45325217D01*
X110916557Y-45301744D01*
X110769744Y-45142262D01*
X110573509Y-44989526D01*
X110573507Y-44989525D01*
X110573506Y-44989524D01*
X110354811Y-44871172D01*
X110354802Y-44871169D01*
X110119616Y-44790429D01*
X109874335Y-44749500D01*
X109625665Y-44749500D01*
X109380383Y-44790429D01*
X109145197Y-44871169D01*
X109145188Y-44871172D01*
X108926493Y-44989524D01*
X108730257Y-45142261D01*
X108561833Y-45325217D01*
X108425826Y-45533393D01*
X108325936Y-45761118D01*
X108264892Y-46002175D01*
X108264890Y-46002187D01*
X108244357Y-46249994D01*
X46500000Y-46249994D01*
X46500000Y-41881995D01*
X63199500Y-41881995D01*
X63199500Y-42118004D01*
X63199501Y-42118020D01*
X63230306Y-42352010D01*
X63291394Y-42579993D01*
X63381714Y-42798045D01*
X63381719Y-42798056D01*
X63452677Y-42920957D01*
X63499727Y-43002450D01*
X63499729Y-43002453D01*
X63499730Y-43002454D01*
X63643406Y-43189697D01*
X63643412Y-43189704D01*
X63810295Y-43356587D01*
X63810301Y-43356592D01*
X63997550Y-43500273D01*
X64128918Y-43576118D01*
X64201943Y-43618280D01*
X64201948Y-43618282D01*
X64201951Y-43618284D01*
X64420007Y-43708606D01*
X64647986Y-43769693D01*
X64881989Y-43800500D01*
X64881996Y-43800500D01*
X65118004Y-43800500D01*
X65118011Y-43800500D01*
X65352014Y-43769693D01*
X65579993Y-43708606D01*
X65798049Y-43618284D01*
X66002450Y-43500273D01*
X66189699Y-43356592D01*
X66356592Y-43189699D01*
X66500273Y-43002450D01*
X66618284Y-42798049D01*
X66708606Y-42579993D01*
X66769693Y-42352014D01*
X66800500Y-42118011D01*
X66800500Y-41881995D01*
X98199500Y-41881995D01*
X98199500Y-42118004D01*
X98199501Y-42118020D01*
X98230306Y-42352010D01*
X98291394Y-42579993D01*
X98381714Y-42798045D01*
X98381719Y-42798056D01*
X98452677Y-42920957D01*
X98499727Y-43002450D01*
X98499729Y-43002453D01*
X98499730Y-43002454D01*
X98643406Y-43189697D01*
X98643412Y-43189704D01*
X98810295Y-43356587D01*
X98810301Y-43356592D01*
X98997550Y-43500273D01*
X99128918Y-43576118D01*
X99201943Y-43618280D01*
X99201948Y-43618282D01*
X99201951Y-43618284D01*
X99420007Y-43708606D01*
X99647986Y-43769693D01*
X99881989Y-43800500D01*
X99881996Y-43800500D01*
X100118004Y-43800500D01*
X100118011Y-43800500D01*
X100352014Y-43769693D01*
X100579993Y-43708606D01*
X100798049Y-43618284D01*
X101002450Y-43500273D01*
X101189699Y-43356592D01*
X101356592Y-43189699D01*
X101500273Y-43002450D01*
X101618284Y-42798049D01*
X101708606Y-42579993D01*
X101769693Y-42352014D01*
X101800500Y-42118011D01*
X101800500Y-41881989D01*
X101783123Y-41749994D01*
X108244859Y-41749994D01*
X108244859Y-41750005D01*
X108265385Y-41997729D01*
X108265387Y-41997738D01*
X108326412Y-42238717D01*
X108426266Y-42466364D01*
X108526564Y-42619882D01*
X109226212Y-41920234D01*
X109237482Y-41962292D01*
X109309890Y-42087708D01*
X109412292Y-42190110D01*
X109537708Y-42262518D01*
X109579765Y-42273787D01*
X108879942Y-42973609D01*
X108926768Y-43010055D01*
X108926770Y-43010056D01*
X109145385Y-43128364D01*
X109145396Y-43128369D01*
X109380506Y-43209083D01*
X109625707Y-43250000D01*
X109874293Y-43250000D01*
X110119493Y-43209083D01*
X110354603Y-43128369D01*
X110354614Y-43128364D01*
X110573228Y-43010057D01*
X110573231Y-43010055D01*
X110620056Y-42973609D01*
X109920234Y-42273787D01*
X109962292Y-42262518D01*
X110087708Y-42190110D01*
X110190110Y-42087708D01*
X110262518Y-41962292D01*
X110273787Y-41920235D01*
X110973434Y-42619882D01*
X111073731Y-42466369D01*
X111173587Y-42238717D01*
X111234612Y-41997738D01*
X111234614Y-41997729D01*
X111255141Y-41750005D01*
X111255141Y-41749994D01*
X114744859Y-41749994D01*
X114744859Y-41750005D01*
X114765385Y-41997729D01*
X114765387Y-41997738D01*
X114826412Y-42238717D01*
X114926266Y-42466364D01*
X115026564Y-42619882D01*
X115726212Y-41920234D01*
X115737482Y-41962292D01*
X115809890Y-42087708D01*
X115912292Y-42190110D01*
X116037708Y-42262518D01*
X116079765Y-42273787D01*
X115379942Y-42973609D01*
X115426768Y-43010055D01*
X115426770Y-43010056D01*
X115645385Y-43128364D01*
X115645396Y-43128369D01*
X115880506Y-43209083D01*
X116125707Y-43250000D01*
X116374293Y-43250000D01*
X116619493Y-43209083D01*
X116854603Y-43128369D01*
X116854614Y-43128364D01*
X117073228Y-43010057D01*
X117073231Y-43010055D01*
X117120056Y-42973609D01*
X116420234Y-42273787D01*
X116462292Y-42262518D01*
X116587708Y-42190110D01*
X116690110Y-42087708D01*
X116762518Y-41962292D01*
X116773787Y-41920235D01*
X117473434Y-42619882D01*
X117573731Y-42466369D01*
X117673587Y-42238717D01*
X117734612Y-41997738D01*
X117734614Y-41997729D01*
X117755141Y-41750005D01*
X117755141Y-41749994D01*
X117734614Y-41502270D01*
X117734612Y-41502261D01*
X117673587Y-41261282D01*
X117573731Y-41033630D01*
X117473434Y-40880116D01*
X116773787Y-41579764D01*
X116762518Y-41537708D01*
X116690110Y-41412292D01*
X116587708Y-41309890D01*
X116462292Y-41237482D01*
X116420235Y-41226212D01*
X117120057Y-40526390D01*
X117120056Y-40526389D01*
X117073229Y-40489943D01*
X116854614Y-40371635D01*
X116854603Y-40371630D01*
X116619493Y-40290916D01*
X116374293Y-40250000D01*
X116125707Y-40250000D01*
X115880506Y-40290916D01*
X115645396Y-40371630D01*
X115645390Y-40371632D01*
X115426761Y-40489949D01*
X115379942Y-40526388D01*
X115379942Y-40526390D01*
X116079765Y-41226212D01*
X116037708Y-41237482D01*
X115912292Y-41309890D01*
X115809890Y-41412292D01*
X115737482Y-41537708D01*
X115726212Y-41579764D01*
X115026564Y-40880116D01*
X114926267Y-41033632D01*
X114826412Y-41261282D01*
X114765387Y-41502261D01*
X114765385Y-41502270D01*
X114744859Y-41749994D01*
X111255141Y-41749994D01*
X111234614Y-41502270D01*
X111234612Y-41502261D01*
X111173587Y-41261282D01*
X111073731Y-41033630D01*
X110973434Y-40880116D01*
X110273787Y-41579764D01*
X110262518Y-41537708D01*
X110190110Y-41412292D01*
X110087708Y-41309890D01*
X109962292Y-41237482D01*
X109920235Y-41226212D01*
X110620057Y-40526390D01*
X110620056Y-40526389D01*
X110573229Y-40489943D01*
X110354614Y-40371635D01*
X110354603Y-40371630D01*
X110119493Y-40290916D01*
X109874293Y-40250000D01*
X109625707Y-40250000D01*
X109380506Y-40290916D01*
X109145396Y-40371630D01*
X109145390Y-40371632D01*
X108926761Y-40489949D01*
X108879942Y-40526388D01*
X108879942Y-40526390D01*
X109579765Y-41226212D01*
X109537708Y-41237482D01*
X109412292Y-41309890D01*
X109309890Y-41412292D01*
X109237482Y-41537708D01*
X109226212Y-41579764D01*
X108526564Y-40880116D01*
X108426267Y-41033632D01*
X108326412Y-41261282D01*
X108265387Y-41502261D01*
X108265385Y-41502270D01*
X108244859Y-41749994D01*
X101783123Y-41749994D01*
X101769693Y-41647986D01*
X101708606Y-41420007D01*
X101618284Y-41201951D01*
X101618282Y-41201948D01*
X101618280Y-41201943D01*
X101576118Y-41128918D01*
X101500273Y-40997550D01*
X101356592Y-40810301D01*
X101356587Y-40810295D01*
X101189704Y-40643412D01*
X101189697Y-40643406D01*
X101002454Y-40499730D01*
X101002453Y-40499729D01*
X101002450Y-40499727D01*
X100920957Y-40452677D01*
X100798056Y-40381719D01*
X100798045Y-40381714D01*
X100579993Y-40291394D01*
X100352010Y-40230306D01*
X100118020Y-40199501D01*
X100118017Y-40199500D01*
X100118011Y-40199500D01*
X99881989Y-40199500D01*
X99881983Y-40199500D01*
X99881979Y-40199501D01*
X99647989Y-40230306D01*
X99420006Y-40291394D01*
X99201954Y-40381714D01*
X99201943Y-40381719D01*
X98997545Y-40499730D01*
X98810302Y-40643406D01*
X98810295Y-40643412D01*
X98643412Y-40810295D01*
X98643406Y-40810302D01*
X98499730Y-40997545D01*
X98381719Y-41201943D01*
X98381714Y-41201954D01*
X98291394Y-41420006D01*
X98230306Y-41647989D01*
X98199501Y-41881979D01*
X98199500Y-41881995D01*
X66800500Y-41881995D01*
X66800500Y-41881989D01*
X66769693Y-41647986D01*
X66708606Y-41420007D01*
X66618284Y-41201951D01*
X66618282Y-41201948D01*
X66618280Y-41201943D01*
X66576118Y-41128918D01*
X66500273Y-40997550D01*
X66356592Y-40810301D01*
X66356587Y-40810295D01*
X66189704Y-40643412D01*
X66189697Y-40643406D01*
X66002454Y-40499730D01*
X66002453Y-40499729D01*
X66002450Y-40499727D01*
X65920957Y-40452677D01*
X65798056Y-40381719D01*
X65798045Y-40381714D01*
X65579993Y-40291394D01*
X65352010Y-40230306D01*
X65118020Y-40199501D01*
X65118017Y-40199500D01*
X65118011Y-40199500D01*
X64881989Y-40199500D01*
X64881983Y-40199500D01*
X64881979Y-40199501D01*
X64647989Y-40230306D01*
X64420006Y-40291394D01*
X64201954Y-40381714D01*
X64201943Y-40381719D01*
X63997545Y-40499730D01*
X63810302Y-40643406D01*
X63810295Y-40643412D01*
X63643412Y-40810295D01*
X63643406Y-40810302D01*
X63499730Y-40997545D01*
X63381719Y-41201943D01*
X63381714Y-41201954D01*
X63291394Y-41420006D01*
X63230306Y-41647989D01*
X63199501Y-41881979D01*
X63199500Y-41881995D01*
X46500000Y-41881995D01*
X46500000Y-38124000D01*
X46519685Y-38056961D01*
X46572489Y-38011206D01*
X46624000Y-38000000D01*
X118376000Y-38000000D01*
X118443039Y-38019685D01*
G37*
%TD.AperFunction*%
%TD*%
M02*
