M48
; DRILL file {KiCad 8.0.6} date 2024-10-29T14:36:39-0500
; FORMAT={-:-/ absolute / inch / decimal}
; #@! TF.CreationDate,2024-10-29T14:36:39-05:00
; #@! TF.GenerationSoftware,Kicad,Pcbnew,8.0.6
; #@! TF.FileFunction,Plated,1,2,PTH
FMAT,2
INCH
; #@! TA.AperFunction,Plated,PTH,ViaDrill
T1C0.0118
; #@! TA.AperFunction,Plated,PTH,ComponentDrill
T2C0.0157
; #@! TA.AperFunction,Plated,PTH,ComponentDrill
T3C0.0236
; #@! TA.AperFunction,Plated,PTH,ComponentDrill
T4C0.0295
; #@! TA.AperFunction,Plated,PTH,ComponentDrill
T5C0.0315
; #@! TA.AperFunction,Plated,PTH,ComponentDrill
T6C0.0394
; #@! TA.AperFunction,Plated,PTH,ComponentDrill
T7C0.0433
%
G90
G05
T1
X1.9291Y-3.0906
X1.9488Y-2.7362
X1.9488Y-3.6614
X1.9488Y-3.8976
X1.9488Y-5.1772
X1.9882Y-2.2441
X1.9882Y-4.311
X2.0079Y-2.9134
X2.0276Y-5.4134
X2.0472Y-1.6929
X2.0866Y-2.4016
X2.0866Y-4.0551
X2.1063Y-4.8819
X2.126Y-4.5669
X2.1457Y-2.9331
X2.1457Y-5.2953
X2.1654Y-3.7598
X2.185Y-5.0984
X2.2047Y-2.6575
X2.2047Y-3.0709
X2.2244Y-2.3947
X2.2638Y-1.7717
X2.2638Y-4.311
X2.3031Y-2.6575
X2.3152Y-3.8047
X2.3228Y-2.1654
X2.3228Y-2.3947
X2.3228Y-4.1535
X2.3228Y-4.9016
X2.3425Y-3.3071
X2.3425Y-3.9764
X2.373Y-3.4843
X2.3819Y-3.0118
X2.3819Y-3.3268
X2.3819Y-3.8386
X2.3819Y-4.0157
X2.3819Y-4.2717
X2.4016Y-4.5276
X2.4213Y-3.3268
X2.4213Y-4.3701
X2.4409Y-3.0906
X2.4409Y-5.1969
X2.4606Y-2.3947
X2.4606Y-3.189
X2.4803Y-3.878
X2.4803Y-3.937
X2.5Y-3.0315
X2.5197Y-2.2441
X2.5197Y-2.815
X2.5197Y-5.0197
X2.5218Y-3.9754
X2.5228Y-3.3065
X2.5394Y-2.9921
X2.5394Y-3.7402
X2.5394Y-4.2323
X2.5394Y-5.6299
X2.5591Y-4.8622
X2.5669Y-3.7717
X2.5787Y-3.4449
X2.5787Y-3.5837
X2.5984Y-2.4213
X2.5984Y-3.2874
X2.5984Y-4.2323
X2.6181Y-3.7992
X2.6181Y-4.0945
X2.6181Y-5.374
X2.6378Y-2.6378
X2.6378Y-3.4252
X2.6378Y-3.5236
X2.6575Y-2.9134
X2.6575Y-3.2874
X2.6575Y-5.748
X2.6772Y-3.8406
X2.687Y-3.8878
X2.6969Y-3.4646
X2.715Y-3.0497
X2.7264Y-3.8878
X2.7362Y-4.1929
X2.7527Y-3.708
X2.7559Y-4.7244
X2.7657Y-3.8878
X2.7756Y-3.0906
X2.7756Y-5.6496
X2.7894Y-3.9141
X2.7942Y-3.7037
X2.7953Y-3.3071
X2.7953Y-5.1969
X2.811Y-3.937
X2.815Y-2.7559
X2.815Y-3.3661
X2.8346Y-2.4803
X2.8346Y-3.1102
X2.8346Y-3.3071
X2.8346Y-3.4449
X2.8543Y-3.0118
X2.8554Y-3.5236
X2.874Y-1.9291
X2.874Y-4.8819
X2.8886Y-4.9694
X2.8937Y-1.7126
X2.8937Y-3.7402
X2.8937Y-4.5079
X2.9134Y-3.2087
X2.9134Y-4.7244
X2.9134Y-5.6693
X2.9331Y-3.0709
X2.9528Y-3.8583
X2.9528Y-5.374
X2.9724Y-4.2913
X2.9803Y-3.3687
X2.9902Y-3.2087
X2.9921Y-3.8976
X2.9921Y-4.5217
X2.9921Y-4.5866
X3.004Y-3.345
X3.0118Y-2.0669
X3.0118Y-2.5984
X3.0118Y-5.2185
X3.0148Y-4.4882
X3.0315Y-3.3071
X3.0315Y-3.5236
X3.0315Y-5.7087
X3.0512Y-2.7362
X3.0512Y-3.2087
X3.0512Y-4.626
X3.0512Y-4.7244
X3.0709Y-3.0512
X3.0906Y-4.5797
X3.0906Y-4.8031
X3.1102Y-3.1732
X3.1299Y-1.7913
X3.1299Y-4.7638
X3.1496Y-3.5236
X3.1496Y-5.7087
X3.189Y-2.3031
X3.189Y-5.3937
X3.2087Y-3.6024
X3.2283Y-4.311
X3.2283Y-4.5472
X3.248Y-2.0866
X3.248Y-3.8976
X3.248Y-4.3701
X3.248Y-4.6457
X3.248Y-4.7835
X3.248Y-5.4921
X3.2874Y-5.6693
X3.3268Y-3.2677
X3.3465Y-2.8346
X3.3465Y-5.315
X3.3661Y-2.5197
X3.3661Y-5.4528
X3.3858Y-2.2244
X3.4321Y-2.815
X3.4449Y-1.8701
X3.4449Y-3.5236
X3.4646Y-4.1339
X3.4646Y-4.9016
X3.5039Y-3.3858
X3.5236Y-4.685
X3.5433Y-3.7008
X3.5433Y-5.1575
X3.5827Y-5.689
X3.6024Y-4.3504
X3.6614Y-2.2441
X3.7008Y-2.8543
X3.7205Y-1.811
X3.7205Y-3.1693
X3.7402Y-2.0472
X3.7598Y-3.3465
X3.7598Y-3.9173
X3.7795Y-1.6339
X3.7795Y-2.6575
X3.7992Y-5.3937
X3.8583Y-4.5866
X3.878Y-4.1339
X3.9173Y-2.3819
X3.9173Y-2.9528
X3.9173Y-3.2283
X3.9173Y-3.4055
X3.9567Y-2.6378
X4.0157Y-1.7717
X4.0157Y-3.7008
X4.0157Y-5.689
X4.0354Y-4.2717
X4.0354Y-5.1575
X4.0551Y-2.4213
X4.0551Y-3.3071
X4.0551Y-3.5236
X4.1142Y-3.1299
X4.1535Y-2.185
X4.1535Y-2.7362
X4.1535Y-4.9606
X4.1732Y-2.3819
X4.1732Y-3.4252
X4.1929Y-2.9921
X4.1929Y-4.5472
X4.6063Y-4.5669
X4.6063Y-5.4331
T2
X2.9144Y-5.5567
X2.9144Y-5.6098
X2.9478Y-5.5567
X2.9478Y-5.6098
X2.9813Y-5.5567
X2.9813Y-5.6098
X3.0148Y-5.5567
X3.0148Y-5.6098
X3.0482Y-5.5567
X3.0482Y-5.6098
X3.0817Y-5.5567
X3.0817Y-5.6098
X3.1152Y-5.5567
X3.1152Y-5.6098
X3.1486Y-5.5567
X3.1486Y-5.6098
T4
X2.3519Y-4.7942
X2.4307Y-4.7942
T5
X2.1457Y-3.3091
X2.1457Y-3.5012
T6
X1.9488Y-4.7047
X1.9488Y-4.8031
X1.9488Y-4.9016
X2.1197Y-1.9669
X2.1197Y-2.0669
X2.2197Y-1.9669
X2.2197Y-2.0669
X2.3197Y-1.9669
X2.3197Y-2.0669
X2.4197Y-1.9669
X2.4197Y-2.0669
X2.5197Y-1.9669
X2.5197Y-2.0669
X3.2274Y-2.9413
X3.2274Y-3.0413
X3.3274Y-2.9413
X3.3274Y-3.0413
X3.4274Y-2.9413
X3.4274Y-3.0413
T7
X1.9193Y-5.4823
X1.9193Y-5.6594
X2.1752Y-5.4823
X2.1752Y-5.6594
X4.3209Y-1.6437
X4.3209Y-1.8209
X4.3209Y-2.0779
X4.3209Y-2.255
X4.3209Y-2.512
X4.3209Y-2.6892
X4.3209Y-2.9462
X4.3209Y-3.1234
X4.3209Y-3.3804
X4.3209Y-3.5575
X4.3209Y-3.8145
X4.3209Y-3.9917
X4.3209Y-4.2487
X4.3209Y-4.4259
X4.3209Y-4.6829
X4.3209Y-4.86
X4.3209Y-5.117
X4.3209Y-5.2942
X4.3209Y-5.5512
X4.3209Y-5.7283
X4.5768Y-1.6437
X4.5768Y-1.8209
X4.5768Y-2.0779
X4.5768Y-2.255
X4.5768Y-2.512
X4.5768Y-2.6892
X4.5768Y-2.9462
X4.5768Y-3.1234
X4.5768Y-3.3804
X4.5768Y-3.5575
X4.5768Y-3.8145
X4.5768Y-3.9917
X4.5768Y-4.2487
X4.5768Y-4.4259
X4.5768Y-4.6829
X4.5768Y-4.86
X4.5768Y-5.117
X4.5768Y-5.2942
X4.5768Y-5.5512
X4.5768Y-5.7283
T3
G00X2.8612Y-5.5657
M15
G01X2.8612Y-5.6248
M16
G05
G00X2.8612Y-5.7126
M15
G01X2.8612Y-5.7441
M16
G05
G00X3.2018Y-5.5657
M15
G01X3.2018Y-5.6248
M16
G05
G00X3.2018Y-5.7126
M15
G01X3.2018Y-5.7441
M16
G05
M30
