%TF.GenerationSoftware,KiCad,Pcbnew,8.0.6*%
%TF.CreationDate,2024-10-29T14:36:32-05:00*%
%TF.ProjectId,tokenizer,746f6b65-6e69-47a6-9572-2e6b69636164,rev?*%
%TF.SameCoordinates,Original*%
%TF.FileFunction,Legend,Top*%
%TF.FilePolarity,Positive*%
%FSLAX46Y46*%
G04 Gerber Fmt 4.6, Leading zero omitted, Abs format (unit mm)*
G04 Created by KiCad (PCBNEW 8.0.6) date 2024-10-29 14:36:32*
%MOMM*%
%LPD*%
G01*
G04 APERTURE LIST*
%ADD10C,0.150000*%
%ADD11C,0.254000*%
%ADD12C,0.120000*%
%ADD13C,0.100000*%
%ADD14C,0.200000*%
%ADD15C,0.152400*%
G04 APERTURE END LIST*
D10*
X111666667Y-92768315D02*
X111809524Y-92815934D01*
X111809524Y-92815934D02*
X112047619Y-92815934D01*
X112047619Y-92815934D02*
X112142857Y-92768315D01*
X112142857Y-92768315D02*
X112190476Y-92720695D01*
X112190476Y-92720695D02*
X112238095Y-92625457D01*
X112238095Y-92625457D02*
X112238095Y-92530219D01*
X112238095Y-92530219D02*
X112190476Y-92434981D01*
X112190476Y-92434981D02*
X112142857Y-92387362D01*
X112142857Y-92387362D02*
X112047619Y-92339743D01*
X112047619Y-92339743D02*
X111857143Y-92292124D01*
X111857143Y-92292124D02*
X111761905Y-92244505D01*
X111761905Y-92244505D02*
X111714286Y-92196886D01*
X111714286Y-92196886D02*
X111666667Y-92101648D01*
X111666667Y-92101648D02*
X111666667Y-92006410D01*
X111666667Y-92006410D02*
X111714286Y-91911172D01*
X111714286Y-91911172D02*
X111761905Y-91863553D01*
X111761905Y-91863553D02*
X111857143Y-91815934D01*
X111857143Y-91815934D02*
X112095238Y-91815934D01*
X112095238Y-91815934D02*
X112238095Y-91863553D01*
X112571429Y-91815934D02*
X112809524Y-92815934D01*
X112809524Y-92815934D02*
X113000000Y-92101648D01*
X113000000Y-92101648D02*
X113190476Y-92815934D01*
X113190476Y-92815934D02*
X113428572Y-91815934D01*
X113714286Y-91815934D02*
X114380952Y-91815934D01*
X114380952Y-91815934D02*
X113952381Y-92815934D01*
X111666667Y-125851646D02*
X111809524Y-125899265D01*
X111809524Y-125899265D02*
X112047619Y-125899265D01*
X112047619Y-125899265D02*
X112142857Y-125851646D01*
X112142857Y-125851646D02*
X112190476Y-125804026D01*
X112190476Y-125804026D02*
X112238095Y-125708788D01*
X112238095Y-125708788D02*
X112238095Y-125613550D01*
X112238095Y-125613550D02*
X112190476Y-125518312D01*
X112190476Y-125518312D02*
X112142857Y-125470693D01*
X112142857Y-125470693D02*
X112047619Y-125423074D01*
X112047619Y-125423074D02*
X111857143Y-125375455D01*
X111857143Y-125375455D02*
X111761905Y-125327836D01*
X111761905Y-125327836D02*
X111714286Y-125280217D01*
X111714286Y-125280217D02*
X111666667Y-125184979D01*
X111666667Y-125184979D02*
X111666667Y-125089741D01*
X111666667Y-125089741D02*
X111714286Y-124994503D01*
X111714286Y-124994503D02*
X111761905Y-124946884D01*
X111761905Y-124946884D02*
X111857143Y-124899265D01*
X111857143Y-124899265D02*
X112095238Y-124899265D01*
X112095238Y-124899265D02*
X112238095Y-124946884D01*
X112571429Y-124899265D02*
X112809524Y-125899265D01*
X112809524Y-125899265D02*
X113000000Y-125184979D01*
X113000000Y-125184979D02*
X113190476Y-125899265D01*
X113190476Y-125899265D02*
X113428572Y-124899265D01*
X114238095Y-125232598D02*
X114238095Y-125899265D01*
X114000000Y-124851646D02*
X113761905Y-125565931D01*
X113761905Y-125565931D02*
X114380952Y-125565931D01*
X111666667Y-136879423D02*
X111809524Y-136927042D01*
X111809524Y-136927042D02*
X112047619Y-136927042D01*
X112047619Y-136927042D02*
X112142857Y-136879423D01*
X112142857Y-136879423D02*
X112190476Y-136831803D01*
X112190476Y-136831803D02*
X112238095Y-136736565D01*
X112238095Y-136736565D02*
X112238095Y-136641327D01*
X112238095Y-136641327D02*
X112190476Y-136546089D01*
X112190476Y-136546089D02*
X112142857Y-136498470D01*
X112142857Y-136498470D02*
X112047619Y-136450851D01*
X112047619Y-136450851D02*
X111857143Y-136403232D01*
X111857143Y-136403232D02*
X111761905Y-136355613D01*
X111761905Y-136355613D02*
X111714286Y-136307994D01*
X111714286Y-136307994D02*
X111666667Y-136212756D01*
X111666667Y-136212756D02*
X111666667Y-136117518D01*
X111666667Y-136117518D02*
X111714286Y-136022280D01*
X111714286Y-136022280D02*
X111761905Y-135974661D01*
X111761905Y-135974661D02*
X111857143Y-135927042D01*
X111857143Y-135927042D02*
X112095238Y-135927042D01*
X112095238Y-135927042D02*
X112238095Y-135974661D01*
X112571429Y-135927042D02*
X112809524Y-136927042D01*
X112809524Y-136927042D02*
X113000000Y-136212756D01*
X113000000Y-136212756D02*
X113190476Y-136927042D01*
X113190476Y-136927042D02*
X113428572Y-135927042D01*
X113714286Y-135927042D02*
X114333333Y-135927042D01*
X114333333Y-135927042D02*
X114000000Y-136307994D01*
X114000000Y-136307994D02*
X114142857Y-136307994D01*
X114142857Y-136307994D02*
X114238095Y-136355613D01*
X114238095Y-136355613D02*
X114285714Y-136403232D01*
X114285714Y-136403232D02*
X114333333Y-136498470D01*
X114333333Y-136498470D02*
X114333333Y-136736565D01*
X114333333Y-136736565D02*
X114285714Y-136831803D01*
X114285714Y-136831803D02*
X114238095Y-136879423D01*
X114238095Y-136879423D02*
X114142857Y-136927042D01*
X114142857Y-136927042D02*
X113857143Y-136927042D01*
X113857143Y-136927042D02*
X113761905Y-136879423D01*
X113761905Y-136879423D02*
X113714286Y-136831803D01*
X47154819Y-64333333D02*
X47869104Y-64333333D01*
X47869104Y-64333333D02*
X48011961Y-64380952D01*
X48011961Y-64380952D02*
X48107200Y-64476190D01*
X48107200Y-64476190D02*
X48154819Y-64619047D01*
X48154819Y-64619047D02*
X48154819Y-64714285D01*
X48154819Y-63857142D02*
X47154819Y-63857142D01*
X47154819Y-63857142D02*
X47154819Y-63476190D01*
X47154819Y-63476190D02*
X47202438Y-63380952D01*
X47202438Y-63380952D02*
X47250057Y-63333333D01*
X47250057Y-63333333D02*
X47345295Y-63285714D01*
X47345295Y-63285714D02*
X47488152Y-63285714D01*
X47488152Y-63285714D02*
X47583390Y-63333333D01*
X47583390Y-63333333D02*
X47631009Y-63380952D01*
X47631009Y-63380952D02*
X47678628Y-63476190D01*
X47678628Y-63476190D02*
X47678628Y-63857142D01*
X48154819Y-62333333D02*
X48154819Y-62904761D01*
X48154819Y-62619047D02*
X47154819Y-62619047D01*
X47154819Y-62619047D02*
X47297676Y-62714285D01*
X47297676Y-62714285D02*
X47392914Y-62809523D01*
X47392914Y-62809523D02*
X47440533Y-62904761D01*
X74954819Y-129666666D02*
X74478628Y-129999999D01*
X74954819Y-130238094D02*
X73954819Y-130238094D01*
X73954819Y-130238094D02*
X73954819Y-129857142D01*
X73954819Y-129857142D02*
X74002438Y-129761904D01*
X74002438Y-129761904D02*
X74050057Y-129714285D01*
X74050057Y-129714285D02*
X74145295Y-129666666D01*
X74145295Y-129666666D02*
X74288152Y-129666666D01*
X74288152Y-129666666D02*
X74383390Y-129714285D01*
X74383390Y-129714285D02*
X74431009Y-129761904D01*
X74431009Y-129761904D02*
X74478628Y-129857142D01*
X74478628Y-129857142D02*
X74478628Y-130238094D01*
X73954819Y-129333332D02*
X73954819Y-128714285D01*
X73954819Y-128714285D02*
X74335771Y-129047618D01*
X74335771Y-129047618D02*
X74335771Y-128904761D01*
X74335771Y-128904761D02*
X74383390Y-128809523D01*
X74383390Y-128809523D02*
X74431009Y-128761904D01*
X74431009Y-128761904D02*
X74526247Y-128714285D01*
X74526247Y-128714285D02*
X74764342Y-128714285D01*
X74764342Y-128714285D02*
X74859580Y-128761904D01*
X74859580Y-128761904D02*
X74907200Y-128809523D01*
X74907200Y-128809523D02*
X74954819Y-128904761D01*
X74954819Y-128904761D02*
X74954819Y-129190475D01*
X74954819Y-129190475D02*
X74907200Y-129285713D01*
X74907200Y-129285713D02*
X74859580Y-129333332D01*
X111666667Y-139407200D02*
X111809524Y-139454819D01*
X111809524Y-139454819D02*
X112047619Y-139454819D01*
X112047619Y-139454819D02*
X112142857Y-139407200D01*
X112142857Y-139407200D02*
X112190476Y-139359580D01*
X112190476Y-139359580D02*
X112238095Y-139264342D01*
X112238095Y-139264342D02*
X112238095Y-139169104D01*
X112238095Y-139169104D02*
X112190476Y-139073866D01*
X112190476Y-139073866D02*
X112142857Y-139026247D01*
X112142857Y-139026247D02*
X112047619Y-138978628D01*
X112047619Y-138978628D02*
X111857143Y-138931009D01*
X111857143Y-138931009D02*
X111761905Y-138883390D01*
X111761905Y-138883390D02*
X111714286Y-138835771D01*
X111714286Y-138835771D02*
X111666667Y-138740533D01*
X111666667Y-138740533D02*
X111666667Y-138645295D01*
X111666667Y-138645295D02*
X111714286Y-138550057D01*
X111714286Y-138550057D02*
X111761905Y-138502438D01*
X111761905Y-138502438D02*
X111857143Y-138454819D01*
X111857143Y-138454819D02*
X112095238Y-138454819D01*
X112095238Y-138454819D02*
X112238095Y-138502438D01*
X112571429Y-138454819D02*
X112809524Y-139454819D01*
X112809524Y-139454819D02*
X113000000Y-138740533D01*
X113000000Y-138740533D02*
X113190476Y-139454819D01*
X113190476Y-139454819D02*
X113428572Y-138454819D01*
X113761905Y-138550057D02*
X113809524Y-138502438D01*
X113809524Y-138502438D02*
X113904762Y-138454819D01*
X113904762Y-138454819D02*
X114142857Y-138454819D01*
X114142857Y-138454819D02*
X114238095Y-138502438D01*
X114238095Y-138502438D02*
X114285714Y-138550057D01*
X114285714Y-138550057D02*
X114333333Y-138645295D01*
X114333333Y-138645295D02*
X114333333Y-138740533D01*
X114333333Y-138740533D02*
X114285714Y-138883390D01*
X114285714Y-138883390D02*
X113714286Y-139454819D01*
X113714286Y-139454819D02*
X114333333Y-139454819D01*
X64238095Y-136254819D02*
X64238095Y-135254819D01*
X64238095Y-135731009D02*
X64809523Y-135731009D01*
X64809523Y-136254819D02*
X64809523Y-135254819D01*
X65809523Y-136254819D02*
X65238095Y-136254819D01*
X65523809Y-136254819D02*
X65523809Y-135254819D01*
X65523809Y-135254819D02*
X65428571Y-135397676D01*
X65428571Y-135397676D02*
X65333333Y-135492914D01*
X65333333Y-135492914D02*
X65238095Y-135540533D01*
X59333333Y-87359580D02*
X59285714Y-87407200D01*
X59285714Y-87407200D02*
X59142857Y-87454819D01*
X59142857Y-87454819D02*
X59047619Y-87454819D01*
X59047619Y-87454819D02*
X58904762Y-87407200D01*
X58904762Y-87407200D02*
X58809524Y-87311961D01*
X58809524Y-87311961D02*
X58761905Y-87216723D01*
X58761905Y-87216723D02*
X58714286Y-87026247D01*
X58714286Y-87026247D02*
X58714286Y-86883390D01*
X58714286Y-86883390D02*
X58761905Y-86692914D01*
X58761905Y-86692914D02*
X58809524Y-86597676D01*
X58809524Y-86597676D02*
X58904762Y-86502438D01*
X58904762Y-86502438D02*
X59047619Y-86454819D01*
X59047619Y-86454819D02*
X59142857Y-86454819D01*
X59142857Y-86454819D02*
X59285714Y-86502438D01*
X59285714Y-86502438D02*
X59333333Y-86550057D01*
X60238095Y-86454819D02*
X59761905Y-86454819D01*
X59761905Y-86454819D02*
X59714286Y-86931009D01*
X59714286Y-86931009D02*
X59761905Y-86883390D01*
X59761905Y-86883390D02*
X59857143Y-86835771D01*
X59857143Y-86835771D02*
X60095238Y-86835771D01*
X60095238Y-86835771D02*
X60190476Y-86883390D01*
X60190476Y-86883390D02*
X60238095Y-86931009D01*
X60238095Y-86931009D02*
X60285714Y-87026247D01*
X60285714Y-87026247D02*
X60285714Y-87264342D01*
X60285714Y-87264342D02*
X60238095Y-87359580D01*
X60238095Y-87359580D02*
X60190476Y-87407200D01*
X60190476Y-87407200D02*
X60095238Y-87454819D01*
X60095238Y-87454819D02*
X59857143Y-87454819D01*
X59857143Y-87454819D02*
X59761905Y-87407200D01*
X59761905Y-87407200D02*
X59714286Y-87359580D01*
X87104819Y-141666666D02*
X86628628Y-141999999D01*
X87104819Y-142238094D02*
X86104819Y-142238094D01*
X86104819Y-142238094D02*
X86104819Y-141857142D01*
X86104819Y-141857142D02*
X86152438Y-141761904D01*
X86152438Y-141761904D02*
X86200057Y-141714285D01*
X86200057Y-141714285D02*
X86295295Y-141666666D01*
X86295295Y-141666666D02*
X86438152Y-141666666D01*
X86438152Y-141666666D02*
X86533390Y-141714285D01*
X86533390Y-141714285D02*
X86581009Y-141761904D01*
X86581009Y-141761904D02*
X86628628Y-141857142D01*
X86628628Y-141857142D02*
X86628628Y-142238094D01*
X86200057Y-141285713D02*
X86152438Y-141238094D01*
X86152438Y-141238094D02*
X86104819Y-141142856D01*
X86104819Y-141142856D02*
X86104819Y-140904761D01*
X86104819Y-140904761D02*
X86152438Y-140809523D01*
X86152438Y-140809523D02*
X86200057Y-140761904D01*
X86200057Y-140761904D02*
X86295295Y-140714285D01*
X86295295Y-140714285D02*
X86390533Y-140714285D01*
X86390533Y-140714285D02*
X86533390Y-140761904D01*
X86533390Y-140761904D02*
X87104819Y-141333332D01*
X87104819Y-141333332D02*
X87104819Y-140714285D01*
X78857142Y-95359580D02*
X78809523Y-95407200D01*
X78809523Y-95407200D02*
X78666666Y-95454819D01*
X78666666Y-95454819D02*
X78571428Y-95454819D01*
X78571428Y-95454819D02*
X78428571Y-95407200D01*
X78428571Y-95407200D02*
X78333333Y-95311961D01*
X78333333Y-95311961D02*
X78285714Y-95216723D01*
X78285714Y-95216723D02*
X78238095Y-95026247D01*
X78238095Y-95026247D02*
X78238095Y-94883390D01*
X78238095Y-94883390D02*
X78285714Y-94692914D01*
X78285714Y-94692914D02*
X78333333Y-94597676D01*
X78333333Y-94597676D02*
X78428571Y-94502438D01*
X78428571Y-94502438D02*
X78571428Y-94454819D01*
X78571428Y-94454819D02*
X78666666Y-94454819D01*
X78666666Y-94454819D02*
X78809523Y-94502438D01*
X78809523Y-94502438D02*
X78857142Y-94550057D01*
X79809523Y-95454819D02*
X79238095Y-95454819D01*
X79523809Y-95454819D02*
X79523809Y-94454819D01*
X79523809Y-94454819D02*
X79428571Y-94597676D01*
X79428571Y-94597676D02*
X79333333Y-94692914D01*
X79333333Y-94692914D02*
X79238095Y-94740533D01*
X80380952Y-94883390D02*
X80285714Y-94835771D01*
X80285714Y-94835771D02*
X80238095Y-94788152D01*
X80238095Y-94788152D02*
X80190476Y-94692914D01*
X80190476Y-94692914D02*
X80190476Y-94645295D01*
X80190476Y-94645295D02*
X80238095Y-94550057D01*
X80238095Y-94550057D02*
X80285714Y-94502438D01*
X80285714Y-94502438D02*
X80380952Y-94454819D01*
X80380952Y-94454819D02*
X80571428Y-94454819D01*
X80571428Y-94454819D02*
X80666666Y-94502438D01*
X80666666Y-94502438D02*
X80714285Y-94550057D01*
X80714285Y-94550057D02*
X80761904Y-94645295D01*
X80761904Y-94645295D02*
X80761904Y-94692914D01*
X80761904Y-94692914D02*
X80714285Y-94788152D01*
X80714285Y-94788152D02*
X80666666Y-94835771D01*
X80666666Y-94835771D02*
X80571428Y-94883390D01*
X80571428Y-94883390D02*
X80380952Y-94883390D01*
X80380952Y-94883390D02*
X80285714Y-94931009D01*
X80285714Y-94931009D02*
X80238095Y-94978628D01*
X80238095Y-94978628D02*
X80190476Y-95073866D01*
X80190476Y-95073866D02*
X80190476Y-95264342D01*
X80190476Y-95264342D02*
X80238095Y-95359580D01*
X80238095Y-95359580D02*
X80285714Y-95407200D01*
X80285714Y-95407200D02*
X80380952Y-95454819D01*
X80380952Y-95454819D02*
X80571428Y-95454819D01*
X80571428Y-95454819D02*
X80666666Y-95407200D01*
X80666666Y-95407200D02*
X80714285Y-95359580D01*
X80714285Y-95359580D02*
X80761904Y-95264342D01*
X80761904Y-95264342D02*
X80761904Y-95073866D01*
X80761904Y-95073866D02*
X80714285Y-94978628D01*
X80714285Y-94978628D02*
X80666666Y-94931009D01*
X80666666Y-94931009D02*
X80571428Y-94883390D01*
X50978628Y-86476190D02*
X51454819Y-86476190D01*
X50454819Y-86809523D02*
X50978628Y-86476190D01*
X50978628Y-86476190D02*
X50454819Y-86142857D01*
X50454819Y-85904761D02*
X50454819Y-85285714D01*
X50454819Y-85285714D02*
X50835771Y-85619047D01*
X50835771Y-85619047D02*
X50835771Y-85476190D01*
X50835771Y-85476190D02*
X50883390Y-85380952D01*
X50883390Y-85380952D02*
X50931009Y-85333333D01*
X50931009Y-85333333D02*
X51026247Y-85285714D01*
X51026247Y-85285714D02*
X51264342Y-85285714D01*
X51264342Y-85285714D02*
X51359580Y-85333333D01*
X51359580Y-85333333D02*
X51407200Y-85380952D01*
X51407200Y-85380952D02*
X51454819Y-85476190D01*
X51454819Y-85476190D02*
X51454819Y-85761904D01*
X51454819Y-85761904D02*
X51407200Y-85857142D01*
X51407200Y-85857142D02*
X51359580Y-85904761D01*
X81182142Y-134384819D02*
X80848809Y-133908628D01*
X80610714Y-134384819D02*
X80610714Y-133384819D01*
X80610714Y-133384819D02*
X80991666Y-133384819D01*
X80991666Y-133384819D02*
X81086904Y-133432438D01*
X81086904Y-133432438D02*
X81134523Y-133480057D01*
X81134523Y-133480057D02*
X81182142Y-133575295D01*
X81182142Y-133575295D02*
X81182142Y-133718152D01*
X81182142Y-133718152D02*
X81134523Y-133813390D01*
X81134523Y-133813390D02*
X81086904Y-133861009D01*
X81086904Y-133861009D02*
X80991666Y-133908628D01*
X80991666Y-133908628D02*
X80610714Y-133908628D01*
X82134523Y-134384819D02*
X81563095Y-134384819D01*
X81848809Y-134384819D02*
X81848809Y-133384819D01*
X81848809Y-133384819D02*
X81753571Y-133527676D01*
X81753571Y-133527676D02*
X81658333Y-133622914D01*
X81658333Y-133622914D02*
X81563095Y-133670533D01*
X82991666Y-133718152D02*
X82991666Y-134384819D01*
X82753571Y-133337200D02*
X82515476Y-134051485D01*
X82515476Y-134051485D02*
X83134523Y-134051485D01*
X111190476Y-48657200D02*
X111333333Y-48704819D01*
X111333333Y-48704819D02*
X111571428Y-48704819D01*
X111571428Y-48704819D02*
X111666666Y-48657200D01*
X111666666Y-48657200D02*
X111714285Y-48609580D01*
X111714285Y-48609580D02*
X111761904Y-48514342D01*
X111761904Y-48514342D02*
X111761904Y-48419104D01*
X111761904Y-48419104D02*
X111714285Y-48323866D01*
X111714285Y-48323866D02*
X111666666Y-48276247D01*
X111666666Y-48276247D02*
X111571428Y-48228628D01*
X111571428Y-48228628D02*
X111380952Y-48181009D01*
X111380952Y-48181009D02*
X111285714Y-48133390D01*
X111285714Y-48133390D02*
X111238095Y-48085771D01*
X111238095Y-48085771D02*
X111190476Y-47990533D01*
X111190476Y-47990533D02*
X111190476Y-47895295D01*
X111190476Y-47895295D02*
X111238095Y-47800057D01*
X111238095Y-47800057D02*
X111285714Y-47752438D01*
X111285714Y-47752438D02*
X111380952Y-47704819D01*
X111380952Y-47704819D02*
X111619047Y-47704819D01*
X111619047Y-47704819D02*
X111761904Y-47752438D01*
X112095238Y-47704819D02*
X112333333Y-48704819D01*
X112333333Y-48704819D02*
X112523809Y-47990533D01*
X112523809Y-47990533D02*
X112714285Y-48704819D01*
X112714285Y-48704819D02*
X112952381Y-47704819D01*
X113857142Y-48704819D02*
X113285714Y-48704819D01*
X113571428Y-48704819D02*
X113571428Y-47704819D01*
X113571428Y-47704819D02*
X113476190Y-47847676D01*
X113476190Y-47847676D02*
X113380952Y-47942914D01*
X113380952Y-47942914D02*
X113285714Y-47990533D01*
X114809523Y-48704819D02*
X114238095Y-48704819D01*
X114523809Y-48704819D02*
X114523809Y-47704819D01*
X114523809Y-47704819D02*
X114428571Y-47847676D01*
X114428571Y-47847676D02*
X114333333Y-47942914D01*
X114333333Y-47942914D02*
X114238095Y-47990533D01*
X83333333Y-125454819D02*
X83000000Y-124978628D01*
X82761905Y-125454819D02*
X82761905Y-124454819D01*
X82761905Y-124454819D02*
X83142857Y-124454819D01*
X83142857Y-124454819D02*
X83238095Y-124502438D01*
X83238095Y-124502438D02*
X83285714Y-124550057D01*
X83285714Y-124550057D02*
X83333333Y-124645295D01*
X83333333Y-124645295D02*
X83333333Y-124788152D01*
X83333333Y-124788152D02*
X83285714Y-124883390D01*
X83285714Y-124883390D02*
X83238095Y-124931009D01*
X83238095Y-124931009D02*
X83142857Y-124978628D01*
X83142857Y-124978628D02*
X82761905Y-124978628D01*
X84190476Y-124788152D02*
X84190476Y-125454819D01*
X83952381Y-124407200D02*
X83714286Y-125121485D01*
X83714286Y-125121485D02*
X84333333Y-125121485D01*
X78659819Y-76313333D02*
X79374104Y-76313333D01*
X79374104Y-76313333D02*
X79516961Y-76360952D01*
X79516961Y-76360952D02*
X79612200Y-76456190D01*
X79612200Y-76456190D02*
X79659819Y-76599047D01*
X79659819Y-76599047D02*
X79659819Y-76694285D01*
X78993152Y-75408571D02*
X79659819Y-75408571D01*
X78612200Y-75646666D02*
X79326485Y-75884761D01*
X79326485Y-75884761D02*
X79326485Y-75265714D01*
X80454819Y-115666666D02*
X79978628Y-115999999D01*
X80454819Y-116238094D02*
X79454819Y-116238094D01*
X79454819Y-116238094D02*
X79454819Y-115857142D01*
X79454819Y-115857142D02*
X79502438Y-115761904D01*
X79502438Y-115761904D02*
X79550057Y-115714285D01*
X79550057Y-115714285D02*
X79645295Y-115666666D01*
X79645295Y-115666666D02*
X79788152Y-115666666D01*
X79788152Y-115666666D02*
X79883390Y-115714285D01*
X79883390Y-115714285D02*
X79931009Y-115761904D01*
X79931009Y-115761904D02*
X79978628Y-115857142D01*
X79978628Y-115857142D02*
X79978628Y-116238094D01*
X79883390Y-115095237D02*
X79835771Y-115190475D01*
X79835771Y-115190475D02*
X79788152Y-115238094D01*
X79788152Y-115238094D02*
X79692914Y-115285713D01*
X79692914Y-115285713D02*
X79645295Y-115285713D01*
X79645295Y-115285713D02*
X79550057Y-115238094D01*
X79550057Y-115238094D02*
X79502438Y-115190475D01*
X79502438Y-115190475D02*
X79454819Y-115095237D01*
X79454819Y-115095237D02*
X79454819Y-114904761D01*
X79454819Y-114904761D02*
X79502438Y-114809523D01*
X79502438Y-114809523D02*
X79550057Y-114761904D01*
X79550057Y-114761904D02*
X79645295Y-114714285D01*
X79645295Y-114714285D02*
X79692914Y-114714285D01*
X79692914Y-114714285D02*
X79788152Y-114761904D01*
X79788152Y-114761904D02*
X79835771Y-114809523D01*
X79835771Y-114809523D02*
X79883390Y-114904761D01*
X79883390Y-114904761D02*
X79883390Y-115095237D01*
X79883390Y-115095237D02*
X79931009Y-115190475D01*
X79931009Y-115190475D02*
X79978628Y-115238094D01*
X79978628Y-115238094D02*
X80073866Y-115285713D01*
X80073866Y-115285713D02*
X80264342Y-115285713D01*
X80264342Y-115285713D02*
X80359580Y-115238094D01*
X80359580Y-115238094D02*
X80407200Y-115190475D01*
X80407200Y-115190475D02*
X80454819Y-115095237D01*
X80454819Y-115095237D02*
X80454819Y-114904761D01*
X80454819Y-114904761D02*
X80407200Y-114809523D01*
X80407200Y-114809523D02*
X80359580Y-114761904D01*
X80359580Y-114761904D02*
X80264342Y-114714285D01*
X80264342Y-114714285D02*
X80073866Y-114714285D01*
X80073866Y-114714285D02*
X79978628Y-114761904D01*
X79978628Y-114761904D02*
X79931009Y-114809523D01*
X79931009Y-114809523D02*
X79883390Y-114904761D01*
X67666666Y-99304819D02*
X67666666Y-100019104D01*
X67666666Y-100019104D02*
X67619047Y-100161961D01*
X67619047Y-100161961D02*
X67523809Y-100257200D01*
X67523809Y-100257200D02*
X67380952Y-100304819D01*
X67380952Y-100304819D02*
X67285714Y-100304819D01*
X68047619Y-99304819D02*
X68666666Y-99304819D01*
X68666666Y-99304819D02*
X68333333Y-99685771D01*
X68333333Y-99685771D02*
X68476190Y-99685771D01*
X68476190Y-99685771D02*
X68571428Y-99733390D01*
X68571428Y-99733390D02*
X68619047Y-99781009D01*
X68619047Y-99781009D02*
X68666666Y-99876247D01*
X68666666Y-99876247D02*
X68666666Y-100114342D01*
X68666666Y-100114342D02*
X68619047Y-100209580D01*
X68619047Y-100209580D02*
X68571428Y-100257200D01*
X68571428Y-100257200D02*
X68476190Y-100304819D01*
X68476190Y-100304819D02*
X68190476Y-100304819D01*
X68190476Y-100304819D02*
X68095238Y-100257200D01*
X68095238Y-100257200D02*
X68047619Y-100209580D01*
X80857142Y-83359580D02*
X80809523Y-83407200D01*
X80809523Y-83407200D02*
X80666666Y-83454819D01*
X80666666Y-83454819D02*
X80571428Y-83454819D01*
X80571428Y-83454819D02*
X80428571Y-83407200D01*
X80428571Y-83407200D02*
X80333333Y-83311961D01*
X80333333Y-83311961D02*
X80285714Y-83216723D01*
X80285714Y-83216723D02*
X80238095Y-83026247D01*
X80238095Y-83026247D02*
X80238095Y-82883390D01*
X80238095Y-82883390D02*
X80285714Y-82692914D01*
X80285714Y-82692914D02*
X80333333Y-82597676D01*
X80333333Y-82597676D02*
X80428571Y-82502438D01*
X80428571Y-82502438D02*
X80571428Y-82454819D01*
X80571428Y-82454819D02*
X80666666Y-82454819D01*
X80666666Y-82454819D02*
X80809523Y-82502438D01*
X80809523Y-82502438D02*
X80857142Y-82550057D01*
X81809523Y-83454819D02*
X81238095Y-83454819D01*
X81523809Y-83454819D02*
X81523809Y-82454819D01*
X81523809Y-82454819D02*
X81428571Y-82597676D01*
X81428571Y-82597676D02*
X81333333Y-82692914D01*
X81333333Y-82692914D02*
X81238095Y-82740533D01*
X82428571Y-82454819D02*
X82523809Y-82454819D01*
X82523809Y-82454819D02*
X82619047Y-82502438D01*
X82619047Y-82502438D02*
X82666666Y-82550057D01*
X82666666Y-82550057D02*
X82714285Y-82645295D01*
X82714285Y-82645295D02*
X82761904Y-82835771D01*
X82761904Y-82835771D02*
X82761904Y-83073866D01*
X82761904Y-83073866D02*
X82714285Y-83264342D01*
X82714285Y-83264342D02*
X82666666Y-83359580D01*
X82666666Y-83359580D02*
X82619047Y-83407200D01*
X82619047Y-83407200D02*
X82523809Y-83454819D01*
X82523809Y-83454819D02*
X82428571Y-83454819D01*
X82428571Y-83454819D02*
X82333333Y-83407200D01*
X82333333Y-83407200D02*
X82285714Y-83359580D01*
X82285714Y-83359580D02*
X82238095Y-83264342D01*
X82238095Y-83264342D02*
X82190476Y-83073866D01*
X82190476Y-83073866D02*
X82190476Y-82835771D01*
X82190476Y-82835771D02*
X82238095Y-82645295D01*
X82238095Y-82645295D02*
X82285714Y-82550057D01*
X82285714Y-82550057D02*
X82333333Y-82502438D01*
X82333333Y-82502438D02*
X82428571Y-82454819D01*
X57929580Y-143642857D02*
X57977200Y-143690476D01*
X57977200Y-143690476D02*
X58024819Y-143833333D01*
X58024819Y-143833333D02*
X58024819Y-143928571D01*
X58024819Y-143928571D02*
X57977200Y-144071428D01*
X57977200Y-144071428D02*
X57881961Y-144166666D01*
X57881961Y-144166666D02*
X57786723Y-144214285D01*
X57786723Y-144214285D02*
X57596247Y-144261904D01*
X57596247Y-144261904D02*
X57453390Y-144261904D01*
X57453390Y-144261904D02*
X57262914Y-144214285D01*
X57262914Y-144214285D02*
X57167676Y-144166666D01*
X57167676Y-144166666D02*
X57072438Y-144071428D01*
X57072438Y-144071428D02*
X57024819Y-143928571D01*
X57024819Y-143928571D02*
X57024819Y-143833333D01*
X57024819Y-143833333D02*
X57072438Y-143690476D01*
X57072438Y-143690476D02*
X57120057Y-143642857D01*
X58024819Y-142690476D02*
X58024819Y-143261904D01*
X58024819Y-142976190D02*
X57024819Y-142976190D01*
X57024819Y-142976190D02*
X57167676Y-143071428D01*
X57167676Y-143071428D02*
X57262914Y-143166666D01*
X57262914Y-143166666D02*
X57310533Y-143261904D01*
X57024819Y-142357142D02*
X57024819Y-141738095D01*
X57024819Y-141738095D02*
X57405771Y-142071428D01*
X57405771Y-142071428D02*
X57405771Y-141928571D01*
X57405771Y-141928571D02*
X57453390Y-141833333D01*
X57453390Y-141833333D02*
X57501009Y-141785714D01*
X57501009Y-141785714D02*
X57596247Y-141738095D01*
X57596247Y-141738095D02*
X57834342Y-141738095D01*
X57834342Y-141738095D02*
X57929580Y-141785714D01*
X57929580Y-141785714D02*
X57977200Y-141833333D01*
X57977200Y-141833333D02*
X58024819Y-141928571D01*
X58024819Y-141928571D02*
X58024819Y-142214285D01*
X58024819Y-142214285D02*
X57977200Y-142309523D01*
X57977200Y-142309523D02*
X57929580Y-142357142D01*
X76741905Y-136654819D02*
X76741905Y-135654819D01*
X76741905Y-135654819D02*
X76980000Y-135654819D01*
X76980000Y-135654819D02*
X77122857Y-135702438D01*
X77122857Y-135702438D02*
X77218095Y-135797676D01*
X77218095Y-135797676D02*
X77265714Y-135892914D01*
X77265714Y-135892914D02*
X77313333Y-136083390D01*
X77313333Y-136083390D02*
X77313333Y-136226247D01*
X77313333Y-136226247D02*
X77265714Y-136416723D01*
X77265714Y-136416723D02*
X77218095Y-136511961D01*
X77218095Y-136511961D02*
X77122857Y-136607200D01*
X77122857Y-136607200D02*
X76980000Y-136654819D01*
X76980000Y-136654819D02*
X76741905Y-136654819D01*
X78265714Y-136654819D02*
X77694286Y-136654819D01*
X77980000Y-136654819D02*
X77980000Y-135654819D01*
X77980000Y-135654819D02*
X77884762Y-135797676D01*
X77884762Y-135797676D02*
X77789524Y-135892914D01*
X77789524Y-135892914D02*
X77694286Y-135940533D01*
X64179580Y-116142857D02*
X64227200Y-116190476D01*
X64227200Y-116190476D02*
X64274819Y-116333333D01*
X64274819Y-116333333D02*
X64274819Y-116428571D01*
X64274819Y-116428571D02*
X64227200Y-116571428D01*
X64227200Y-116571428D02*
X64131961Y-116666666D01*
X64131961Y-116666666D02*
X64036723Y-116714285D01*
X64036723Y-116714285D02*
X63846247Y-116761904D01*
X63846247Y-116761904D02*
X63703390Y-116761904D01*
X63703390Y-116761904D02*
X63512914Y-116714285D01*
X63512914Y-116714285D02*
X63417676Y-116666666D01*
X63417676Y-116666666D02*
X63322438Y-116571428D01*
X63322438Y-116571428D02*
X63274819Y-116428571D01*
X63274819Y-116428571D02*
X63274819Y-116333333D01*
X63274819Y-116333333D02*
X63322438Y-116190476D01*
X63322438Y-116190476D02*
X63370057Y-116142857D01*
X64274819Y-115190476D02*
X64274819Y-115761904D01*
X64274819Y-115476190D02*
X63274819Y-115476190D01*
X63274819Y-115476190D02*
X63417676Y-115571428D01*
X63417676Y-115571428D02*
X63512914Y-115666666D01*
X63512914Y-115666666D02*
X63560533Y-115761904D01*
X63608152Y-114333333D02*
X64274819Y-114333333D01*
X63227200Y-114571428D02*
X63941485Y-114809523D01*
X63941485Y-114809523D02*
X63941485Y-114190476D01*
X69859580Y-97142857D02*
X69907200Y-97190476D01*
X69907200Y-97190476D02*
X69954819Y-97333333D01*
X69954819Y-97333333D02*
X69954819Y-97428571D01*
X69954819Y-97428571D02*
X69907200Y-97571428D01*
X69907200Y-97571428D02*
X69811961Y-97666666D01*
X69811961Y-97666666D02*
X69716723Y-97714285D01*
X69716723Y-97714285D02*
X69526247Y-97761904D01*
X69526247Y-97761904D02*
X69383390Y-97761904D01*
X69383390Y-97761904D02*
X69192914Y-97714285D01*
X69192914Y-97714285D02*
X69097676Y-97666666D01*
X69097676Y-97666666D02*
X69002438Y-97571428D01*
X69002438Y-97571428D02*
X68954819Y-97428571D01*
X68954819Y-97428571D02*
X68954819Y-97333333D01*
X68954819Y-97333333D02*
X69002438Y-97190476D01*
X69002438Y-97190476D02*
X69050057Y-97142857D01*
X69954819Y-96190476D02*
X69954819Y-96761904D01*
X69954819Y-96476190D02*
X68954819Y-96476190D01*
X68954819Y-96476190D02*
X69097676Y-96571428D01*
X69097676Y-96571428D02*
X69192914Y-96666666D01*
X69192914Y-96666666D02*
X69240533Y-96761904D01*
X69954819Y-95238095D02*
X69954819Y-95809523D01*
X69954819Y-95523809D02*
X68954819Y-95523809D01*
X68954819Y-95523809D02*
X69097676Y-95619047D01*
X69097676Y-95619047D02*
X69192914Y-95714285D01*
X69192914Y-95714285D02*
X69240533Y-95809523D01*
X59333333Y-92359580D02*
X59285714Y-92407200D01*
X59285714Y-92407200D02*
X59142857Y-92454819D01*
X59142857Y-92454819D02*
X59047619Y-92454819D01*
X59047619Y-92454819D02*
X58904762Y-92407200D01*
X58904762Y-92407200D02*
X58809524Y-92311961D01*
X58809524Y-92311961D02*
X58761905Y-92216723D01*
X58761905Y-92216723D02*
X58714286Y-92026247D01*
X58714286Y-92026247D02*
X58714286Y-91883390D01*
X58714286Y-91883390D02*
X58761905Y-91692914D01*
X58761905Y-91692914D02*
X58809524Y-91597676D01*
X58809524Y-91597676D02*
X58904762Y-91502438D01*
X58904762Y-91502438D02*
X59047619Y-91454819D01*
X59047619Y-91454819D02*
X59142857Y-91454819D01*
X59142857Y-91454819D02*
X59285714Y-91502438D01*
X59285714Y-91502438D02*
X59333333Y-91550057D01*
X60190476Y-91454819D02*
X60000000Y-91454819D01*
X60000000Y-91454819D02*
X59904762Y-91502438D01*
X59904762Y-91502438D02*
X59857143Y-91550057D01*
X59857143Y-91550057D02*
X59761905Y-91692914D01*
X59761905Y-91692914D02*
X59714286Y-91883390D01*
X59714286Y-91883390D02*
X59714286Y-92264342D01*
X59714286Y-92264342D02*
X59761905Y-92359580D01*
X59761905Y-92359580D02*
X59809524Y-92407200D01*
X59809524Y-92407200D02*
X59904762Y-92454819D01*
X59904762Y-92454819D02*
X60095238Y-92454819D01*
X60095238Y-92454819D02*
X60190476Y-92407200D01*
X60190476Y-92407200D02*
X60238095Y-92359580D01*
X60238095Y-92359580D02*
X60285714Y-92264342D01*
X60285714Y-92264342D02*
X60285714Y-92026247D01*
X60285714Y-92026247D02*
X60238095Y-91931009D01*
X60238095Y-91931009D02*
X60190476Y-91883390D01*
X60190476Y-91883390D02*
X60095238Y-91835771D01*
X60095238Y-91835771D02*
X59904762Y-91835771D01*
X59904762Y-91835771D02*
X59809524Y-91883390D01*
X59809524Y-91883390D02*
X59761905Y-91931009D01*
X59761905Y-91931009D02*
X59714286Y-92026247D01*
X56357142Y-80024819D02*
X56023809Y-79548628D01*
X55785714Y-80024819D02*
X55785714Y-79024819D01*
X55785714Y-79024819D02*
X56166666Y-79024819D01*
X56166666Y-79024819D02*
X56261904Y-79072438D01*
X56261904Y-79072438D02*
X56309523Y-79120057D01*
X56309523Y-79120057D02*
X56357142Y-79215295D01*
X56357142Y-79215295D02*
X56357142Y-79358152D01*
X56357142Y-79358152D02*
X56309523Y-79453390D01*
X56309523Y-79453390D02*
X56261904Y-79501009D01*
X56261904Y-79501009D02*
X56166666Y-79548628D01*
X56166666Y-79548628D02*
X55785714Y-79548628D01*
X57309523Y-80024819D02*
X56738095Y-80024819D01*
X57023809Y-80024819D02*
X57023809Y-79024819D01*
X57023809Y-79024819D02*
X56928571Y-79167676D01*
X56928571Y-79167676D02*
X56833333Y-79262914D01*
X56833333Y-79262914D02*
X56738095Y-79310533D01*
X57928571Y-79024819D02*
X58023809Y-79024819D01*
X58023809Y-79024819D02*
X58119047Y-79072438D01*
X58119047Y-79072438D02*
X58166666Y-79120057D01*
X58166666Y-79120057D02*
X58214285Y-79215295D01*
X58214285Y-79215295D02*
X58261904Y-79405771D01*
X58261904Y-79405771D02*
X58261904Y-79643866D01*
X58261904Y-79643866D02*
X58214285Y-79834342D01*
X58214285Y-79834342D02*
X58166666Y-79929580D01*
X58166666Y-79929580D02*
X58119047Y-79977200D01*
X58119047Y-79977200D02*
X58023809Y-80024819D01*
X58023809Y-80024819D02*
X57928571Y-80024819D01*
X57928571Y-80024819D02*
X57833333Y-79977200D01*
X57833333Y-79977200D02*
X57785714Y-79929580D01*
X57785714Y-79929580D02*
X57738095Y-79834342D01*
X57738095Y-79834342D02*
X57690476Y-79643866D01*
X57690476Y-79643866D02*
X57690476Y-79405771D01*
X57690476Y-79405771D02*
X57738095Y-79215295D01*
X57738095Y-79215295D02*
X57785714Y-79120057D01*
X57785714Y-79120057D02*
X57833333Y-79072438D01*
X57833333Y-79072438D02*
X57928571Y-79024819D01*
X69679580Y-114142857D02*
X69727200Y-114190476D01*
X69727200Y-114190476D02*
X69774819Y-114333333D01*
X69774819Y-114333333D02*
X69774819Y-114428571D01*
X69774819Y-114428571D02*
X69727200Y-114571428D01*
X69727200Y-114571428D02*
X69631961Y-114666666D01*
X69631961Y-114666666D02*
X69536723Y-114714285D01*
X69536723Y-114714285D02*
X69346247Y-114761904D01*
X69346247Y-114761904D02*
X69203390Y-114761904D01*
X69203390Y-114761904D02*
X69012914Y-114714285D01*
X69012914Y-114714285D02*
X68917676Y-114666666D01*
X68917676Y-114666666D02*
X68822438Y-114571428D01*
X68822438Y-114571428D02*
X68774819Y-114428571D01*
X68774819Y-114428571D02*
X68774819Y-114333333D01*
X68774819Y-114333333D02*
X68822438Y-114190476D01*
X68822438Y-114190476D02*
X68870057Y-114142857D01*
X69774819Y-113190476D02*
X69774819Y-113761904D01*
X69774819Y-113476190D02*
X68774819Y-113476190D01*
X68774819Y-113476190D02*
X68917676Y-113571428D01*
X68917676Y-113571428D02*
X69012914Y-113666666D01*
X69012914Y-113666666D02*
X69060533Y-113761904D01*
X68774819Y-112285714D02*
X68774819Y-112761904D01*
X68774819Y-112761904D02*
X69251009Y-112809523D01*
X69251009Y-112809523D02*
X69203390Y-112761904D01*
X69203390Y-112761904D02*
X69155771Y-112666666D01*
X69155771Y-112666666D02*
X69155771Y-112428571D01*
X69155771Y-112428571D02*
X69203390Y-112333333D01*
X69203390Y-112333333D02*
X69251009Y-112285714D01*
X69251009Y-112285714D02*
X69346247Y-112238095D01*
X69346247Y-112238095D02*
X69584342Y-112238095D01*
X69584342Y-112238095D02*
X69679580Y-112285714D01*
X69679580Y-112285714D02*
X69727200Y-112333333D01*
X69727200Y-112333333D02*
X69774819Y-112428571D01*
X69774819Y-112428571D02*
X69774819Y-112666666D01*
X69774819Y-112666666D02*
X69727200Y-112761904D01*
X69727200Y-112761904D02*
X69679580Y-112809523D01*
X59238095Y-42454819D02*
X59238095Y-41454819D01*
X59238095Y-41931009D02*
X59809523Y-41931009D01*
X59809523Y-42454819D02*
X59809523Y-41454819D01*
X60190476Y-41454819D02*
X60809523Y-41454819D01*
X60809523Y-41454819D02*
X60476190Y-41835771D01*
X60476190Y-41835771D02*
X60619047Y-41835771D01*
X60619047Y-41835771D02*
X60714285Y-41883390D01*
X60714285Y-41883390D02*
X60761904Y-41931009D01*
X60761904Y-41931009D02*
X60809523Y-42026247D01*
X60809523Y-42026247D02*
X60809523Y-42264342D01*
X60809523Y-42264342D02*
X60761904Y-42359580D01*
X60761904Y-42359580D02*
X60714285Y-42407200D01*
X60714285Y-42407200D02*
X60619047Y-42454819D01*
X60619047Y-42454819D02*
X60333333Y-42454819D01*
X60333333Y-42454819D02*
X60238095Y-42407200D01*
X60238095Y-42407200D02*
X60190476Y-42359580D01*
X87833333Y-70524819D02*
X87500000Y-70048628D01*
X87261905Y-70524819D02*
X87261905Y-69524819D01*
X87261905Y-69524819D02*
X87642857Y-69524819D01*
X87642857Y-69524819D02*
X87738095Y-69572438D01*
X87738095Y-69572438D02*
X87785714Y-69620057D01*
X87785714Y-69620057D02*
X87833333Y-69715295D01*
X87833333Y-69715295D02*
X87833333Y-69858152D01*
X87833333Y-69858152D02*
X87785714Y-69953390D01*
X87785714Y-69953390D02*
X87738095Y-70001009D01*
X87738095Y-70001009D02*
X87642857Y-70048628D01*
X87642857Y-70048628D02*
X87261905Y-70048628D01*
X88166667Y-69524819D02*
X88833333Y-69524819D01*
X88833333Y-69524819D02*
X88404762Y-70524819D01*
X65359580Y-95891666D02*
X65407200Y-95939285D01*
X65407200Y-95939285D02*
X65454819Y-96082142D01*
X65454819Y-96082142D02*
X65454819Y-96177380D01*
X65454819Y-96177380D02*
X65407200Y-96320237D01*
X65407200Y-96320237D02*
X65311961Y-96415475D01*
X65311961Y-96415475D02*
X65216723Y-96463094D01*
X65216723Y-96463094D02*
X65026247Y-96510713D01*
X65026247Y-96510713D02*
X64883390Y-96510713D01*
X64883390Y-96510713D02*
X64692914Y-96463094D01*
X64692914Y-96463094D02*
X64597676Y-96415475D01*
X64597676Y-96415475D02*
X64502438Y-96320237D01*
X64502438Y-96320237D02*
X64454819Y-96177380D01*
X64454819Y-96177380D02*
X64454819Y-96082142D01*
X64454819Y-96082142D02*
X64502438Y-95939285D01*
X64502438Y-95939285D02*
X64550057Y-95891666D01*
X65454819Y-95415475D02*
X65454819Y-95224999D01*
X65454819Y-95224999D02*
X65407200Y-95129761D01*
X65407200Y-95129761D02*
X65359580Y-95082142D01*
X65359580Y-95082142D02*
X65216723Y-94986904D01*
X65216723Y-94986904D02*
X65026247Y-94939285D01*
X65026247Y-94939285D02*
X64645295Y-94939285D01*
X64645295Y-94939285D02*
X64550057Y-94986904D01*
X64550057Y-94986904D02*
X64502438Y-95034523D01*
X64502438Y-95034523D02*
X64454819Y-95129761D01*
X64454819Y-95129761D02*
X64454819Y-95320237D01*
X64454819Y-95320237D02*
X64502438Y-95415475D01*
X64502438Y-95415475D02*
X64550057Y-95463094D01*
X64550057Y-95463094D02*
X64645295Y-95510713D01*
X64645295Y-95510713D02*
X64883390Y-95510713D01*
X64883390Y-95510713D02*
X64978628Y-95463094D01*
X64978628Y-95463094D02*
X65026247Y-95415475D01*
X65026247Y-95415475D02*
X65073866Y-95320237D01*
X65073866Y-95320237D02*
X65073866Y-95129761D01*
X65073866Y-95129761D02*
X65026247Y-95034523D01*
X65026247Y-95034523D02*
X64978628Y-94986904D01*
X64978628Y-94986904D02*
X64883390Y-94939285D01*
X111666667Y-70712761D02*
X111809524Y-70760380D01*
X111809524Y-70760380D02*
X112047619Y-70760380D01*
X112047619Y-70760380D02*
X112142857Y-70712761D01*
X112142857Y-70712761D02*
X112190476Y-70665141D01*
X112190476Y-70665141D02*
X112238095Y-70569903D01*
X112238095Y-70569903D02*
X112238095Y-70474665D01*
X112238095Y-70474665D02*
X112190476Y-70379427D01*
X112190476Y-70379427D02*
X112142857Y-70331808D01*
X112142857Y-70331808D02*
X112047619Y-70284189D01*
X112047619Y-70284189D02*
X111857143Y-70236570D01*
X111857143Y-70236570D02*
X111761905Y-70188951D01*
X111761905Y-70188951D02*
X111714286Y-70141332D01*
X111714286Y-70141332D02*
X111666667Y-70046094D01*
X111666667Y-70046094D02*
X111666667Y-69950856D01*
X111666667Y-69950856D02*
X111714286Y-69855618D01*
X111714286Y-69855618D02*
X111761905Y-69807999D01*
X111761905Y-69807999D02*
X111857143Y-69760380D01*
X111857143Y-69760380D02*
X112095238Y-69760380D01*
X112095238Y-69760380D02*
X112238095Y-69807999D01*
X112571429Y-69760380D02*
X112809524Y-70760380D01*
X112809524Y-70760380D02*
X113000000Y-70046094D01*
X113000000Y-70046094D02*
X113190476Y-70760380D01*
X113190476Y-70760380D02*
X113428572Y-69760380D01*
X113857143Y-70760380D02*
X114047619Y-70760380D01*
X114047619Y-70760380D02*
X114142857Y-70712761D01*
X114142857Y-70712761D02*
X114190476Y-70665141D01*
X114190476Y-70665141D02*
X114285714Y-70522284D01*
X114285714Y-70522284D02*
X114333333Y-70331808D01*
X114333333Y-70331808D02*
X114333333Y-69950856D01*
X114333333Y-69950856D02*
X114285714Y-69855618D01*
X114285714Y-69855618D02*
X114238095Y-69807999D01*
X114238095Y-69807999D02*
X114142857Y-69760380D01*
X114142857Y-69760380D02*
X113952381Y-69760380D01*
X113952381Y-69760380D02*
X113857143Y-69807999D01*
X113857143Y-69807999D02*
X113809524Y-69855618D01*
X113809524Y-69855618D02*
X113761905Y-69950856D01*
X113761905Y-69950856D02*
X113761905Y-70188951D01*
X113761905Y-70188951D02*
X113809524Y-70284189D01*
X113809524Y-70284189D02*
X113857143Y-70331808D01*
X113857143Y-70331808D02*
X113952381Y-70379427D01*
X113952381Y-70379427D02*
X114142857Y-70379427D01*
X114142857Y-70379427D02*
X114238095Y-70331808D01*
X114238095Y-70331808D02*
X114285714Y-70284189D01*
X114285714Y-70284189D02*
X114333333Y-70188951D01*
X60406066Y-118677919D02*
X60406066Y-119392204D01*
X60406066Y-119392204D02*
X60358447Y-119535061D01*
X60358447Y-119535061D02*
X60263209Y-119630300D01*
X60263209Y-119630300D02*
X60120352Y-119677919D01*
X60120352Y-119677919D02*
X60025114Y-119677919D01*
X60834638Y-118773157D02*
X60882257Y-118725538D01*
X60882257Y-118725538D02*
X60977495Y-118677919D01*
X60977495Y-118677919D02*
X61215590Y-118677919D01*
X61215590Y-118677919D02*
X61310828Y-118725538D01*
X61310828Y-118725538D02*
X61358447Y-118773157D01*
X61358447Y-118773157D02*
X61406066Y-118868395D01*
X61406066Y-118868395D02*
X61406066Y-118963633D01*
X61406066Y-118963633D02*
X61358447Y-119106490D01*
X61358447Y-119106490D02*
X60787019Y-119677919D01*
X60787019Y-119677919D02*
X61406066Y-119677919D01*
D11*
X53513842Y-122367619D02*
X53574318Y-122186190D01*
X53574318Y-122186190D02*
X53574318Y-121883809D01*
X53574318Y-121883809D02*
X53513842Y-121762857D01*
X53513842Y-121762857D02*
X53453365Y-121702381D01*
X53453365Y-121702381D02*
X53332413Y-121641904D01*
X53332413Y-121641904D02*
X53211461Y-121641904D01*
X53211461Y-121641904D02*
X53090508Y-121702381D01*
X53090508Y-121702381D02*
X53030032Y-121762857D01*
X53030032Y-121762857D02*
X52969556Y-121883809D01*
X52969556Y-121883809D02*
X52909080Y-122125714D01*
X52909080Y-122125714D02*
X52848603Y-122246666D01*
X52848603Y-122246666D02*
X52788127Y-122307143D01*
X52788127Y-122307143D02*
X52667175Y-122367619D01*
X52667175Y-122367619D02*
X52546222Y-122367619D01*
X52546222Y-122367619D02*
X52425270Y-122307143D01*
X52425270Y-122307143D02*
X52364794Y-122246666D01*
X52364794Y-122246666D02*
X52304318Y-122125714D01*
X52304318Y-122125714D02*
X52304318Y-121823333D01*
X52304318Y-121823333D02*
X52364794Y-121641904D01*
X53574318Y-120432380D02*
X53574318Y-121158095D01*
X53574318Y-120795238D02*
X52304318Y-120795238D01*
X52304318Y-120795238D02*
X52485746Y-120916190D01*
X52485746Y-120916190D02*
X52606699Y-121037142D01*
X52606699Y-121037142D02*
X52667175Y-121158095D01*
D10*
X62954819Y-64142857D02*
X62478628Y-64476190D01*
X62954819Y-64714285D02*
X61954819Y-64714285D01*
X61954819Y-64714285D02*
X61954819Y-64333333D01*
X61954819Y-64333333D02*
X62002438Y-64238095D01*
X62002438Y-64238095D02*
X62050057Y-64190476D01*
X62050057Y-64190476D02*
X62145295Y-64142857D01*
X62145295Y-64142857D02*
X62288152Y-64142857D01*
X62288152Y-64142857D02*
X62383390Y-64190476D01*
X62383390Y-64190476D02*
X62431009Y-64238095D01*
X62431009Y-64238095D02*
X62478628Y-64333333D01*
X62478628Y-64333333D02*
X62478628Y-64714285D01*
X62954819Y-63190476D02*
X62954819Y-63761904D01*
X62954819Y-63476190D02*
X61954819Y-63476190D01*
X61954819Y-63476190D02*
X62097676Y-63571428D01*
X62097676Y-63571428D02*
X62192914Y-63666666D01*
X62192914Y-63666666D02*
X62240533Y-63761904D01*
X61954819Y-62857142D02*
X61954819Y-62238095D01*
X61954819Y-62238095D02*
X62335771Y-62571428D01*
X62335771Y-62571428D02*
X62335771Y-62428571D01*
X62335771Y-62428571D02*
X62383390Y-62333333D01*
X62383390Y-62333333D02*
X62431009Y-62285714D01*
X62431009Y-62285714D02*
X62526247Y-62238095D01*
X62526247Y-62238095D02*
X62764342Y-62238095D01*
X62764342Y-62238095D02*
X62859580Y-62285714D01*
X62859580Y-62285714D02*
X62907200Y-62333333D01*
X62907200Y-62333333D02*
X62954819Y-62428571D01*
X62954819Y-62428571D02*
X62954819Y-62714285D01*
X62954819Y-62714285D02*
X62907200Y-62809523D01*
X62907200Y-62809523D02*
X62859580Y-62857142D01*
X99238095Y-136254819D02*
X99238095Y-135254819D01*
X99238095Y-135731009D02*
X99809523Y-135731009D01*
X99809523Y-136254819D02*
X99809523Y-135254819D01*
X100238095Y-135350057D02*
X100285714Y-135302438D01*
X100285714Y-135302438D02*
X100380952Y-135254819D01*
X100380952Y-135254819D02*
X100619047Y-135254819D01*
X100619047Y-135254819D02*
X100714285Y-135302438D01*
X100714285Y-135302438D02*
X100761904Y-135350057D01*
X100761904Y-135350057D02*
X100809523Y-135445295D01*
X100809523Y-135445295D02*
X100809523Y-135540533D01*
X100809523Y-135540533D02*
X100761904Y-135683390D01*
X100761904Y-135683390D02*
X100190476Y-136254819D01*
X100190476Y-136254819D02*
X100809523Y-136254819D01*
X83333333Y-127954819D02*
X83000000Y-127478628D01*
X82761905Y-127954819D02*
X82761905Y-126954819D01*
X82761905Y-126954819D02*
X83142857Y-126954819D01*
X83142857Y-126954819D02*
X83238095Y-127002438D01*
X83238095Y-127002438D02*
X83285714Y-127050057D01*
X83285714Y-127050057D02*
X83333333Y-127145295D01*
X83333333Y-127145295D02*
X83333333Y-127288152D01*
X83333333Y-127288152D02*
X83285714Y-127383390D01*
X83285714Y-127383390D02*
X83238095Y-127431009D01*
X83238095Y-127431009D02*
X83142857Y-127478628D01*
X83142857Y-127478628D02*
X82761905Y-127478628D01*
X84238095Y-126954819D02*
X83761905Y-126954819D01*
X83761905Y-126954819D02*
X83714286Y-127431009D01*
X83714286Y-127431009D02*
X83761905Y-127383390D01*
X83761905Y-127383390D02*
X83857143Y-127335771D01*
X83857143Y-127335771D02*
X84095238Y-127335771D01*
X84095238Y-127335771D02*
X84190476Y-127383390D01*
X84190476Y-127383390D02*
X84238095Y-127431009D01*
X84238095Y-127431009D02*
X84285714Y-127526247D01*
X84285714Y-127526247D02*
X84285714Y-127764342D01*
X84285714Y-127764342D02*
X84238095Y-127859580D01*
X84238095Y-127859580D02*
X84190476Y-127907200D01*
X84190476Y-127907200D02*
X84095238Y-127954819D01*
X84095238Y-127954819D02*
X83857143Y-127954819D01*
X83857143Y-127954819D02*
X83761905Y-127907200D01*
X83761905Y-127907200D02*
X83714286Y-127859580D01*
X89333333Y-80954819D02*
X89000000Y-80478628D01*
X88761905Y-80954819D02*
X88761905Y-79954819D01*
X88761905Y-79954819D02*
X89142857Y-79954819D01*
X89142857Y-79954819D02*
X89238095Y-80002438D01*
X89238095Y-80002438D02*
X89285714Y-80050057D01*
X89285714Y-80050057D02*
X89333333Y-80145295D01*
X89333333Y-80145295D02*
X89333333Y-80288152D01*
X89333333Y-80288152D02*
X89285714Y-80383390D01*
X89285714Y-80383390D02*
X89238095Y-80431009D01*
X89238095Y-80431009D02*
X89142857Y-80478628D01*
X89142857Y-80478628D02*
X88761905Y-80478628D01*
X89809524Y-80954819D02*
X90000000Y-80954819D01*
X90000000Y-80954819D02*
X90095238Y-80907200D01*
X90095238Y-80907200D02*
X90142857Y-80859580D01*
X90142857Y-80859580D02*
X90238095Y-80716723D01*
X90238095Y-80716723D02*
X90285714Y-80526247D01*
X90285714Y-80526247D02*
X90285714Y-80145295D01*
X90285714Y-80145295D02*
X90238095Y-80050057D01*
X90238095Y-80050057D02*
X90190476Y-80002438D01*
X90190476Y-80002438D02*
X90095238Y-79954819D01*
X90095238Y-79954819D02*
X89904762Y-79954819D01*
X89904762Y-79954819D02*
X89809524Y-80002438D01*
X89809524Y-80002438D02*
X89761905Y-80050057D01*
X89761905Y-80050057D02*
X89714286Y-80145295D01*
X89714286Y-80145295D02*
X89714286Y-80383390D01*
X89714286Y-80383390D02*
X89761905Y-80478628D01*
X89761905Y-80478628D02*
X89809524Y-80526247D01*
X89809524Y-80526247D02*
X89904762Y-80573866D01*
X89904762Y-80573866D02*
X90095238Y-80573866D01*
X90095238Y-80573866D02*
X90190476Y-80526247D01*
X90190476Y-80526247D02*
X90238095Y-80478628D01*
X90238095Y-80478628D02*
X90285714Y-80383390D01*
D11*
X73879047Y-118195270D02*
X73758095Y-118134794D01*
X73758095Y-118134794D02*
X73637142Y-118013842D01*
X73637142Y-118013842D02*
X73455714Y-117832413D01*
X73455714Y-117832413D02*
X73334761Y-117771937D01*
X73334761Y-117771937D02*
X73213809Y-117771937D01*
X73274285Y-118074318D02*
X73153333Y-118013842D01*
X73153333Y-118013842D02*
X73032380Y-117892889D01*
X73032380Y-117892889D02*
X72971904Y-117650984D01*
X72971904Y-117650984D02*
X72971904Y-117227651D01*
X72971904Y-117227651D02*
X73032380Y-116985746D01*
X73032380Y-116985746D02*
X73153333Y-116864794D01*
X73153333Y-116864794D02*
X73274285Y-116804318D01*
X73274285Y-116804318D02*
X73516190Y-116804318D01*
X73516190Y-116804318D02*
X73637142Y-116864794D01*
X73637142Y-116864794D02*
X73758095Y-116985746D01*
X73758095Y-116985746D02*
X73818571Y-117227651D01*
X73818571Y-117227651D02*
X73818571Y-117650984D01*
X73818571Y-117650984D02*
X73758095Y-117892889D01*
X73758095Y-117892889D02*
X73637142Y-118013842D01*
X73637142Y-118013842D02*
X73516190Y-118074318D01*
X73516190Y-118074318D02*
X73274285Y-118074318D01*
X75028095Y-118074318D02*
X74302380Y-118074318D01*
X74665237Y-118074318D02*
X74665237Y-116804318D01*
X74665237Y-116804318D02*
X74544285Y-116985746D01*
X74544285Y-116985746D02*
X74423333Y-117106699D01*
X74423333Y-117106699D02*
X74302380Y-117167175D01*
D10*
X104238095Y-42454819D02*
X104238095Y-41454819D01*
X104238095Y-41931009D02*
X104809523Y-41931009D01*
X104809523Y-42454819D02*
X104809523Y-41454819D01*
X105714285Y-41788152D02*
X105714285Y-42454819D01*
X105476190Y-41407200D02*
X105238095Y-42121485D01*
X105238095Y-42121485D02*
X105857142Y-42121485D01*
X68535233Y-124402680D02*
X68487614Y-124450300D01*
X68487614Y-124450300D02*
X68344757Y-124497919D01*
X68344757Y-124497919D02*
X68249519Y-124497919D01*
X68249519Y-124497919D02*
X68106662Y-124450300D01*
X68106662Y-124450300D02*
X68011424Y-124355061D01*
X68011424Y-124355061D02*
X67963805Y-124259823D01*
X67963805Y-124259823D02*
X67916186Y-124069347D01*
X67916186Y-124069347D02*
X67916186Y-123926490D01*
X67916186Y-123926490D02*
X67963805Y-123736014D01*
X67963805Y-123736014D02*
X68011424Y-123640776D01*
X68011424Y-123640776D02*
X68106662Y-123545538D01*
X68106662Y-123545538D02*
X68249519Y-123497919D01*
X68249519Y-123497919D02*
X68344757Y-123497919D01*
X68344757Y-123497919D02*
X68487614Y-123545538D01*
X68487614Y-123545538D02*
X68535233Y-123593157D01*
X68868567Y-123497919D02*
X69487614Y-123497919D01*
X69487614Y-123497919D02*
X69154281Y-123878871D01*
X69154281Y-123878871D02*
X69297138Y-123878871D01*
X69297138Y-123878871D02*
X69392376Y-123926490D01*
X69392376Y-123926490D02*
X69439995Y-123974109D01*
X69439995Y-123974109D02*
X69487614Y-124069347D01*
X69487614Y-124069347D02*
X69487614Y-124307442D01*
X69487614Y-124307442D02*
X69439995Y-124402680D01*
X69439995Y-124402680D02*
X69392376Y-124450300D01*
X69392376Y-124450300D02*
X69297138Y-124497919D01*
X69297138Y-124497919D02*
X69011424Y-124497919D01*
X69011424Y-124497919D02*
X68916186Y-124450300D01*
X68916186Y-124450300D02*
X68868567Y-124402680D01*
X47194819Y-51563333D02*
X47909104Y-51563333D01*
X47909104Y-51563333D02*
X48051961Y-51610952D01*
X48051961Y-51610952D02*
X48147200Y-51706190D01*
X48147200Y-51706190D02*
X48194819Y-51849047D01*
X48194819Y-51849047D02*
X48194819Y-51944285D01*
X47194819Y-50610952D02*
X47194819Y-51087142D01*
X47194819Y-51087142D02*
X47671009Y-51134761D01*
X47671009Y-51134761D02*
X47623390Y-51087142D01*
X47623390Y-51087142D02*
X47575771Y-50991904D01*
X47575771Y-50991904D02*
X47575771Y-50753809D01*
X47575771Y-50753809D02*
X47623390Y-50658571D01*
X47623390Y-50658571D02*
X47671009Y-50610952D01*
X47671009Y-50610952D02*
X47766247Y-50563333D01*
X47766247Y-50563333D02*
X48004342Y-50563333D01*
X48004342Y-50563333D02*
X48099580Y-50610952D01*
X48099580Y-50610952D02*
X48147200Y-50658571D01*
X48147200Y-50658571D02*
X48194819Y-50753809D01*
X48194819Y-50753809D02*
X48194819Y-50991904D01*
X48194819Y-50991904D02*
X48147200Y-51087142D01*
X48147200Y-51087142D02*
X48099580Y-51134761D01*
X75072733Y-121402680D02*
X75025114Y-121450300D01*
X75025114Y-121450300D02*
X74882257Y-121497919D01*
X74882257Y-121497919D02*
X74787019Y-121497919D01*
X74787019Y-121497919D02*
X74644162Y-121450300D01*
X74644162Y-121450300D02*
X74548924Y-121355061D01*
X74548924Y-121355061D02*
X74501305Y-121259823D01*
X74501305Y-121259823D02*
X74453686Y-121069347D01*
X74453686Y-121069347D02*
X74453686Y-120926490D01*
X74453686Y-120926490D02*
X74501305Y-120736014D01*
X74501305Y-120736014D02*
X74548924Y-120640776D01*
X74548924Y-120640776D02*
X74644162Y-120545538D01*
X74644162Y-120545538D02*
X74787019Y-120497919D01*
X74787019Y-120497919D02*
X74882257Y-120497919D01*
X74882257Y-120497919D02*
X75025114Y-120545538D01*
X75025114Y-120545538D02*
X75072733Y-120593157D01*
X76025114Y-121497919D02*
X75453686Y-121497919D01*
X75739400Y-121497919D02*
X75739400Y-120497919D01*
X75739400Y-120497919D02*
X75644162Y-120640776D01*
X75644162Y-120640776D02*
X75548924Y-120736014D01*
X75548924Y-120736014D02*
X75453686Y-120783633D01*
X47582142Y-82929580D02*
X47534523Y-82977200D01*
X47534523Y-82977200D02*
X47391666Y-83024819D01*
X47391666Y-83024819D02*
X47296428Y-83024819D01*
X47296428Y-83024819D02*
X47153571Y-82977200D01*
X47153571Y-82977200D02*
X47058333Y-82881961D01*
X47058333Y-82881961D02*
X47010714Y-82786723D01*
X47010714Y-82786723D02*
X46963095Y-82596247D01*
X46963095Y-82596247D02*
X46963095Y-82453390D01*
X46963095Y-82453390D02*
X47010714Y-82262914D01*
X47010714Y-82262914D02*
X47058333Y-82167676D01*
X47058333Y-82167676D02*
X47153571Y-82072438D01*
X47153571Y-82072438D02*
X47296428Y-82024819D01*
X47296428Y-82024819D02*
X47391666Y-82024819D01*
X47391666Y-82024819D02*
X47534523Y-82072438D01*
X47534523Y-82072438D02*
X47582142Y-82120057D01*
X48534523Y-83024819D02*
X47963095Y-83024819D01*
X48248809Y-83024819D02*
X48248809Y-82024819D01*
X48248809Y-82024819D02*
X48153571Y-82167676D01*
X48153571Y-82167676D02*
X48058333Y-82262914D01*
X48058333Y-82262914D02*
X47963095Y-82310533D01*
X48867857Y-82024819D02*
X49534523Y-82024819D01*
X49534523Y-82024819D02*
X49105952Y-83024819D01*
X71072733Y-121402680D02*
X71025114Y-121450300D01*
X71025114Y-121450300D02*
X70882257Y-121497919D01*
X70882257Y-121497919D02*
X70787019Y-121497919D01*
X70787019Y-121497919D02*
X70644162Y-121450300D01*
X70644162Y-121450300D02*
X70548924Y-121355061D01*
X70548924Y-121355061D02*
X70501305Y-121259823D01*
X70501305Y-121259823D02*
X70453686Y-121069347D01*
X70453686Y-121069347D02*
X70453686Y-120926490D01*
X70453686Y-120926490D02*
X70501305Y-120736014D01*
X70501305Y-120736014D02*
X70548924Y-120640776D01*
X70548924Y-120640776D02*
X70644162Y-120545538D01*
X70644162Y-120545538D02*
X70787019Y-120497919D01*
X70787019Y-120497919D02*
X70882257Y-120497919D01*
X70882257Y-120497919D02*
X71025114Y-120545538D01*
X71025114Y-120545538D02*
X71072733Y-120593157D01*
X71453686Y-120593157D02*
X71501305Y-120545538D01*
X71501305Y-120545538D02*
X71596543Y-120497919D01*
X71596543Y-120497919D02*
X71834638Y-120497919D01*
X71834638Y-120497919D02*
X71929876Y-120545538D01*
X71929876Y-120545538D02*
X71977495Y-120593157D01*
X71977495Y-120593157D02*
X72025114Y-120688395D01*
X72025114Y-120688395D02*
X72025114Y-120783633D01*
X72025114Y-120783633D02*
X71977495Y-120926490D01*
X71977495Y-120926490D02*
X71406067Y-121497919D01*
X71406067Y-121497919D02*
X72025114Y-121497919D01*
X76558333Y-79859580D02*
X76510714Y-79907200D01*
X76510714Y-79907200D02*
X76367857Y-79954819D01*
X76367857Y-79954819D02*
X76272619Y-79954819D01*
X76272619Y-79954819D02*
X76129762Y-79907200D01*
X76129762Y-79907200D02*
X76034524Y-79811961D01*
X76034524Y-79811961D02*
X75986905Y-79716723D01*
X75986905Y-79716723D02*
X75939286Y-79526247D01*
X75939286Y-79526247D02*
X75939286Y-79383390D01*
X75939286Y-79383390D02*
X75986905Y-79192914D01*
X75986905Y-79192914D02*
X76034524Y-79097676D01*
X76034524Y-79097676D02*
X76129762Y-79002438D01*
X76129762Y-79002438D02*
X76272619Y-78954819D01*
X76272619Y-78954819D02*
X76367857Y-78954819D01*
X76367857Y-78954819D02*
X76510714Y-79002438D01*
X76510714Y-79002438D02*
X76558333Y-79050057D01*
X76891667Y-78954819D02*
X77558333Y-78954819D01*
X77558333Y-78954819D02*
X77129762Y-79954819D01*
X85833333Y-135804819D02*
X85500000Y-135328628D01*
X85261905Y-135804819D02*
X85261905Y-134804819D01*
X85261905Y-134804819D02*
X85642857Y-134804819D01*
X85642857Y-134804819D02*
X85738095Y-134852438D01*
X85738095Y-134852438D02*
X85785714Y-134900057D01*
X85785714Y-134900057D02*
X85833333Y-134995295D01*
X85833333Y-134995295D02*
X85833333Y-135138152D01*
X85833333Y-135138152D02*
X85785714Y-135233390D01*
X85785714Y-135233390D02*
X85738095Y-135281009D01*
X85738095Y-135281009D02*
X85642857Y-135328628D01*
X85642857Y-135328628D02*
X85261905Y-135328628D01*
X86785714Y-135804819D02*
X86214286Y-135804819D01*
X86500000Y-135804819D02*
X86500000Y-134804819D01*
X86500000Y-134804819D02*
X86404762Y-134947676D01*
X86404762Y-134947676D02*
X86309524Y-135042914D01*
X86309524Y-135042914D02*
X86214286Y-135090533D01*
X74954819Y-115166666D02*
X74478628Y-115499999D01*
X74954819Y-115738094D02*
X73954819Y-115738094D01*
X73954819Y-115738094D02*
X73954819Y-115357142D01*
X73954819Y-115357142D02*
X74002438Y-115261904D01*
X74002438Y-115261904D02*
X74050057Y-115214285D01*
X74050057Y-115214285D02*
X74145295Y-115166666D01*
X74145295Y-115166666D02*
X74288152Y-115166666D01*
X74288152Y-115166666D02*
X74383390Y-115214285D01*
X74383390Y-115214285D02*
X74431009Y-115261904D01*
X74431009Y-115261904D02*
X74478628Y-115357142D01*
X74478628Y-115357142D02*
X74478628Y-115738094D01*
X73954819Y-114309523D02*
X73954819Y-114499999D01*
X73954819Y-114499999D02*
X74002438Y-114595237D01*
X74002438Y-114595237D02*
X74050057Y-114642856D01*
X74050057Y-114642856D02*
X74192914Y-114738094D01*
X74192914Y-114738094D02*
X74383390Y-114785713D01*
X74383390Y-114785713D02*
X74764342Y-114785713D01*
X74764342Y-114785713D02*
X74859580Y-114738094D01*
X74859580Y-114738094D02*
X74907200Y-114690475D01*
X74907200Y-114690475D02*
X74954819Y-114595237D01*
X74954819Y-114595237D02*
X74954819Y-114404761D01*
X74954819Y-114404761D02*
X74907200Y-114309523D01*
X74907200Y-114309523D02*
X74859580Y-114261904D01*
X74859580Y-114261904D02*
X74764342Y-114214285D01*
X74764342Y-114214285D02*
X74526247Y-114214285D01*
X74526247Y-114214285D02*
X74431009Y-114261904D01*
X74431009Y-114261904D02*
X74383390Y-114309523D01*
X74383390Y-114309523D02*
X74335771Y-114404761D01*
X74335771Y-114404761D02*
X74335771Y-114595237D01*
X74335771Y-114595237D02*
X74383390Y-114690475D01*
X74383390Y-114690475D02*
X74431009Y-114738094D01*
X74431009Y-114738094D02*
X74526247Y-114785713D01*
X56954819Y-64142857D02*
X56478628Y-64476190D01*
X56954819Y-64714285D02*
X55954819Y-64714285D01*
X55954819Y-64714285D02*
X55954819Y-64333333D01*
X55954819Y-64333333D02*
X56002438Y-64238095D01*
X56002438Y-64238095D02*
X56050057Y-64190476D01*
X56050057Y-64190476D02*
X56145295Y-64142857D01*
X56145295Y-64142857D02*
X56288152Y-64142857D01*
X56288152Y-64142857D02*
X56383390Y-64190476D01*
X56383390Y-64190476D02*
X56431009Y-64238095D01*
X56431009Y-64238095D02*
X56478628Y-64333333D01*
X56478628Y-64333333D02*
X56478628Y-64714285D01*
X56954819Y-63190476D02*
X56954819Y-63761904D01*
X56954819Y-63476190D02*
X55954819Y-63476190D01*
X55954819Y-63476190D02*
X56097676Y-63571428D01*
X56097676Y-63571428D02*
X56192914Y-63666666D01*
X56192914Y-63666666D02*
X56240533Y-63761904D01*
X56050057Y-62809523D02*
X56002438Y-62761904D01*
X56002438Y-62761904D02*
X55954819Y-62666666D01*
X55954819Y-62666666D02*
X55954819Y-62428571D01*
X55954819Y-62428571D02*
X56002438Y-62333333D01*
X56002438Y-62333333D02*
X56050057Y-62285714D01*
X56050057Y-62285714D02*
X56145295Y-62238095D01*
X56145295Y-62238095D02*
X56240533Y-62238095D01*
X56240533Y-62238095D02*
X56383390Y-62285714D01*
X56383390Y-62285714D02*
X56954819Y-62857142D01*
X56954819Y-62857142D02*
X56954819Y-62238095D01*
X67859580Y-74666666D02*
X67907200Y-74714285D01*
X67907200Y-74714285D02*
X67954819Y-74857142D01*
X67954819Y-74857142D02*
X67954819Y-74952380D01*
X67954819Y-74952380D02*
X67907200Y-75095237D01*
X67907200Y-75095237D02*
X67811961Y-75190475D01*
X67811961Y-75190475D02*
X67716723Y-75238094D01*
X67716723Y-75238094D02*
X67526247Y-75285713D01*
X67526247Y-75285713D02*
X67383390Y-75285713D01*
X67383390Y-75285713D02*
X67192914Y-75238094D01*
X67192914Y-75238094D02*
X67097676Y-75190475D01*
X67097676Y-75190475D02*
X67002438Y-75095237D01*
X67002438Y-75095237D02*
X66954819Y-74952380D01*
X66954819Y-74952380D02*
X66954819Y-74857142D01*
X66954819Y-74857142D02*
X67002438Y-74714285D01*
X67002438Y-74714285D02*
X67050057Y-74666666D01*
X67288152Y-73809523D02*
X67954819Y-73809523D01*
X66907200Y-74047618D02*
X67621485Y-74285713D01*
X67621485Y-74285713D02*
X67621485Y-73666666D01*
X47572142Y-87929580D02*
X47524523Y-87977200D01*
X47524523Y-87977200D02*
X47381666Y-88024819D01*
X47381666Y-88024819D02*
X47286428Y-88024819D01*
X47286428Y-88024819D02*
X47143571Y-87977200D01*
X47143571Y-87977200D02*
X47048333Y-87881961D01*
X47048333Y-87881961D02*
X47000714Y-87786723D01*
X47000714Y-87786723D02*
X46953095Y-87596247D01*
X46953095Y-87596247D02*
X46953095Y-87453390D01*
X46953095Y-87453390D02*
X47000714Y-87262914D01*
X47000714Y-87262914D02*
X47048333Y-87167676D01*
X47048333Y-87167676D02*
X47143571Y-87072438D01*
X47143571Y-87072438D02*
X47286428Y-87024819D01*
X47286428Y-87024819D02*
X47381666Y-87024819D01*
X47381666Y-87024819D02*
X47524523Y-87072438D01*
X47524523Y-87072438D02*
X47572142Y-87120057D01*
X48524523Y-88024819D02*
X47953095Y-88024819D01*
X48238809Y-88024819D02*
X48238809Y-87024819D01*
X48238809Y-87024819D02*
X48143571Y-87167676D01*
X48143571Y-87167676D02*
X48048333Y-87262914D01*
X48048333Y-87262914D02*
X47953095Y-87310533D01*
X49381666Y-87024819D02*
X49191190Y-87024819D01*
X49191190Y-87024819D02*
X49095952Y-87072438D01*
X49095952Y-87072438D02*
X49048333Y-87120057D01*
X49048333Y-87120057D02*
X48953095Y-87262914D01*
X48953095Y-87262914D02*
X48905476Y-87453390D01*
X48905476Y-87453390D02*
X48905476Y-87834342D01*
X48905476Y-87834342D02*
X48953095Y-87929580D01*
X48953095Y-87929580D02*
X49000714Y-87977200D01*
X49000714Y-87977200D02*
X49095952Y-88024819D01*
X49095952Y-88024819D02*
X49286428Y-88024819D01*
X49286428Y-88024819D02*
X49381666Y-87977200D01*
X49381666Y-87977200D02*
X49429285Y-87929580D01*
X49429285Y-87929580D02*
X49476904Y-87834342D01*
X49476904Y-87834342D02*
X49476904Y-87596247D01*
X49476904Y-87596247D02*
X49429285Y-87501009D01*
X49429285Y-87501009D02*
X49381666Y-87453390D01*
X49381666Y-87453390D02*
X49286428Y-87405771D01*
X49286428Y-87405771D02*
X49095952Y-87405771D01*
X49095952Y-87405771D02*
X49000714Y-87453390D01*
X49000714Y-87453390D02*
X48953095Y-87501009D01*
X48953095Y-87501009D02*
X48905476Y-87596247D01*
X67738095Y-79054819D02*
X67738095Y-79864342D01*
X67738095Y-79864342D02*
X67785714Y-79959580D01*
X67785714Y-79959580D02*
X67833333Y-80007200D01*
X67833333Y-80007200D02*
X67928571Y-80054819D01*
X67928571Y-80054819D02*
X68119047Y-80054819D01*
X68119047Y-80054819D02*
X68214285Y-80007200D01*
X68214285Y-80007200D02*
X68261904Y-79959580D01*
X68261904Y-79959580D02*
X68309523Y-79864342D01*
X68309523Y-79864342D02*
X68309523Y-79054819D01*
X68738095Y-79150057D02*
X68785714Y-79102438D01*
X68785714Y-79102438D02*
X68880952Y-79054819D01*
X68880952Y-79054819D02*
X69119047Y-79054819D01*
X69119047Y-79054819D02*
X69214285Y-79102438D01*
X69214285Y-79102438D02*
X69261904Y-79150057D01*
X69261904Y-79150057D02*
X69309523Y-79245295D01*
X69309523Y-79245295D02*
X69309523Y-79340533D01*
X69309523Y-79340533D02*
X69261904Y-79483390D01*
X69261904Y-79483390D02*
X68690476Y-80054819D01*
X68690476Y-80054819D02*
X69309523Y-80054819D01*
X74816666Y-136399819D02*
X74816666Y-137114104D01*
X74816666Y-137114104D02*
X74769047Y-137256961D01*
X74769047Y-137256961D02*
X74673809Y-137352200D01*
X74673809Y-137352200D02*
X74530952Y-137399819D01*
X74530952Y-137399819D02*
X74435714Y-137399819D01*
X75816666Y-137399819D02*
X75245238Y-137399819D01*
X75530952Y-137399819D02*
X75530952Y-136399819D01*
X75530952Y-136399819D02*
X75435714Y-136542676D01*
X75435714Y-136542676D02*
X75340476Y-136637914D01*
X75340476Y-136637914D02*
X75245238Y-136685533D01*
X111190476Y-59684984D02*
X111333333Y-59732603D01*
X111333333Y-59732603D02*
X111571428Y-59732603D01*
X111571428Y-59732603D02*
X111666666Y-59684984D01*
X111666666Y-59684984D02*
X111714285Y-59637364D01*
X111714285Y-59637364D02*
X111761904Y-59542126D01*
X111761904Y-59542126D02*
X111761904Y-59446888D01*
X111761904Y-59446888D02*
X111714285Y-59351650D01*
X111714285Y-59351650D02*
X111666666Y-59304031D01*
X111666666Y-59304031D02*
X111571428Y-59256412D01*
X111571428Y-59256412D02*
X111380952Y-59208793D01*
X111380952Y-59208793D02*
X111285714Y-59161174D01*
X111285714Y-59161174D02*
X111238095Y-59113555D01*
X111238095Y-59113555D02*
X111190476Y-59018317D01*
X111190476Y-59018317D02*
X111190476Y-58923079D01*
X111190476Y-58923079D02*
X111238095Y-58827841D01*
X111238095Y-58827841D02*
X111285714Y-58780222D01*
X111285714Y-58780222D02*
X111380952Y-58732603D01*
X111380952Y-58732603D02*
X111619047Y-58732603D01*
X111619047Y-58732603D02*
X111761904Y-58780222D01*
X112095238Y-58732603D02*
X112333333Y-59732603D01*
X112333333Y-59732603D02*
X112523809Y-59018317D01*
X112523809Y-59018317D02*
X112714285Y-59732603D01*
X112714285Y-59732603D02*
X112952381Y-58732603D01*
X113857142Y-59732603D02*
X113285714Y-59732603D01*
X113571428Y-59732603D02*
X113571428Y-58732603D01*
X113571428Y-58732603D02*
X113476190Y-58875460D01*
X113476190Y-58875460D02*
X113380952Y-58970698D01*
X113380952Y-58970698D02*
X113285714Y-59018317D01*
X114476190Y-58732603D02*
X114571428Y-58732603D01*
X114571428Y-58732603D02*
X114666666Y-58780222D01*
X114666666Y-58780222D02*
X114714285Y-58827841D01*
X114714285Y-58827841D02*
X114761904Y-58923079D01*
X114761904Y-58923079D02*
X114809523Y-59113555D01*
X114809523Y-59113555D02*
X114809523Y-59351650D01*
X114809523Y-59351650D02*
X114761904Y-59542126D01*
X114761904Y-59542126D02*
X114714285Y-59637364D01*
X114714285Y-59637364D02*
X114666666Y-59684984D01*
X114666666Y-59684984D02*
X114571428Y-59732603D01*
X114571428Y-59732603D02*
X114476190Y-59732603D01*
X114476190Y-59732603D02*
X114380952Y-59684984D01*
X114380952Y-59684984D02*
X114333333Y-59637364D01*
X114333333Y-59637364D02*
X114285714Y-59542126D01*
X114285714Y-59542126D02*
X114238095Y-59351650D01*
X114238095Y-59351650D02*
X114238095Y-59113555D01*
X114238095Y-59113555D02*
X114285714Y-58923079D01*
X114285714Y-58923079D02*
X114333333Y-58827841D01*
X114333333Y-58827841D02*
X114380952Y-58780222D01*
X114380952Y-58780222D02*
X114476190Y-58732603D01*
X111666667Y-81740538D02*
X111809524Y-81788157D01*
X111809524Y-81788157D02*
X112047619Y-81788157D01*
X112047619Y-81788157D02*
X112142857Y-81740538D01*
X112142857Y-81740538D02*
X112190476Y-81692918D01*
X112190476Y-81692918D02*
X112238095Y-81597680D01*
X112238095Y-81597680D02*
X112238095Y-81502442D01*
X112238095Y-81502442D02*
X112190476Y-81407204D01*
X112190476Y-81407204D02*
X112142857Y-81359585D01*
X112142857Y-81359585D02*
X112047619Y-81311966D01*
X112047619Y-81311966D02*
X111857143Y-81264347D01*
X111857143Y-81264347D02*
X111761905Y-81216728D01*
X111761905Y-81216728D02*
X111714286Y-81169109D01*
X111714286Y-81169109D02*
X111666667Y-81073871D01*
X111666667Y-81073871D02*
X111666667Y-80978633D01*
X111666667Y-80978633D02*
X111714286Y-80883395D01*
X111714286Y-80883395D02*
X111761905Y-80835776D01*
X111761905Y-80835776D02*
X111857143Y-80788157D01*
X111857143Y-80788157D02*
X112095238Y-80788157D01*
X112095238Y-80788157D02*
X112238095Y-80835776D01*
X112571429Y-80788157D02*
X112809524Y-81788157D01*
X112809524Y-81788157D02*
X113000000Y-81073871D01*
X113000000Y-81073871D02*
X113190476Y-81788157D01*
X113190476Y-81788157D02*
X113428572Y-80788157D01*
X113952381Y-81216728D02*
X113857143Y-81169109D01*
X113857143Y-81169109D02*
X113809524Y-81121490D01*
X113809524Y-81121490D02*
X113761905Y-81026252D01*
X113761905Y-81026252D02*
X113761905Y-80978633D01*
X113761905Y-80978633D02*
X113809524Y-80883395D01*
X113809524Y-80883395D02*
X113857143Y-80835776D01*
X113857143Y-80835776D02*
X113952381Y-80788157D01*
X113952381Y-80788157D02*
X114142857Y-80788157D01*
X114142857Y-80788157D02*
X114238095Y-80835776D01*
X114238095Y-80835776D02*
X114285714Y-80883395D01*
X114285714Y-80883395D02*
X114333333Y-80978633D01*
X114333333Y-80978633D02*
X114333333Y-81026252D01*
X114333333Y-81026252D02*
X114285714Y-81121490D01*
X114285714Y-81121490D02*
X114238095Y-81169109D01*
X114238095Y-81169109D02*
X114142857Y-81216728D01*
X114142857Y-81216728D02*
X113952381Y-81216728D01*
X113952381Y-81216728D02*
X113857143Y-81264347D01*
X113857143Y-81264347D02*
X113809524Y-81311966D01*
X113809524Y-81311966D02*
X113761905Y-81407204D01*
X113761905Y-81407204D02*
X113761905Y-81597680D01*
X113761905Y-81597680D02*
X113809524Y-81692918D01*
X113809524Y-81692918D02*
X113857143Y-81740538D01*
X113857143Y-81740538D02*
X113952381Y-81788157D01*
X113952381Y-81788157D02*
X114142857Y-81788157D01*
X114142857Y-81788157D02*
X114238095Y-81740538D01*
X114238095Y-81740538D02*
X114285714Y-81692918D01*
X114285714Y-81692918D02*
X114333333Y-81597680D01*
X114333333Y-81597680D02*
X114333333Y-81407204D01*
X114333333Y-81407204D02*
X114285714Y-81311966D01*
X114285714Y-81311966D02*
X114238095Y-81264347D01*
X114238095Y-81264347D02*
X114142857Y-81216728D01*
X111666667Y-114823869D02*
X111809524Y-114871488D01*
X111809524Y-114871488D02*
X112047619Y-114871488D01*
X112047619Y-114871488D02*
X112142857Y-114823869D01*
X112142857Y-114823869D02*
X112190476Y-114776249D01*
X112190476Y-114776249D02*
X112238095Y-114681011D01*
X112238095Y-114681011D02*
X112238095Y-114585773D01*
X112238095Y-114585773D02*
X112190476Y-114490535D01*
X112190476Y-114490535D02*
X112142857Y-114442916D01*
X112142857Y-114442916D02*
X112047619Y-114395297D01*
X112047619Y-114395297D02*
X111857143Y-114347678D01*
X111857143Y-114347678D02*
X111761905Y-114300059D01*
X111761905Y-114300059D02*
X111714286Y-114252440D01*
X111714286Y-114252440D02*
X111666667Y-114157202D01*
X111666667Y-114157202D02*
X111666667Y-114061964D01*
X111666667Y-114061964D02*
X111714286Y-113966726D01*
X111714286Y-113966726D02*
X111761905Y-113919107D01*
X111761905Y-113919107D02*
X111857143Y-113871488D01*
X111857143Y-113871488D02*
X112095238Y-113871488D01*
X112095238Y-113871488D02*
X112238095Y-113919107D01*
X112571429Y-113871488D02*
X112809524Y-114871488D01*
X112809524Y-114871488D02*
X113000000Y-114157202D01*
X113000000Y-114157202D02*
X113190476Y-114871488D01*
X113190476Y-114871488D02*
X113428572Y-113871488D01*
X114285714Y-113871488D02*
X113809524Y-113871488D01*
X113809524Y-113871488D02*
X113761905Y-114347678D01*
X113761905Y-114347678D02*
X113809524Y-114300059D01*
X113809524Y-114300059D02*
X113904762Y-114252440D01*
X113904762Y-114252440D02*
X114142857Y-114252440D01*
X114142857Y-114252440D02*
X114238095Y-114300059D01*
X114238095Y-114300059D02*
X114285714Y-114347678D01*
X114285714Y-114347678D02*
X114333333Y-114442916D01*
X114333333Y-114442916D02*
X114333333Y-114681011D01*
X114333333Y-114681011D02*
X114285714Y-114776249D01*
X114285714Y-114776249D02*
X114238095Y-114823869D01*
X114238095Y-114823869D02*
X114142857Y-114871488D01*
X114142857Y-114871488D02*
X113904762Y-114871488D01*
X113904762Y-114871488D02*
X113809524Y-114823869D01*
X113809524Y-114823869D02*
X113761905Y-114776249D01*
X79333333Y-93359580D02*
X79285714Y-93407200D01*
X79285714Y-93407200D02*
X79142857Y-93454819D01*
X79142857Y-93454819D02*
X79047619Y-93454819D01*
X79047619Y-93454819D02*
X78904762Y-93407200D01*
X78904762Y-93407200D02*
X78809524Y-93311961D01*
X78809524Y-93311961D02*
X78761905Y-93216723D01*
X78761905Y-93216723D02*
X78714286Y-93026247D01*
X78714286Y-93026247D02*
X78714286Y-92883390D01*
X78714286Y-92883390D02*
X78761905Y-92692914D01*
X78761905Y-92692914D02*
X78809524Y-92597676D01*
X78809524Y-92597676D02*
X78904762Y-92502438D01*
X78904762Y-92502438D02*
X79047619Y-92454819D01*
X79047619Y-92454819D02*
X79142857Y-92454819D01*
X79142857Y-92454819D02*
X79285714Y-92502438D01*
X79285714Y-92502438D02*
X79333333Y-92550057D01*
X79904762Y-92883390D02*
X79809524Y-92835771D01*
X79809524Y-92835771D02*
X79761905Y-92788152D01*
X79761905Y-92788152D02*
X79714286Y-92692914D01*
X79714286Y-92692914D02*
X79714286Y-92645295D01*
X79714286Y-92645295D02*
X79761905Y-92550057D01*
X79761905Y-92550057D02*
X79809524Y-92502438D01*
X79809524Y-92502438D02*
X79904762Y-92454819D01*
X79904762Y-92454819D02*
X80095238Y-92454819D01*
X80095238Y-92454819D02*
X80190476Y-92502438D01*
X80190476Y-92502438D02*
X80238095Y-92550057D01*
X80238095Y-92550057D02*
X80285714Y-92645295D01*
X80285714Y-92645295D02*
X80285714Y-92692914D01*
X80285714Y-92692914D02*
X80238095Y-92788152D01*
X80238095Y-92788152D02*
X80190476Y-92835771D01*
X80190476Y-92835771D02*
X80095238Y-92883390D01*
X80095238Y-92883390D02*
X79904762Y-92883390D01*
X79904762Y-92883390D02*
X79809524Y-92931009D01*
X79809524Y-92931009D02*
X79761905Y-92978628D01*
X79761905Y-92978628D02*
X79714286Y-93073866D01*
X79714286Y-93073866D02*
X79714286Y-93264342D01*
X79714286Y-93264342D02*
X79761905Y-93359580D01*
X79761905Y-93359580D02*
X79809524Y-93407200D01*
X79809524Y-93407200D02*
X79904762Y-93454819D01*
X79904762Y-93454819D02*
X80095238Y-93454819D01*
X80095238Y-93454819D02*
X80190476Y-93407200D01*
X80190476Y-93407200D02*
X80238095Y-93359580D01*
X80238095Y-93359580D02*
X80285714Y-93264342D01*
X80285714Y-93264342D02*
X80285714Y-93073866D01*
X80285714Y-93073866D02*
X80238095Y-92978628D01*
X80238095Y-92978628D02*
X80190476Y-92931009D01*
X80190476Y-92931009D02*
X80095238Y-92883390D01*
X71238095Y-127954819D02*
X71238095Y-128764342D01*
X71238095Y-128764342D02*
X71285714Y-128859580D01*
X71285714Y-128859580D02*
X71333333Y-128907200D01*
X71333333Y-128907200D02*
X71428571Y-128954819D01*
X71428571Y-128954819D02*
X71619047Y-128954819D01*
X71619047Y-128954819D02*
X71714285Y-128907200D01*
X71714285Y-128907200D02*
X71761904Y-128859580D01*
X71761904Y-128859580D02*
X71809523Y-128764342D01*
X71809523Y-128764342D02*
X71809523Y-127954819D01*
X72809523Y-128954819D02*
X72238095Y-128954819D01*
X72523809Y-128954819D02*
X72523809Y-127954819D01*
X72523809Y-127954819D02*
X72428571Y-128097676D01*
X72428571Y-128097676D02*
X72333333Y-128192914D01*
X72333333Y-128192914D02*
X72238095Y-128240533D01*
X64929580Y-78917857D02*
X64977200Y-78965476D01*
X64977200Y-78965476D02*
X65024819Y-79108333D01*
X65024819Y-79108333D02*
X65024819Y-79203571D01*
X65024819Y-79203571D02*
X64977200Y-79346428D01*
X64977200Y-79346428D02*
X64881961Y-79441666D01*
X64881961Y-79441666D02*
X64786723Y-79489285D01*
X64786723Y-79489285D02*
X64596247Y-79536904D01*
X64596247Y-79536904D02*
X64453390Y-79536904D01*
X64453390Y-79536904D02*
X64262914Y-79489285D01*
X64262914Y-79489285D02*
X64167676Y-79441666D01*
X64167676Y-79441666D02*
X64072438Y-79346428D01*
X64072438Y-79346428D02*
X64024819Y-79203571D01*
X64024819Y-79203571D02*
X64024819Y-79108333D01*
X64024819Y-79108333D02*
X64072438Y-78965476D01*
X64072438Y-78965476D02*
X64120057Y-78917857D01*
X65024819Y-77965476D02*
X65024819Y-78536904D01*
X65024819Y-78251190D02*
X64024819Y-78251190D01*
X64024819Y-78251190D02*
X64167676Y-78346428D01*
X64167676Y-78346428D02*
X64262914Y-78441666D01*
X64262914Y-78441666D02*
X64310533Y-78536904D01*
X64120057Y-77584523D02*
X64072438Y-77536904D01*
X64072438Y-77536904D02*
X64024819Y-77441666D01*
X64024819Y-77441666D02*
X64024819Y-77203571D01*
X64024819Y-77203571D02*
X64072438Y-77108333D01*
X64072438Y-77108333D02*
X64120057Y-77060714D01*
X64120057Y-77060714D02*
X64215295Y-77013095D01*
X64215295Y-77013095D02*
X64310533Y-77013095D01*
X64310533Y-77013095D02*
X64453390Y-77060714D01*
X64453390Y-77060714D02*
X65024819Y-77632142D01*
X65024819Y-77632142D02*
X65024819Y-77013095D01*
X59454819Y-64142857D02*
X58978628Y-64476190D01*
X59454819Y-64714285D02*
X58454819Y-64714285D01*
X58454819Y-64714285D02*
X58454819Y-64333333D01*
X58454819Y-64333333D02*
X58502438Y-64238095D01*
X58502438Y-64238095D02*
X58550057Y-64190476D01*
X58550057Y-64190476D02*
X58645295Y-64142857D01*
X58645295Y-64142857D02*
X58788152Y-64142857D01*
X58788152Y-64142857D02*
X58883390Y-64190476D01*
X58883390Y-64190476D02*
X58931009Y-64238095D01*
X58931009Y-64238095D02*
X58978628Y-64333333D01*
X58978628Y-64333333D02*
X58978628Y-64714285D01*
X59454819Y-63190476D02*
X59454819Y-63761904D01*
X59454819Y-63476190D02*
X58454819Y-63476190D01*
X58454819Y-63476190D02*
X58597676Y-63571428D01*
X58597676Y-63571428D02*
X58692914Y-63666666D01*
X58692914Y-63666666D02*
X58740533Y-63761904D01*
X59454819Y-62238095D02*
X59454819Y-62809523D01*
X59454819Y-62523809D02*
X58454819Y-62523809D01*
X58454819Y-62523809D02*
X58597676Y-62619047D01*
X58597676Y-62619047D02*
X58692914Y-62714285D01*
X58692914Y-62714285D02*
X58740533Y-62809523D01*
X50666667Y-137657200D02*
X50809524Y-137704819D01*
X50809524Y-137704819D02*
X51047619Y-137704819D01*
X51047619Y-137704819D02*
X51142857Y-137657200D01*
X51142857Y-137657200D02*
X51190476Y-137609580D01*
X51190476Y-137609580D02*
X51238095Y-137514342D01*
X51238095Y-137514342D02*
X51238095Y-137419104D01*
X51238095Y-137419104D02*
X51190476Y-137323866D01*
X51190476Y-137323866D02*
X51142857Y-137276247D01*
X51142857Y-137276247D02*
X51047619Y-137228628D01*
X51047619Y-137228628D02*
X50857143Y-137181009D01*
X50857143Y-137181009D02*
X50761905Y-137133390D01*
X50761905Y-137133390D02*
X50714286Y-137085771D01*
X50714286Y-137085771D02*
X50666667Y-136990533D01*
X50666667Y-136990533D02*
X50666667Y-136895295D01*
X50666667Y-136895295D02*
X50714286Y-136800057D01*
X50714286Y-136800057D02*
X50761905Y-136752438D01*
X50761905Y-136752438D02*
X50857143Y-136704819D01*
X50857143Y-136704819D02*
X51095238Y-136704819D01*
X51095238Y-136704819D02*
X51238095Y-136752438D01*
X51571429Y-136704819D02*
X51809524Y-137704819D01*
X51809524Y-137704819D02*
X52000000Y-136990533D01*
X52000000Y-136990533D02*
X52190476Y-137704819D01*
X52190476Y-137704819D02*
X52428572Y-136704819D01*
X53333333Y-137704819D02*
X52761905Y-137704819D01*
X53047619Y-137704819D02*
X53047619Y-136704819D01*
X53047619Y-136704819D02*
X52952381Y-136847676D01*
X52952381Y-136847676D02*
X52857143Y-136942914D01*
X52857143Y-136942914D02*
X52761905Y-136990533D01*
X111666667Y-103796092D02*
X111809524Y-103843711D01*
X111809524Y-103843711D02*
X112047619Y-103843711D01*
X112047619Y-103843711D02*
X112142857Y-103796092D01*
X112142857Y-103796092D02*
X112190476Y-103748472D01*
X112190476Y-103748472D02*
X112238095Y-103653234D01*
X112238095Y-103653234D02*
X112238095Y-103557996D01*
X112238095Y-103557996D02*
X112190476Y-103462758D01*
X112190476Y-103462758D02*
X112142857Y-103415139D01*
X112142857Y-103415139D02*
X112047619Y-103367520D01*
X112047619Y-103367520D02*
X111857143Y-103319901D01*
X111857143Y-103319901D02*
X111761905Y-103272282D01*
X111761905Y-103272282D02*
X111714286Y-103224663D01*
X111714286Y-103224663D02*
X111666667Y-103129425D01*
X111666667Y-103129425D02*
X111666667Y-103034187D01*
X111666667Y-103034187D02*
X111714286Y-102938949D01*
X111714286Y-102938949D02*
X111761905Y-102891330D01*
X111761905Y-102891330D02*
X111857143Y-102843711D01*
X111857143Y-102843711D02*
X112095238Y-102843711D01*
X112095238Y-102843711D02*
X112238095Y-102891330D01*
X112571429Y-102843711D02*
X112809524Y-103843711D01*
X112809524Y-103843711D02*
X113000000Y-103129425D01*
X113000000Y-103129425D02*
X113190476Y-103843711D01*
X113190476Y-103843711D02*
X113428572Y-102843711D01*
X114238095Y-102843711D02*
X114047619Y-102843711D01*
X114047619Y-102843711D02*
X113952381Y-102891330D01*
X113952381Y-102891330D02*
X113904762Y-102938949D01*
X113904762Y-102938949D02*
X113809524Y-103081806D01*
X113809524Y-103081806D02*
X113761905Y-103272282D01*
X113761905Y-103272282D02*
X113761905Y-103653234D01*
X113761905Y-103653234D02*
X113809524Y-103748472D01*
X113809524Y-103748472D02*
X113857143Y-103796092D01*
X113857143Y-103796092D02*
X113952381Y-103843711D01*
X113952381Y-103843711D02*
X114142857Y-103843711D01*
X114142857Y-103843711D02*
X114238095Y-103796092D01*
X114238095Y-103796092D02*
X114285714Y-103748472D01*
X114285714Y-103748472D02*
X114333333Y-103653234D01*
X114333333Y-103653234D02*
X114333333Y-103415139D01*
X114333333Y-103415139D02*
X114285714Y-103319901D01*
X114285714Y-103319901D02*
X114238095Y-103272282D01*
X114238095Y-103272282D02*
X114142857Y-103224663D01*
X114142857Y-103224663D02*
X113952381Y-103224663D01*
X113952381Y-103224663D02*
X113857143Y-103272282D01*
X113857143Y-103272282D02*
X113809524Y-103319901D01*
X113809524Y-103319901D02*
X113761905Y-103415139D01*
D12*
%TO.C,SW7*%
X109500000Y-87361115D02*
X109500000Y-88861115D01*
X110750000Y-91361115D02*
X115250000Y-91361115D01*
X115250000Y-84861115D02*
X110750000Y-84861115D01*
X116500000Y-88861115D02*
X116500000Y-87361115D01*
%TO.C,SW4*%
X109500000Y-120444446D02*
X109500000Y-121944446D01*
X110750000Y-124444446D02*
X115250000Y-124444446D01*
X115250000Y-117944446D02*
X110750000Y-117944446D01*
X116500000Y-121944446D02*
X116500000Y-120444446D01*
%TO.C,SW3*%
X109500000Y-131472223D02*
X109500000Y-132972223D01*
X110750000Y-135472223D02*
X115250000Y-135472223D01*
X115250000Y-128972223D02*
X110750000Y-128972223D01*
X116500000Y-132972223D02*
X116500000Y-131472223D01*
%TO.C,JP1*%
X48500000Y-62100000D02*
X50500000Y-62100000D01*
X48500000Y-64900000D02*
X48500000Y-62100000D01*
X50500000Y-62100000D02*
X50500000Y-64900000D01*
X50500000Y-64900000D02*
X48500000Y-64900000D01*
%TO.C,R3*%
X75504400Y-128996036D02*
X75504400Y-129450164D01*
X76974400Y-128996036D02*
X76974400Y-129450164D01*
%TO.C,SW2*%
X109500000Y-142500000D02*
X109500000Y-144000000D01*
X110750000Y-146500000D02*
X115250000Y-146500000D01*
X115250000Y-140000000D02*
X110750000Y-140000000D01*
X116500000Y-144000000D02*
X116500000Y-142500000D01*
%TO.C,C5*%
X59640580Y-87990000D02*
X59359420Y-87990000D01*
X59640580Y-89010000D02*
X59359420Y-89010000D01*
%TO.C,R2*%
X84265000Y-141272936D02*
X84265000Y-141727064D01*
X85735000Y-141272936D02*
X85735000Y-141727064D01*
%TO.C,C18*%
X75859420Y-94490000D02*
X76140580Y-94490000D01*
X75859420Y-95510000D02*
X76140580Y-95510000D01*
%TO.C,Y3*%
X51975000Y-83365000D02*
X51975000Y-89615000D01*
X57025000Y-83365000D02*
X57025000Y-89615000D01*
X51975000Y-83365000D02*
G75*
G02*
X57025000Y-83365000I2525000J0D01*
G01*
X57025000Y-89615000D02*
G75*
G02*
X51975000Y-89615000I-2525000J0D01*
G01*
%TO.C,R14*%
X82062258Y-131977500D02*
X81587742Y-131977500D01*
X82062258Y-133022500D02*
X81587742Y-133022500D01*
%TO.C,SW11*%
X109500000Y-43250000D02*
X109500000Y-44750000D01*
X110750000Y-47250000D02*
X115250000Y-47250000D01*
X115250000Y-40750000D02*
X110750000Y-40750000D01*
X116500000Y-44750000D02*
X116500000Y-43250000D01*
%TO.C,R4*%
X80012336Y-123988100D02*
X80466464Y-123988100D01*
X80012336Y-125458100D02*
X80466464Y-125458100D01*
%TO.C,J4*%
X80645000Y-73380000D02*
X81975000Y-73380000D01*
X80645000Y-74710000D02*
X80645000Y-73380000D01*
X80645000Y-75980000D02*
X83245000Y-75980000D01*
X80645000Y-78580000D02*
X80645000Y-75980000D01*
X80645000Y-78580000D02*
X88385000Y-78580000D01*
X83245000Y-73380000D02*
X88385000Y-73380000D01*
X83245000Y-75980000D02*
X83245000Y-73380000D01*
X88385000Y-78580000D02*
X88385000Y-73380000D01*
%TO.C,R8*%
X77977500Y-115262742D02*
X77977500Y-115737258D01*
X79022500Y-115262742D02*
X79022500Y-115737258D01*
%TO.C,J3*%
X62850000Y-102250000D02*
X62850000Y-103590000D01*
X62850000Y-106310000D02*
X62850000Y-108050000D01*
X62850000Y-108050000D02*
X73150000Y-108050000D01*
X64340000Y-102250000D02*
X62850000Y-102250000D01*
X64340000Y-102250000D02*
X64340000Y-101050000D01*
X71660000Y-102250000D02*
X73150000Y-102250000D01*
X73150000Y-102250000D02*
X73150000Y-103590000D01*
X73150000Y-108050000D02*
X73150000Y-106310000D01*
%TO.C,C10*%
X78359420Y-82490000D02*
X78640580Y-82490000D01*
X78359420Y-83510000D02*
X78640580Y-83510000D01*
%TO.C,C13*%
X58490000Y-143140580D02*
X58490000Y-142859420D01*
X59510000Y-143140580D02*
X59510000Y-142859420D01*
%TO.C,D1*%
X76850000Y-135060000D02*
X78120000Y-135060000D01*
X78150000Y-131940000D02*
X76850000Y-131940000D01*
X78740000Y-135340000D02*
X78260000Y-135340000D01*
X78500000Y-135010000D01*
X78740000Y-135340000D01*
G36*
X78740000Y-135340000D02*
G01*
X78260000Y-135340000D01*
X78500000Y-135010000D01*
X78740000Y-135340000D01*
G37*
%TO.C,C14*%
X64765000Y-115761252D02*
X64765000Y-115238748D01*
X66235000Y-115761252D02*
X66235000Y-115238748D01*
%TO.C,C11*%
X67490000Y-96634420D02*
X67490000Y-96915580D01*
X68510000Y-96634420D02*
X68510000Y-96915580D01*
%TO.C,C6*%
X59580580Y-89990000D02*
X59299420Y-89990000D01*
X59580580Y-91010000D02*
X59299420Y-91010000D01*
%TO.C,R10*%
X59762742Y-80477500D02*
X60237258Y-80477500D01*
X59762742Y-81522500D02*
X60237258Y-81522500D01*
%TO.C,C15*%
X70265000Y-113761252D02*
X70265000Y-113238748D01*
X71735000Y-113761252D02*
X71735000Y-113238748D01*
%TO.C,R7*%
X87762742Y-70977500D02*
X88237258Y-70977500D01*
X87762742Y-72022500D02*
X88237258Y-72022500D01*
%TO.C,C9*%
X65990000Y-95584420D02*
X65990000Y-95865580D01*
X67010000Y-95584420D02*
X67010000Y-95865580D01*
%TO.C,SW9*%
X109500000Y-65305561D02*
X109500000Y-66805561D01*
X110750000Y-69305561D02*
X115250000Y-69305561D01*
X115250000Y-62805561D02*
X110750000Y-62805561D01*
X116500000Y-66805561D02*
X116500000Y-65305561D01*
%TO.C,J2*%
X57679400Y-120313100D02*
X57679400Y-128133100D01*
X57679400Y-121913100D02*
X58599400Y-121913100D01*
X57679400Y-128133100D02*
X63799400Y-128133100D01*
X58439400Y-124273100D02*
X58439400Y-125873100D01*
X58439400Y-125873100D02*
X59439400Y-125873100D01*
X58599400Y-120313100D02*
X57679400Y-120313100D01*
X58599400Y-121913100D02*
X58599400Y-120313100D01*
X58879400Y-121913100D02*
X58599400Y-121913100D01*
X58879400Y-121913100D02*
X58879400Y-120698100D01*
X58939400Y-125873100D02*
X58939400Y-128133100D01*
X59439400Y-124273100D02*
X58439400Y-124273100D01*
X59439400Y-125873100D02*
X59439400Y-124273100D01*
X59439400Y-125873100D02*
X59439400Y-128133100D01*
X60239400Y-123773100D02*
X61239400Y-123773100D01*
X60239400Y-128133100D02*
X60239400Y-123773100D01*
X61239400Y-123773100D02*
X61239400Y-128133100D01*
X62039400Y-124273100D02*
X63039400Y-124273100D01*
X62039400Y-125873100D02*
X62039400Y-124273100D01*
X62879400Y-120313100D02*
X62879400Y-121913100D01*
X62879400Y-121913100D02*
X62599400Y-121913100D01*
X63039400Y-124273100D02*
X63039400Y-125873100D01*
X63039400Y-125873100D02*
X62039400Y-125873100D01*
X63799400Y-120313100D02*
X62879400Y-120313100D01*
X63799400Y-121913100D02*
X62879400Y-121913100D01*
X63799400Y-128133100D02*
X63799400Y-120313100D01*
D13*
%TO.C,S1*%
X47500000Y-116200000D02*
X51500000Y-116200000D01*
X47500000Y-127800000D02*
X47500000Y-116200000D01*
D14*
X49500000Y-115000000D02*
X49500000Y-115000000D01*
X49500000Y-115200000D02*
X49500000Y-115200000D01*
D13*
X51500000Y-116200000D02*
X51500000Y-127800000D01*
X51500000Y-127800000D02*
X47500000Y-127800000D01*
D14*
X49500000Y-115000000D02*
G75*
G02*
X49500000Y-115200000I0J-100000D01*
G01*
X49500000Y-115200000D02*
G75*
G02*
X49500000Y-115000000I0J100000D01*
G01*
D12*
%TO.C,R13*%
X61977500Y-60237258D02*
X61977500Y-59762742D01*
X63022500Y-60237258D02*
X63022500Y-59762742D01*
%TO.C,R5*%
X80012336Y-126938100D02*
X80466464Y-126938100D01*
X80012336Y-128408100D02*
X80466464Y-128408100D01*
%TO.C,R9*%
X86762742Y-79977500D02*
X87237258Y-79977500D01*
X86762742Y-81022500D02*
X87237258Y-81022500D01*
D14*
%TO.C,Q1*%
X68150000Y-116000000D02*
X69350000Y-116000000D01*
X69700000Y-116050000D02*
X70300000Y-116050000D01*
X69700000Y-118950000D02*
X69700000Y-116050000D01*
X70300000Y-116050000D02*
X70300000Y-118950000D01*
X70300000Y-118950000D02*
X69700000Y-118950000D01*
D12*
%TO.C,C3*%
X68440648Y-124988100D02*
X68963152Y-124988100D01*
X68440648Y-126458100D02*
X68963152Y-126458100D01*
%TO.C,J5*%
X48630000Y-46670000D02*
X69210000Y-46670000D01*
X48630000Y-55790000D02*
X48630000Y-46670000D01*
X49930000Y-47980000D02*
X67910000Y-47980000D01*
X49930000Y-54480000D02*
X49930000Y-47980000D01*
X53340000Y-57180000D02*
X54340000Y-57180000D01*
X53840000Y-56180000D02*
X53340000Y-57180000D01*
X54340000Y-57180000D02*
X53840000Y-56180000D01*
X56870000Y-54480000D02*
X49930000Y-54480000D01*
X56870000Y-55790000D02*
X56870000Y-54480000D01*
X60970000Y-54480000D02*
X60970000Y-54480000D01*
X60970000Y-54480000D02*
X60970000Y-55790000D01*
X67910000Y-47980000D02*
X67910000Y-54480000D01*
X67910000Y-54480000D02*
X60970000Y-54480000D01*
X69210000Y-46670000D02*
X69210000Y-55790000D01*
X69210000Y-55790000D02*
X48630000Y-55790000D01*
%TO.C,C1*%
X74978148Y-121988100D02*
X75500652Y-121988100D01*
X74978148Y-123458100D02*
X75500652Y-123458100D01*
%TO.C,C17*%
X48084420Y-83490000D02*
X48365580Y-83490000D01*
X48084420Y-84510000D02*
X48365580Y-84510000D01*
%TO.C,C2*%
X70978148Y-121988100D02*
X71500652Y-121988100D01*
X70978148Y-123458100D02*
X71500652Y-123458100D01*
%TO.C,C7*%
X76584420Y-80990000D02*
X76865580Y-80990000D01*
X76584420Y-82010000D02*
X76865580Y-82010000D01*
%TO.C,R1*%
X85772936Y-136265000D02*
X86227064Y-136265000D01*
X85772936Y-137735000D02*
X86227064Y-137735000D01*
%TO.C,R6*%
X75477500Y-115437742D02*
X75477500Y-115912258D01*
X76522500Y-115437742D02*
X76522500Y-115912258D01*
%TO.C,R12*%
X55977500Y-60237258D02*
X55977500Y-59762742D01*
X57022500Y-60237258D02*
X57022500Y-59762742D01*
%TO.C,C4*%
X66990000Y-77140580D02*
X66990000Y-76859420D01*
X68010000Y-77140580D02*
X68010000Y-76859420D01*
%TO.C,C16*%
X48074420Y-88490000D02*
X48355580Y-88490000D01*
X48074420Y-89510000D02*
X48355580Y-89510000D01*
%TO.C,U2*%
X63390000Y-81890000D02*
X63390000Y-82840000D01*
X63390000Y-92110000D02*
X63390000Y-91160000D01*
X64340000Y-81890000D02*
X63390000Y-81890000D01*
X64340000Y-92110000D02*
X63390000Y-92110000D01*
X72660000Y-81890000D02*
X73610000Y-81890000D01*
X72660000Y-92110000D02*
X73610000Y-92110000D01*
X73610000Y-81890000D02*
X73610000Y-82840000D01*
X73610000Y-92110000D02*
X73610000Y-91160000D01*
X62775000Y-82840000D02*
X62435000Y-82370000D01*
X63115000Y-82370000D01*
X62775000Y-82840000D01*
G36*
X62775000Y-82840000D02*
G01*
X62435000Y-82370000D01*
X63115000Y-82370000D01*
X62775000Y-82840000D01*
G37*
D14*
%TO.C,J1*%
X72530000Y-143650000D02*
X72530000Y-144330000D01*
X72530000Y-146890000D02*
X72530000Y-147240000D01*
X72530000Y-147240000D02*
X81470000Y-147240000D01*
X81470000Y-143650000D02*
X81470000Y-144330000D01*
X81470000Y-147240000D02*
X81470000Y-146890000D01*
X74125000Y-139800000D02*
G75*
G02*
X73925000Y-139800000I-100000J0D01*
G01*
X73925000Y-139800000D02*
G75*
G02*
X74125000Y-139800000I100000J0D01*
G01*
D12*
%TO.C,SW10*%
X109500000Y-54277784D02*
X109500000Y-55777784D01*
X110750000Y-58277784D02*
X115250000Y-58277784D01*
X115250000Y-51777784D02*
X110750000Y-51777784D01*
X116500000Y-55777784D02*
X116500000Y-54277784D01*
%TO.C,SW8*%
X109500000Y-76333338D02*
X109500000Y-77833338D01*
X110750000Y-80333338D02*
X115250000Y-80333338D01*
X115250000Y-73833338D02*
X110750000Y-73833338D01*
X116500000Y-77833338D02*
X116500000Y-76333338D01*
%TO.C,SW5*%
X109500000Y-109416669D02*
X109500000Y-110916669D01*
X110750000Y-113416669D02*
X115250000Y-113416669D01*
X115250000Y-106916669D02*
X110750000Y-106916669D01*
X116500000Y-110916669D02*
X116500000Y-109416669D01*
%TO.C,C8*%
X75859420Y-92490000D02*
X76140580Y-92490000D01*
X75859420Y-93510000D02*
X76140580Y-93510000D01*
D15*
%TO.C,U1*%
X72750297Y-127404200D02*
X73989103Y-127404200D01*
X73989103Y-125042000D02*
X72750297Y-125042000D01*
X71559950Y-125423000D02*
G75*
G02*
X71356750Y-125423000I-101600J0D01*
G01*
X71356750Y-125423000D02*
G75*
G02*
X71559950Y-125423000I101600J0D01*
G01*
D12*
%TO.C,C12*%
X65490000Y-78415580D02*
X65490000Y-78134420D01*
X66510000Y-78415580D02*
X66510000Y-78134420D01*
%TO.C,R11*%
X58477500Y-60237258D02*
X58477500Y-59762742D01*
X59522500Y-60237258D02*
X59522500Y-59762742D01*
%TO.C,SW1*%
X48500000Y-140750000D02*
X48500000Y-142250000D01*
X49750000Y-144750000D02*
X54250000Y-144750000D01*
X54250000Y-138250000D02*
X49750000Y-138250000D01*
X55500000Y-142250000D02*
X55500000Y-140750000D01*
%TO.C,SW6*%
X109500000Y-98388892D02*
X109500000Y-99888892D01*
X110750000Y-102388892D02*
X115250000Y-102388892D01*
X115250000Y-95888892D02*
X110750000Y-95888892D01*
X116500000Y-99888892D02*
X116500000Y-98388892D01*
%TD*%
M02*
